  0
SECTION
  2
HEADER
  9
$ACADVER
  1
AC1015
  9
$ACADMAINTVER
 70
     6
  9
$DWGCODEPAGE
  3
ANSI_1252
  9
$INSBASE
 10
0.0
 20
0.0
 30
0.0
  9
$EXTMIN
 10
0.0
 20
0.0
 30
0.0
  9
$EXTMAX
 10
420.0
 20
297.0
 30
0.0
  9
$LIMMIN
 10
0.0
 20
0.0
  9
$LIMMAX
 10
420.0
 20
297.0
  9
$ORTHOMODE
 70
     0
  9
$REGENMODE
 70
     1
  9
$FILLMODE
 70
     1
  9
$QTEXTMODE
 70
     0
  9
$MIRRTEXT
 70
     1
  9
$LTSCALE
 40
1.0
  9
$ATTMODE
 70
     1
  9
$TEXTSIZE
 40
3.5
  9
$TRACEWID
 40
1.0
  9
$TEXTSTYLE
  7
Standard
  9
$CLAYER
  8
0
  9
$CELTYPE
  6
ByLayer
  9
$CECOLOR
 62
   256
  9
$CELTSCALE
 40
1.0
  9
$DISPSILH
 70
     0
  9
$DIMSCALE
 40
1.0
  9
$DIMASZ
 40
3.302
  9
$DIMEXO
 40
1.0
  9
$DIMDLI
 40
3.75
  9
$DIMRND
 40
0.0
  9
$DIMDLE
 40
0.0
  9
$DIMEXE
 40
1.0
  9
$DIMTP
 40
0.0
  9
$DIMTM
 40
0.0
  9
$DIMTXT
 40
3.5
  9
$DIMCEN
 40
2.5
  9
$DIMTSZ
 40
0.0
  9
$DIMTOL
 70
     0
  9
$DIMLIM
 70
     0
  9
$DIMTIH
 70
     1
  9
$DIMTOH
 70
     1
  9
$DIMSE1
 70
     0
  9
$DIMSE2
 70
     0
  9
$DIMTAD
 70
     1
  9
$DIMZIN
 70
     1
  9
$DIMBLK
  1

  9
$DIMASO
 70
     1
  9
$DIMSHO
 70
     1
  9
$DIMPOST
  1

  9
$DIMAPOST
  1

  9
$DIMALT
 70
     0
  9
$DIMALTD
 70
     3
  9
$DIMALTF
 40
0.0393700787
  9
$DIMLFAC
 40
1.0
  9
$DIMTOFL
 70
     1
  9
$DIMTVP
 40
0.0
  9
$DIMTIX
 70
     0
  9
$DIMSOXD
 70
     0
  9
$DIMSAH
 70
     0
  9
$DIMBLK1
  1

  9
$DIMBLK2
  1

  9
$DIMSTYLE
  2
ISO-25
  9
$DIMCLRD
 70
     0
  9
$DIMCLRE
 70
     0
  9
$DIMCLRT
 70
     0
  9
$DIMTFAC
 40
1.0
  9
$DIMGAP
 40
1.524
  9
$DIMJUST
 70
     0
  9
$DIMSD1
 70
     0
  9
$DIMSD2
 70
     0
  9
$DIMTOLJ
 70
     0
  9
$DIMTZIN
 70
     1
  9
$DIMALTZ
 70
     0
  9
$DIMALTTZ
 70
     0
  9
$DIMUPT
 70
     0
  9
$DIMDEC
 70
     2
  9
$DIMTDEC
 70
     2
  9
$DIMALTU
 70
     2
  9
$DIMALTTD
 70
     3
  9
$DIMTXSTY
  7
Standard
  9
$DIMAUNIT
 70
     0
  9
$DIMADEC
 70
     2
  9
$DIMALTRND
 40
0.0
  9
$DIMAZIN
 70
     0
  9
$DIMDSEP
 70
    44
  9
$DIMATFIT
 70
     3
  9
$DIMFRAC
 70
     0
  9
$DIMLDRBLK
  1

  9
$DIMLUNIT
 70
     2
  9
$DIMLWD
 70
    -2
  9
$DIMLWE
 70
    -2
  9
$DIMTMOVE
 70
     0
  9
$LUNITS
 70
     2
  9
$LUPREC
 70
     2
  9
$SKETCHINC
 40
1.0
  9
$FILLETRAD
 40
10.0
  9
$AUNITS
 70
     0
  9
$AUPREC
 70
     2
  9
$MENU
  1
.
  9
$ELEVATION
 40
0.0
  9
$PELEVATION
 40
0.0
  9
$THICKNESS
 40
0.0
  9
$LIMCHECK
 70
     0
  9
$CHAMFERA
 40
0.0
  9
$CHAMFERB
 40
0.0
  9
$CHAMFERC
 40
0.0
  9
$CHAMFERD
 40
0.0
  9
$SKPOLY
 70
     0
  9
$TDCREATE
 40
2459677.751821748
  9
$TDUCREATE
 40
2459677.418488414
  9
$TDUPDATE
 40
2459677.751822685
  9
$TDUUPDATE
 40
2459677.418489352
  9
$TDINDWG
 40
0.0000000116
  9
$TDUSRTIMER
 40
0.0000000116
  9
$USRTIMER
 70
     1
  9
$ANGBASE
 50
0.0
  9
$ANGDIR
 70
     0
  9
$PDMODE
 70
     0
  9
$PDSIZE
 40
-1.0
  9
$PLINEWID
 40
0.0
  9
$SPLFRAME
 70
     0
  9
$SPLINETYPE
 70
     6
  9
$SPLINESEGS
 70
     8
  9
$HANDSEED
  5
F8
  9
$SURFTAB1
 70
     6
  9
$SURFTAB2
 70
     6
  9
$SURFTYPE
 70
     6
  9
$SURFU
 70
     6
  9
$SURFV
 70
     6
  9
$UCSBASE
  2

  9
$UCSNAME
  2

  9
$UCSORG
 10
0.0
 20
0.0
 30
0.0
  9
$UCSXDIR
 10
1.0
 20
0.0
 30
0.0
  9
$UCSYDIR
 10
0.0
 20
1.0
 30
0.0
  9
$UCSORTHOREF
  2

  9
$UCSORTHOVIEW
 70
     0
  9
$UCSORGTOP
 10
0.0
 20
0.0
 30
0.0
  9
$UCSORGBOTTOM
 10
0.0
 20
0.0
 30
0.0
  9
$UCSORGLEFT
 10
0.0
 20
0.0
 30
0.0
  9
$UCSORGRIGHT
 10
0.0
 20
0.0
 30
0.0
  9
$UCSORGFRONT
 10
0.0
 20
0.0
 30
0.0
  9
$UCSORGBACK
 10
0.0
 20
0.0
 30
0.0
  9
$PUCSBASE
  2

  9
$PUCSNAME
  2

  9
$PUCSORG
 10
0.0
 20
0.0
 30
0.0
  9
$PUCSXDIR
 10
1.0
 20
0.0
 30
0.0
  9
$PUCSYDIR
 10
0.0
 20
1.0
 30
0.0
  9
$PUCSORTHOREF
  2

  9
$PUCSORTHOVIEW
 70
     0
  9
$PUCSORGTOP
 10
0.0
 20
0.0
 30
0.0
  9
$PUCSORGBOTTOM
 10
0.0
 20
0.0
 30
0.0
  9
$PUCSORGLEFT
 10
0.0
 20
0.0
 30
0.0
  9
$PUCSORGRIGHT
 10
0.0
 20
0.0
 30
0.0
  9
$PUCSORGFRONT
 10
0.0
 20
0.0
 30
0.0
  9
$PUCSORGBACK
 10
0.0
 20
0.0
 30
0.0
  9
$USERI1
 70
     0
  9
$USERI2
 70
     0
  9
$USERI3
 70
     0
  9
$USERI4
 70
     0
  9
$USERI5
 70
     0
  9
$USERR1
 40
0.0
  9
$USERR2
 40
0.0
  9
$USERR3
 40
0.0
  9
$USERR4
 40
0.0
  9
$USERR5
 40
0.0
  9
$WORLDVIEW
 70
     1
  9
$SHADEDGE
 70
     3
  9
$SHADEDIF
 70
    70
  9
$TILEMODE
 70
     1
  9
$MAXACTVP
 70
    64
  9
$PINSBASE
 10
0.0
 20
0.0
 30
0.0
  9
$PLIMCHECK
 70
     0
  9
$PEXTMIN
 10
1.0000000000E+20
 20
1.0000000000E+20
 30
1.0000000000E+20
  9
$PEXTMAX
 10
-1.0000000000E+20
 20
-1.0000000000E+20
 30
-1.0000000000E+20
  9
$PLIMMIN
 10
0.0
 20
0.0
  9
$PLIMMAX
 10
420.0
 20
297.0
  9
$UNITMODE
 70
     0
  9
$VISRETAIN
 70
     1
  9
$PLINEGEN
 70
     0
  9
$PSLTSCALE
 70
     1
  9
$TREEDEPTH
 70
  3020
  9
$CMLSTYLE
  2
Standard
  9
$CMLJUST
 70
     0
  9
$CMLSCALE
 40
20.0
  9
$PROXYGRAPHICS
 70
     1
  9
$MEASUREMENT
 70
     1
  9
$CELWEIGHT
370
    -1
  9
$ENDCAPS
280
     0
  9
$JOINSTYLE
280
     0
  9
$LWDISPLAY
290
     1
  9
$INSUNITS
 70
     4
  9
$HYPERLINKBASE
  1

  9
$STYLESHEET
  1

  9
$XEDIT
290
     1
  9
$CEPSNTYPE
380
     0
  9
$PSTYLEMODE
290
     1
  9
$FINGERPRINTGUID
  2
{ce9ab015-cb14-4dfc-8d5e-9a71d46afedd}
  9
$VERSIONGUID
  2
{FAEB1C32-E019-11D5-929B-00C0DF256EC4}
  9
$EXTNAMES
290
     1
  9
$PSVPSCALE
 40
0.0
  9
$OLESTARTUP
290
     0
  0
ENDSEC
  0
SECTION
  2
CLASSES
  0
CLASS
  1
ACDBDICTIONARYWDFLT
  2
AcDbDictionaryWithDefault
  3
ObjectDBX Classes
 90
        0
280
     0
281
     0
  0
CLASS
  1
VISUALSTYLE
  2
AcDbVisualStyle
  3
ObjectDBX Classes
 90
     4095
280
     0
281
     0
  0
CLASS
  1
MATERIAL
  2
AcDbMaterial
  3
ObjectDBX Classes
 90
     1153
280
     0
281
     0
  0
CLASS
  1
SCALE
  2
AcDbScale
  3
ObjectDBX Classes
 90
     1153
280
     0
281
     0
  0
CLASS
  1
TABLESTYLE
  2
AcDbTableStyle
  3
ObjectDBX Classes
 90
     4095
280
     0
281
     0
  0
CLASS
  1
MLEADERSTYLE
  2
AcDbMLeaderStyle
  3
ACDB_MLEADERSTYLE_CLASS
 90
     4095
280
     0
281
     0
  0
CLASS
  1
SUN
  2
AcDbSun
  3
SCENEOE
 90
     1153
280
     0
281
     0
  0
CLASS
  1
ACDBPLACEHOLDER
  2
AcDbPlaceHolder
  3
ObjectDBX Classes
 90
        0
280
     0
281
     0
  0
CLASS
  1
LAYOUT
  2
AcDbLayout
  3
ObjectDBX Classes
 90
        0
280
     0
281
     0
  0
ENDSEC
  0
SECTION
  2
TABLES
  0
TABLE
  2
VPORT
  5
8
330
0
100
AcDbSymbolTable
 70
     1
  0
VPORT
  5
29
330
8
100
AcDbSymbolTableRecord
100
AcDbViewportTableRecord
  2
*Active
 70
     0
 10
0.0
 20
0.0
 11
1.0
 21
1.0
 12
210.0
 22
148.5
 13
0.0
 23
0.0
 14
10.0
 24
10.0
 15
10.0
 25
10.0
 16
0.0
 26
0.0
 36
1.0
 17
0.0
 27
0.0
 37
0.0
 40
297.0
 41
1.4141414141
 42
50.0
 43
0.0
 44
0.0
 50
0.0
 51
0.0
 71
     0
 72
  2000
 73
     1
 74
     3
 75
     0
 76
     0
 77
     0
 78
     0
281
     0
 65
     1
110
0.0
120
0.0
130
0.0
111
1.0
121
0.0
131
0.0
112
0.0
122
1.0
132
0.0
 79
     0
146
0.0
  0
ENDTAB
  0
TABLE
  2
LTYPE
  5
5
330
0
100
AcDbSymbolTable
 70
     6
  0
LTYPE
  5
14
330
5
100
AcDbSymbolTableRecord
100
AcDbLinetypeTableRecord
  2
ByBlock
 70
     0
  3

 72
    65
 73
     0
 40
0.0
  0
LTYPE
  5
15
330
5
100
AcDbSymbolTableRecord
100
AcDbLinetypeTableRecord
  2
ByLayer
 70
     0
  3

 72
    65
 73
     0
 40
0.0
  0
LTYPE
  5
16
330
5
100
AcDbSymbolTableRecord
100
AcDbLinetypeTableRecord
  2
Continuous
 70
     0
  3
Solid line
 72
    65
 73
     0
 40
0.0
  0
LTYPE
  5
6E
330
5
100
AcDbSymbolTableRecord
100
AcDbLinetypeTableRecord
  2
HIDDEN
 70
     0
  3
Hidden __ __ __ __ __ __ __ __ __ __ __ __ __ __
 72
    65
 73
     2
 40
1.905
 49
1.27
 74
     0
 49
-0.635
 74
     0
  0
LTYPE
  5
6F
330
5
100
AcDbSymbolTableRecord
100
AcDbLinetypeTableRecord
  2
PHANTOM
 70
     0
  3
Phantom ______  __  __  ______  __  __  ______
 72
    65
 73
     6
 40
12.7
 49
6.35
 74
     0
 49
-1.27
 74
     0
 49
1.27
 74
     0
 49
-1.27
 74
     0
 49
1.27
 74
     0
 49
-1.27
 74
     0
  0
LTYPE
  5
70
330
5
100
AcDbSymbolTableRecord
100
AcDbLinetypeTableRecord
  2
CENTER
 70
     0
  3
Center ____ _ ____ _ ____ _ ____ _ ____ _ ____
 72
    65
 73
     4
 40
10.16
 49
6.35
 74
     0
 49
-1.27
 74
     0
 49
1.27
 74
     0
 49
-1.27
 74
     0
  0
LTYPE
  5
71
330
5
100
AcDbSymbolTableRecord
100
AcDbLinetypeTableRecord
  2
CENTERX2
 70
     0
  3
Center (2x) ________  __  ________  __  _____
 72
    65
 73
     4
 40
20.32
 49
12.7
 74
     0
 49
-2.54
 74
     0
 49
2.54
 74
     0
 49
-2.54
 74
     0
  0
LTYPE
  5
72
330
5
100
AcDbSymbolTableRecord
100
AcDbLinetypeTableRecord
  2
DOT2
 70
     0
  3
Dot (.5x) ........................................
 72
    65
 73
     2
 40
0.635
 49
0.0
 74
     0
 49
-0.635
 74
     0
  0
ENDTAB
  0
TABLE
  2
LAYER
  5
2
330
0
100
AcDbSymbolTable
 70
     2
  0
LAYER
  5
10
330
2
100
AcDbSymbolTableRecord
100
AcDbLayerTableRecord
  2
0
 70
     0
 62
     7
  6
Continuous
370
    -3
390
F
  0
LAYER
  5
73
330
2
100
AcDbSymbolTableRecord
100
AcDbLayerTableRecord
  2
FORMAT
 70
     0
 62
     7
  6
Continuous
370
    -3
390
F
  0
ENDTAB
  0
TABLE
  2
STYLE
  5
3
330
0
100
AcDbSymbolTable
 70
     2
  0
STYLE
  5
11
330
3
100
AcDbSymbolTableRecord
100
AcDbTextStyleTableRecord
  2
Standard
 70
     0
 40
0.0
 41
1.0
 50
0.0
 71
     0
 42
3.5
  3
txt
  4

  0
STYLE
  5
F4
330
3
100
AcDbSymbolTableRecord
100
AcDbTextStyleTableRecord
  2
SLDTEXTSTYLE0
 70
     0
 40
0.0
 41
0.7
 50
0.0
 71
     0
 42
3.5
  3
TXT
  4

  0
ENDTAB
  0
TABLE
  2
VIEW
  5
6
330
0
100
AcDbSymbolTable
 70
     0
  0
ENDTAB
  0
TABLE
  2
UCS
  5
7
330
0
100
AcDbSymbolTable
 70
     0
  0
ENDTAB
  0
TABLE
  2
APPID
  5
9
330
0
100
AcDbSymbolTable
 70
     1
  0
APPID
  5
12
330
9
100
AcDbSymbolTableRecord
100
AcDbRegAppTableRecord
  2
ACAD
 70
     0
  0
ENDTAB
  0
TABLE
  2
DIMSTYLE
  5
A
330
0
100
AcDbSymbolTable
 70
     1
100
AcDbDimStyleTable
  0
DIMSTYLE
105
27
330
A
100
AcDbSymbolTableRecord
100
AcDbDimStyleTableRecord
  2
ISO-25
 70
     0
 41
2.5
 42
0.625
 43
3.75
 44
1.25
 73
     0
 74
     0
 77
     1
 78
     8
140
2.5
141
2.5
143
0.0393700787
147
0.625
171
     3
172
     1
178
     0
271
     2
272
     2
274
     3
278
    44
283
     0
284
     8
340
11
  0
ENDTAB
  0
TABLE
  2
BLOCK_RECORD
  5
1
330
0
100
AcDbSymbolTable
 70
     1
  0
BLOCK_RECORD
  5
1F
330
1
100
AcDbSymbolTableRecord
100
AcDbBlockTableRecord
  2
*Model_Space
340
22
  0
BLOCK_RECORD
  5
1B
330
1
100
AcDbSymbolTableRecord
100
AcDbBlockTableRecord
  2
*Paper_Space
340
1E
  0
BLOCK_RECORD
  5
23
330
1
100
AcDbSymbolTableRecord
100
AcDbBlockTableRecord
  2
*Paper_Space0
340
26
  0
ENDTAB
  0
ENDSEC
  0
SECTION
  2
BLOCKS
  0
BLOCK
  5
20
330
1F
100
AcDbEntity
  8
0
100
AcDbBlockBegin
  2
*Model_Space
 70
     0
 10
0.0
 20
0.0
 30
0.0
  3
*Model_Space
  1

  0
ENDBLK
  5
21
330
1F
100
AcDbEntity
  8
0
100
AcDbBlockEnd
  0
BLOCK
  5
1C
330
1B
100
AcDbEntity
 67
     1
  8
0
100
AcDbBlockBegin
  2
*Paper_Space
 70
     0
 10
0.0
 20
0.0
 30
0.0
  3
*Paper_Space
  1

  0
ENDBLK
  5
1D
330
1B
100
AcDbEntity
 67
     1
  8
0
100
AcDbBlockEnd
  0
BLOCK
  5
24
330
23
100
AcDbEntity
  8
0
100
AcDbBlockBegin
  2
*Paper_Space0
 70
     0
 10
0.0
 20
0.0
 30
0.0
  3
*Paper_Space0
  1

  0
ENDBLK
  5
25
330
23
100
AcDbEntity
  8
0
100
AcDbBlockEnd
  0
ENDSEC
  0
SECTION
  2
ENTITIES
  0
LINE
  5
74
330
1F
100
AcDbEntity
  8
0
  6
Continuous
 62
     7
370
    25
100
AcDbLine
 10
195.8700846759
 20
153.9752822159
 30
0.0
 11
195.8700846759
 21
150.9752822159
 31
0.0
  0
LINE
  5
75
330
1F
100
AcDbEntity
  8
0
  6
Continuous
 62
     7
370
    25
100
AcDbLine
 10
195.8700846759
 20
150.9752822159
 30
0.0
 11
202.8700846759
 21
150.9752822159
 31
0.0
  0
LINE
  5
76
330
1F
100
AcDbEntity
  8
0
  6
Continuous
 62
     7
370
    25
100
AcDbLine
 10
202.8700846759
 20
150.9752822159
 30
0.0
 11
202.8700846759
 21
153.9752822159
 31
0.0
  0
LINE
  5
77
330
1F
100
AcDbEntity
  8
0
  6
Continuous
 62
     7
370
    25
100
AcDbLine
 10
202.8700846759
 20
153.9752822159
 30
0.0
 11
195.8700846759
 21
153.9752822159
 31
0.0
  0
CIRCLE
  5
78
330
1F
100
AcDbEntity
  8
0
  6
Continuous
 62
     7
370
    25
100
AcDbCircle
 10
239.3242324582
 20
243.8073238143
 30
0.0
 40
1.249999999986528
  0
LINE
  5
79
330
1F
100
AcDbEntity
  8
0
  6
Continuous
 62
     7
370
    25
100
AcDbLine
 10
216.8700846759
 20
150.9752822159
 30
0.0
 11
216.8700846759
 21
153.9752822159
 31
0.0
  0
LINE
  5
7A
330
1F
100
AcDbEntity
  8
0
  6
Continuous
 62
     7
370
    25
100
AcDbLine
 10
216.8700846759
 20
153.9752822159
 30
0.0
 11
209.8700846759
 21
153.9752822159
 31
0.0
  0
LINE
  5
7B
330
1F
100
AcDbEntity
  8
0
  6
Continuous
 62
     7
370
    25
100
AcDbLine
 10
209.8700846759
 20
153.9752822159
 30
0.0
 11
209.8700846759
 21
150.9752822159
 31
0.0
  0
LINE
  5
7C
330
1F
100
AcDbEntity
  8
0
  6
Continuous
 62
     7
370
    25
100
AcDbLine
 10
209.8700846759
 20
150.9752822159
 30
0.0
 11
216.8700846759
 21
150.9752822159
 31
0.0
  0
LINE
  5
7D
330
1F
100
AcDbEntity
  8
0
  6
Continuous
 62
     7
370
    25
100
AcDbLine
 10
294.8700846759
 20
150.9752822159
 30
0.0
 11
301.8700846759
 21
150.9752822159
 31
0.0
  0
LINE
  5
7E
330
1F
100
AcDbEntity
  8
0
  6
Continuous
 62
     7
370
    25
100
AcDbLine
 10
301.8700846759
 20
150.9752822159
 30
0.0
 11
301.8700846759
 21
153.9752822159
 31
0.0
  0
LINE
  5
7F
330
1F
100
AcDbEntity
  8
0
  6
Continuous
 62
     7
370
    25
100
AcDbLine
 10
301.8700846759
 20
153.9752822159
 30
0.0
 11
294.8700846759
 21
153.9752822159
 31
0.0
  0
LINE
  5
80
330
1F
100
AcDbEntity
  8
0
  6
Continuous
 62
     7
370
    25
100
AcDbLine
 10
294.8700846759
 20
153.9752822159
 30
0.0
 11
294.8700846759
 21
150.9752822159
 31
0.0
  0
CIRCLE
  5
81
330
1F
100
AcDbEntity
  8
0
  6
Continuous
 62
     7
370
    25
100
AcDbCircle
 10
297.3242324582
 20
243.8073238143
 30
0.0
 40
1.249999999986585
  0
LINE
  5
82
330
1F
100
AcDbEntity
  8
0
  6
Continuous
 62
     7
370
    25
100
AcDbLine
 10
287.8700846759
 20
153.9752822159
 30
0.0
 11
280.8700846759
 21
153.9752822159
 31
0.0
  0
LINE
  5
83
330
1F
100
AcDbEntity
  8
0
  6
Continuous
 62
     7
370
    25
100
AcDbLine
 10
280.8700846759
 20
153.9752822159
 30
0.0
 11
280.8700846759
 21
150.9752822159
 31
0.0
  0
LINE
  5
84
330
1F
100
AcDbEntity
  8
0
  6
Continuous
 62
     7
370
    25
100
AcDbLine
 10
280.8700846759
 20
150.9752822159
 30
0.0
 11
287.8700846759
 21
150.9752822159
 31
0.0
  0
LINE
  5
85
330
1F
100
AcDbEntity
  8
0
  6
Continuous
 62
     7
370
    25
100
AcDbLine
 10
287.8700846759
 20
150.9752822159
 30
0.0
 11
287.8700846759
 21
153.9752822159
 31
0.0
  0
CIRCLE
  5
86
330
1F
100
AcDbEntity
  8
0
  6
Continuous
 62
     7
370
    25
100
AcDbCircle
 10
239.3242324581
 20
194.8073238143
 30
0.0
 40
1.249999999986528
  0
CIRCLE
  5
87
330
1F
100
AcDbEntity
  8
0
  6
Continuous
 62
     7
370
    25
100
AcDbCircle
 10
297.3242324581
 20
194.8073238143
 30
0.0
 40
1.249999999986585
  0
LINE
  5
88
330
1F
100
AcDbEntity
  8
0
  6
Continuous
 62
     7
370
    25
100
AcDbLine
 10
314.0088800282
 20
153.9752822159
 30
0.0
 11
308.8700846759
 21
153.9752822159
 31
0.0
  0
LINE
  5
89
330
1F
100
AcDbEntity
  8
0
  6
Continuous
 62
     7
370
    25
100
AcDbLine
 10
308.8700846759
 20
153.9752822159
 30
0.0
 11
308.8700846759
 21
150.9752822159
 31
0.0
  0
LINE
  5
8A
330
1F
100
AcDbEntity
  8
0
  6
Continuous
 62
     7
370
    25
100
AcDbLine
 10
308.8700846759
 20
150.9752822159
 30
0.0
 11
314.0097407515
 21
150.9752822159
 31
0.0
  0
SPLINE
  5
8B
330
1F
100
AcDbEntity
  8
0
  6
Continuous
 62
     7
370
    25
100
AcDbSpline
210
0.0
220
0.0
230
1.0
 70
     8
 71
     3
 72
    32
 73
    28
 74
     0
 42
0.00000001
 43
0.00000001
 40
0.0
 40
0.0
 40
0.0
 40
0.0
 40
0.0382692332879399
 40
0.076418486263502
 40
0.1144605180631564
 40
0.152408195976363
 40
0.1902744834794804
 40
0.228072427791822
 40
0.2658151470091097
 40
0.3035158168744705
 40
0.3411876572513988
 40
0.3788439183666301
 40
0.4164978668936826
 40
0.4541627719497623
 40
0.491851891079755
 40
0.5295784563012531
 40
0.5673556602837483
 40
0.6051966427335215
 40
0.6431144770532562
 40
0.681122157342107
 40
0.7192325857979264
 40
0.7574585605786767
 40
0.7958127641748529
 40
0.8343077523390426
 40
0.8729559436127782
 40
0.9365830106474218
 40
1.0
 40
1.0
 40
1.0
 40
1.0
 10
299.8674956073872
 20
147.4500463034145
 30
0.0
 10
300.0552852600724
 20
147.451026420725
 30
0.0
 10
300.4302758141337
 20
147.4529835825178
 30
0.0
 10
300.9917556902058
 20
147.4688773176022
 30
0.0
 10
301.5512840867149
 20
147.494268174104
 30
0.0
 10
302.108860872824
 20
147.5300780600113
 30
0.0
 10
302.6644858437331
 20
147.576061032593
 30
0.0
 10
303.2181588068804
 20
147.6322828212553
 30
0.0
 10
303.7698795605143
 20
147.6987259128554
 30
0.0
 10
304.3196479010963
 20
147.7753950145845
 30
0.0
 10
304.8674636230764
 20
147.8622888749026
 30
0.0
 10
305.4133265207686
 20
147.9594078163211
 30
0.0
 10
305.9572363896532
 20
148.0667517206438
 30
0.0
 10
306.4991930279692
 20
148.1843205680968
 30
0.0
 10
307.0391962376841
 20
148.3121142940842
 30
0.0
 10
307.5772458275046
 20
148.4501328253728
 30
0.0
 10
308.1133416080484
 20
148.5983760814585
 30
0.0
 10
308.6474834159842
 20
148.7568439365872
 30
0.0
 10
309.1796710293606
 20
148.9255363752901
 30
0.0
 10
309.7099044897708
 20
149.1044529118135
 30
0.0
 10
310.2381829001941
 20
149.2935947703446
 30
0.0
 10
310.7645089342612
 20
149.4929567193379
 30
0.0
 10
311.2888719321513
 20
149.7025576942498
 30
0.0
 10
311.811311315444
 20
149.922325928584
 30
0.0
 10
312.4430310665617
 20
150.2017910479664
 30
0.0
 10
313.1795610512923
 20
150.5465900089888
 30
0.0
 10
313.7338688288709
 20
150.831952058158
 30
0.0
 10
314.010564421159
 20
150.9743971480615
 30
0.0
  0
LINE
  5
8C
330
1F
100
AcDbEntity
  8
0
  6
Continuous
 62
     7
370
    25
100
AcDbLine
 10
299.8701274675
 20
147.4500463034
 30
0.0
 11
263.8700846759
 21
147.4500463034
 31
0.0
  0
LINE
  5
8D
330
1F
100
AcDbEntity
  8
0
  6
Continuous
 62
     7
370
    25
100
AcDbLine
 10
263.8700846759
 20
147.4500463034
 30
0.0
 11
263.8700846759
 21
150.9752822159
 31
0.0
  0
LINE
  5
8E
330
1F
100
AcDbEntity
  8
0
  6
Continuous
 62
     7
370
    25
100
AcDbLine
 10
263.8700846759
 20
150.9752822159
 30
0.0
 11
273.8700846759
 21
150.9752822159
 31
0.0
  0
LINE
  5
8F
330
1F
100
AcDbEntity
  8
0
  6
Continuous
 62
     7
370
    25
100
AcDbLine
 10
273.8700846759
 20
150.9752822159
 30
0.0
 11
273.8700846759
 21
153.9752822159
 31
0.0
  0
LINE
  5
90
330
1F
100
AcDbEntity
  8
0
  6
Continuous
 62
     7
370
    25
100
AcDbLine
 10
273.8700846759
 20
153.9752822159
 30
0.0
 11
223.8700846759
 21
153.9752822159
 31
0.0
  0
LINE
  5
91
330
1F
100
AcDbEntity
  8
0
  6
Continuous
 62
     7
370
    25
100
AcDbLine
 10
223.8700846759
 20
153.9752822159
 30
0.0
 11
223.8700846759
 21
150.9752822159
 31
0.0
  0
LINE
  5
92
330
1F
100
AcDbEntity
  8
0
  6
Continuous
 62
     7
370
    25
100
AcDbLine
 10
223.8700846759
 20
150.9752822159
 30
0.0
 11
233.8700846759
 21
150.9752822159
 31
0.0
  0
LINE
  5
93
330
1F
100
AcDbEntity
  8
0
  6
Continuous
 62
     7
370
    25
100
AcDbLine
 10
233.8700846759
 20
150.9752822159
 30
0.0
 11
233.8700846759
 21
147.4500463034
 31
0.0
  0
LINE
  5
94
330
1F
100
AcDbEntity
  8
0
  6
Continuous
 62
     7
370
    25
100
AcDbLine
 10
233.8700846759
 20
147.4500463034
 30
0.0
 11
197.8699656299
 21
147.4500463034
 31
0.0
  0
LINE
  5
95
330
1F
100
AcDbEntity
  8
0
  6
Continuous
 62
     7
370
    25
100
AcDbLine
 10
188.8700846759
 20
150.9752822159
 30
0.0
 11
188.8700846759
 21
153.9752822159
 31
0.0
  0
LINE
  5
96
330
1F
100
AcDbEntity
  8
0
  6
Continuous
 62
     7
370
    25
100
AcDbLine
 10
188.8700846759
 20
153.9752822159
 30
0.0
 11
183.7312893235
 21
153.9752822159
 31
0.0
  0
LINE
  5
97
330
1F
100
AcDbEntity
  8
0
  6
Continuous
 62
     7
370
    25
100
AcDbLine
 10
165.8791315747
 20
273.9753724234
 30
0.0
 11
165.8791315747
 21
181.0278912595
 31
0.0
  0
SPLINE
  5
98
330
1F
100
AcDbEntity
  8
0
  6
Continuous
 62
     7
370
    25
100
AcDbSpline
210
0.0
220
0.0
230
1.0
 70
     8
 71
     3
 72
    43
 73
    39
 74
     0
 42
0.00000001
 43
0.00000001
 40
0.0
 40
0.0
 40
0.0
 40
0.0
 40
0.0140414684476359
 40
0.0280304372803968
 40
0.0419733125783626
 40
0.0558765641361064
 40
0.0697467171963237
 40
0.0835903438050726
 40
0.0974140538419506
 40
0.1112244857836957
 40
0.1250282972640121
 40
0.1388321554957992
 40
0.1526427276242497
 40
0.1664666710804271
 40
0.1803106240049608
 40
0.1941811958102788
 40
0.208084957947517
 40
0.222028434940863
 40
0.2360180957477472
 40
0.2500603454981263
 40
0.3128367979609882
 40
0.3749838041399545
 40
0.4371066068928517
 40
0.4998111499373745
 40
0.5625647601105042
 40
0.6246812563800156
 40
0.6867712276000852
 40
0.7494460378645575
 40
0.7747471965935775
 40
0.7998885404251628
 40
0.8249089157153472
 40
0.8498477341124198
 40
0.8747447945774517
 40
0.8996400963417108
 40
0.9245736471005661
 40
0.9495852710049039
 40
0.9747144210222948
 40
0.9999999999999999
 40
0.9999999999999999
 40
0.9999999999999999
 40
0.9999999999999999
 10
188.9760982755876
 20
296.9752916343587
 30
0.0
 10
188.8066665655235
 20
296.9742608276861
 30
0.0
 10
188.4684366332359
 20
296.9722030684218
 30
0.0
 10
187.9621929253521
 20
296.9554570625033
 30
0.0
 10
187.4580777031722
 20
296.9286974340696
 30
0.0
 10
186.9560911917451
 20
296.8909540746466
 30
0.0
 10
186.4562337406528
 20
296.8424855694542
 30
0.0
 10
185.9585056800142
 20
296.7832228170595
 30
0.0
 10
185.4629073550979
 20
296.7131842147498
 30
0.0
 10
184.9694391131776
 20
296.6323648274517
 30
0.0
 10
184.478101302493
 20
296.5407659948707
 30
0.0
 10
183.9888942696967
 20
296.4383874179657
 30
0.0
 10
183.5018183509966
 20
296.3252292716286
 30
0.0
 10
183.0168738901581
 20
296.2012916525769
 30
0.0
 10
182.5340611557445
 20
296.0665746716683
 30
0.0
 10
182.0533806362434
 20
295.9210786293996
 30
0.0
 10
181.5748319217984
 20
295.7648032091503
 30
0.0
 10
181.0984178812107
 20
295.5977505274577
 30
0.0
 10
180.6241289930169
 20
295.4199136780008
 30
0.0
 10
179.6065659232484
 20
295.0134418591739
 30
0.0
 10
178.0852716516796
 20
294.3011624134733
 30
0.0
 10
176.142163457407
 20
293.146032234005
 30
0.0
 10
174.3239395168862
 20
291.8040335519555
 30
0.0
 10
172.6413899675558
 20
290.2848655466366
 30
0.0
 10
171.1105188589642
 20
288.6130339515288
 30
0.0
 10
169.7564488349934
 20
286.8039724553254
 30
0.0
 10
168.5902254793531
 20
284.8697447064155
 30
0.0
 10
167.8118803050797
 20
283.2313180495361
 30
0.0
 10
167.3098109043374
 20
281.9618522106068
 30
0.0
 10
167.0081789613104
 20
281.1024372398491
 30
0.0
 10
166.7420554703936
 20
280.2359656579663
 30
0.0
 10
166.5114297010934
 20
279.3624180267495
 30
0.0
 10
166.3162935188381
 20
278.4818072827369
 30
0.0
 10
166.1567077863292
 20
277.5941383646631
 30
0.0
 10
166.0324485009719
 20
276.6994186197718
 30
0.0
 10
165.9443591314381
 20
275.7976550870786
 30
0.0
 10
165.889269376781
 20
274.8888536639136
 30
0.0
 10
165.8825177720532
 20
274.2804953221829
 30
0.0
 10
165.8791314951065
 20
273.9753723312794
 30
0.0
  0
LINE
  5
99
330
1F
100
AcDbEntity
  8
0
  6
Continuous
 62
     7
370
    25
100
AcDbLine
 10
308.7641041486
 20
296.9752866729
 30
0.0
 11
188.9760754457
 21
296.9752869252
 31
0.0
  0
SPLINE
  5
9A
330
1F
100
AcDbEntity
  8
0
  6
Continuous
 62
     7
370
    25
100
AcDbSpline
210
0.0
220
0.0
230
1.0
 70
     8
 71
     3
 72
    43
 73
    39
 74
     0
 42
0.00000001
 43
0.00000001
 40
0.0
 40
0.0
 40
0.0
 40
0.0
 40
0.0140474949609882
 40
0.0280416831666672
 40
0.0419891277258101
 40
0.0558964579247447
 40
0.069770360552754
 40
0.0836175708255197
 40
0.0974448629639798
 40
0.1112590404915743
 40
0.1250669263175398
 40
0.1388753526775329
 40
0.1526911510052888
 40
0.1665211418102218
 40
0.180372124635757
 40
0.1942508681718076
 40
0.2081641005921714
 40
0.2221185001838458
 40
0.2361206863303945
 40
0.2501772109057835
 40
0.3129292558201937
 40
0.3750942542574354
 40
0.4372858374456329
 40
0.5001168577078949
 40
0.5627761512568313
 40
0.6248549723173187
 40
0.6869579559127266
 40
0.7496890383968201
 40
0.7749528044099528
 40
0.8000622863798682
 40
0.8250553892398231
 40
0.8499705490923863
 40
0.8748465633335972
 40
0.8997224125194789
 40
0.9246370779807731
 40
0.9496293594195958
 40
0.9747376967226938
 40
1.0
 40
1.0
 40
1.0
 40
1.0
 10
331.8610378564539
 20
273.9753726210284
 30
0.0
 10
331.8599928107584
 20
274.1448770053813
 30
0.0
 10
331.8579066850562
 20
274.4832425470373
 30
0.0
 10
331.8409503563953
 20
274.9896712781875
 30
0.0
 10
331.8138571961576
 20
275.493936671977
 30
0.0
 10
331.7756453381068
 20
275.9960384816559
 30
0.0
 10
331.7265764807728
 20
276.4959763429163
 30
0.0
 10
331.6665806914045
 20
276.9937499082621
 30
0.0
 10
331.595676587406
 20
277.4893588152543
 30
0.0
 10
331.5138591759919
 20
277.9828026992012
 30
0.0
 10
331.4211298157931
 20
278.474081194642
 30
0.0
 10
331.3174882086004
 20
278.9631939380855
 30
0.0
 10
331.2029345372663
 20
279.4501405771989
 30
0.0
 10
331.0774689069798
 20
279.9349207527698
 30
0.0
 10
330.9410914381603
 20
280.4175341826843
 30
0.0
 10
330.7938024454841
 20
280.8979803632038
 30
0.0
 10
330.6356016152739
 20
281.3762597017065
 30
0.0
 10
330.4664911151268
 20
281.8523692855917
 30
0.0
 10
330.286463912421
 20
282.3263187570346
 30
0.0
 10
329.8753951798154
 20
283.3420648053057
 30
0.0
 10
329.1553807866841
 20
284.8598721787654
 30
0.0
 10
327.9885930550205
 20
286.7969382424063
 30
0.0
 10
326.6334234314079
 20
288.6086322049272
 30
0.0
 10
325.1019855546194
 20
290.281709500274
 30
0.0
 10
323.4197950170685
 20
291.801054431072
 30
0.0
 10
321.6031934747004
 20
293.1425132699939
 30
0.0
 10
319.6618035450211
 20
294.297429315575
 30
0.0
 10
318.0190252134689
 20
295.0673395554653
 30
0.0
 10
316.7474078990795
 20
295.5634842163143
 30
0.0
 10
315.8878488697854
 20
295.8611449315067
 30
0.0
 10
315.0213591250286
 20
296.1237635201627
 30
0.0
 10
314.1479192379998
 20
296.3513505268069
 30
0.0
 10
313.2675418031014
 20
296.5439142156667
 30
0.0
 10
312.3802314580975
 20
296.7013946122357
 30
0.0
 10
311.4859952054811
 20
296.8240129341087
 30
0.0
 10
310.5848397378765
 20
296.9109365125014
 30
0.0
 10
309.676770614523
 20
296.9652948870371
 30
0.0
 10
309.0689456030377
 20
296.9719522658465
 30
0.0
 10
308.7641041397818
 20
296.9752911299263
 30
0.0
  0
LINE
  5
9B
330
1F
100
AcDbEntity
  8
0
  6
Continuous
 62
     7
370
    25
100
AcDbLine
 10
331.8610377771
 20
181.0278912595
 30
0.0
 11
331.8610377771
 21
273.9753473408
 31
0.0
  0
SPLINE
  5
9C
330
1F
100
AcDbEntity
  8
0
  6
Continuous
 62
     7
370
    25
100
AcDbSpline
210
0.0
220
0.0
230
1.0
 70
     8
 71
     3
 72
    41
 73
    37
 74
     0
 42
0.00000001
 43
0.00000001
 40
0.0
 40
0.0
 40
0.0
 40
0.0
 40
0.0156477011083166
 40
0.031277098880557
 40
0.0468934387848826
 40
0.0625019794542949
 40
0.0781079874059394
 40
0.093716731720639
 40
0.1093334787094748
 40
0.1249634865943662
 40
0.1406120002294378
 40
0.1562842458894906
 40
0.1719854261511098
 40
0.187720714890866
 40
0.2034952524237348
 40
0.2193141408032983
 40
0.2351824393034865
 40
0.25110516009969
 40
0.2670872641649696
 40
0.2831336573949066
 40
0.2992491869723961
 40
0.3863197803250136
 40
0.4731777156447389
 40
0.560595955777842
 40
0.6493328227873701
 40
0.681248224532781
 40
0.7130583624775954
 40
0.7447957205455963
 40
0.7764930064195648
 40
0.8081830518595273
 40
0.8398987111112113
 40
0.8716727589666888
 40
0.9035377900516678
 40
0.935526120869989
 40
0.9676696960384313
 40
1.0
 40
1.0
 40
1.0
 40
1.0
 10
314.010564421159
 20
150.9743971480615
 30
0.0
 10
314.1792853307691
 20
151.0642268409044
 30
0.0
 10
314.516529794768
 20
151.2437811515348
 30
0.0
 10
315.0158071798371
 20
151.5246532457753
 30
0.0
 10
315.5097953107456
 20
151.8137342708895
 30
0.0
 10
315.9980518919467
 20
152.1118652426647
 30
0.0
 10
316.4806950874533
 20
152.4188209428746
 30
0.0
 10
316.9576930428117
 20
152.734661553372
 30
0.0
 10
317.4290540919096
 20
153.0593708046863
 30
0.0
 10
317.8947758114175
 20
153.3929528989678
 30
0.0
 10
318.3548586746257
 20
153.7354065370758
 30
0.0
 10
318.80930239177
 20
154.0867318841603
 30
0.0
 10
319.2581068921266
 20
154.4469287008944
 30
0.0
 10
319.7012720632206
 20
154.81599685239
 30
0.0
 10
320.1387978137772
 20
155.1939361509417
 30
0.0
 10
320.5706840859035
 20
155.5807464826421
 30
0.0
 10
320.9969307445292
 20
155.9764274644587
 30
0.0
 10
321.4175380104025
 20
156.3809797021614
 30
0.0
 10
321.8325048308222
 20
156.7944000858278
 30
0.0
 10
322.2418349955421
 20
157.2166994506728
 30
0.0
 10
323.2372913786413
 20
158.2798652582607
 30
0.0
 10
324.7308638372963
 20
160.0621172120795
 30
0.0
 10
326.5431255794558
 20
162.6958747277932
 30
0.0
 10
328.1090693948848
 20
165.5064246142521
 30
0.0
 10
329.137620869798
 20
167.834813909756
 30
0.0
 10
329.7872409616846
 20
169.5803981508066
 30
0.0
 10
330.158999560242
 20
170.6858745505273
 30
0.0
 10
330.4943578058243
 20
171.8001250748489
 30
0.0
 10
330.7933309566792
 20
172.9231746853152
 30
0.0
 10
331.0559091711037
 20
174.0550123713348
 30
0.0
 10
331.2821093735587
 20
175.1956361273688
 30
0.0
 10
331.4718690956507
 20
176.3450430384764
 30
0.0
 10
331.6254205107552
 20
177.5032244907529
 30
0.0
 10
331.7418942644233
 20
178.6701958279292
 30
0.0
 10
331.8245604605538
 20
179.8458822928623
 30
0.0
 10
331.8488552174784
 20
180.633128265223
 30
0.0
 10
331.8610377770923
 20
181.0278912595145
 30
0.0
  0
LINE
  5
9D
330
1F
100
AcDbEntity
  8
0
  6
Continuous
 62
     7
370
    25
100
AcDbLine
 10
314.0088800282
 20
150.9752822128
 30
0.0
 11
314.0088800282
 21
153.9752822159
 31
0.0
  0
SPLINE
  5
9E
330
1F
100
AcDbEntity
  8
0
  6
Continuous
 62
     7
370
    25
100
AcDbSpline
210
0.0
220
0.0
230
1.0
 70
     8
 71
     3
 72
    42
 73
    38
 74
     0
 42
0.00000001
 43
0.00000001
 40
0.0
 40
0.0
 40
0.0
 40
0.0
 40
0.0169307304237229
 40
0.03380643755837
 40
0.0506315697467154
 40
0.0674106155558047
 40
0.0841481006303022
 40
0.1008485844023934
 40
0.1175166566686158
 40
0.1341569340451939
 40
0.1507740563145342
 40
0.1673726826765637
 40
0.1839574879194849
 40
0.2005331585252943
 40
0.2171043887260451
 40
0.2336758765273125
 40
0.2502523197156487
 40
0.2668384118669673
 40
0.2834388383727905
 40
0.3000582725011156
 40
0.3167013715083182
 40
0.3333727728180067
 40
0.3500770902820964
 40
0.4387468425473615
 40
0.5261009425540003
 40
0.612895787791423
 40
0.6999023627282557
 40
0.7305499248838442
 40
0.7609623539509885
 40
0.79117371243392
 40
0.821218746714827
 40
0.8511327827587022
 40
0.8809516121097054
 40
0.910711369824292
 40
0.940448406302969
 40
0.9701991552309226
 40
1.0
 40
1.0
 40
1.0
 40
1.0
 10
165.8791315746778
 20
181.0278912595199
 30
0.0
 10
165.8846402447085
 20
180.8211486840301
 30
0.0
 10
165.8956396821081
 20
180.4083354270687
 30
0.0
 10
165.9247759743257
 20
179.7905086630453
 30
0.0
 10
165.9631445182157
 20
179.1750626227577
 30
0.0
 10
166.0116458537175
 20
178.5620172032226
 30
0.0
 10
166.0700398054007
 20
177.9513672579041
 30
0.0
 10
166.1383905317333
 20
177.3431143278413
 30
0.0
 10
166.2166809520342
 20
176.7372581742561
 30
0.0
 10
166.3049156661632
 20
176.1337990378733
 30
0.0
 10
166.4030934709981
 20
175.5327370346931
 30
0.0
 10
166.5112147021291
 20
174.9340723164124
 30
0.0
 10
166.6292792714843
 20
174.3378050266504
 30
0.0
 10
166.7572871920699
 20
173.7439353112428
 30
0.0
 10
166.8952384367902
 20
173.1524633158604
 30
0.0
 10
167.0431329792573
 20
172.5633891803194
 30
0.0
 10
167.2009707720005
 20
171.9767130587818
 30
0.0
 10
167.3687517938215
 20
171.3924350397246
 30
0.0
 10
167.5464758834361
 20
170.8105554413852
 30
0.0
 10
167.7341433602803
 20
170.23107370396
 30
0.0
 10
167.931752706001
 20
169.6539925281305
 30
0.0
 10
168.1393092387025
 20
169.0793023920962
 30
0.0
 10
168.6689215605633
 20
167.6857364395293
 30
0.0
 10
169.6202729050314
 20
165.5283211179625
 30
0.0
 10
171.1829776881015
 20
162.7187521058393
 30
0.0
 10
172.9917763000904
 20
160.0853985361285
 30
0.0
 10
174.5967561257222
 20
158.1667107789369
 30
0.0
 10
175.8420051969105
 20
156.8547077868641
 30
0.0
 10
176.6360914491178
 20
156.0718149540656
 30
0.0
 10
177.4506990886991
 20
155.3211451267925
 30
0.0
 10
178.2858396031729
 20
154.602674484749
 30
0.0
 10
179.1414998730814
 20
153.916400052127
 30
0.0
 10
180.0177090640607
 20
153.2623825534537
 30
0.0
 10
180.9143485517277
 20
152.640406959347
 30
0.0
 10
181.8318441833953
 20
152.0512934804589
 30
0.0
 10
182.7685889452532
 20
151.4919950095639
 30
0.0
 10
183.4091126346139
 20
151.1470401749705
 30
0.0
 10
183.7296438891536
 20
150.9744176666567
 30
0.0
  0
SPLINE
  5
9F
330
1F
100
AcDbEntity
  8
0
  6
Continuous
 62
     7
370
    25
100
AcDbSpline
210
0.0
220
0.0
230
1.0
 70
     8
 71
     3
 72
    23
 73
    19
 74
     0
 42
0.00000001
 43
0.00000001
 40
0.0
 40
0.0
 40
0.0
 40
0.0
 40
0.0312339983117997
 40
0.0625125839724486
 40
0.0938423782044309
 40
0.1252299698228539
 40
0.1993295297695415
 40
0.2729048985912878
 40
0.3460453501898559
 40
0.4188417585672732
 40
0.4913862906498757
 40
0.5637720754928868
 40
0.6360928554210408
 40
0.7084426254366903
 40
0.7809152677442601
 40
0.8536041884584072
 40
0.9266019634652998
 40
1.0
 40
1.0
 40
1.0
 40
1.0
 10
183.7296438891536
 20
150.9744176666567
 30
0.0
 10
183.8656043088485
 20
150.903676099205
 30
0.0
 10
184.1377192352905
 20
150.7620919788651
 30
0.0
 10
184.5500858424584
 20
150.5571307950125
 30
0.0
 10
184.9658471840682
 20
150.3574247022736
 30
0.0
 10
185.5752358047814
 20
150.0757012384904
 30
0.0
 10
186.3815927554968
 20
149.7262512782155
 30
0.0
 10
187.3902827698947
 20
149.3300229159481
 30
0.0
 10
188.4062235127159
 20
148.9715252106874
 30
0.0
 10
189.4294071229102
 20
148.650773589775
 30
0.0
 10
190.4598305326021
 20
148.3677669436058
 30
0.0
 10
191.4974887772374
 20
148.1225132792833
 30
0.0
 10
192.5423769111431
 20
147.9149970661263
 30
0.0
 10
193.5944896308012
 20
147.745283762004
 30
0.0
 10
194.6538216209252
 20
147.6131335368765
 30
0.0
 10
195.7203673522929
 20
147.5194459185475
 30
0.0
 10
196.7941223779578
 20
147.4608419460712
 30
0.0
 10
197.5125019146985
 20
147.453651404199
 30
0.0
 10
197.872673745629
 20
147.4500463034145
 30
0.0
  0
LINE
  5
A0
330
1F
100
AcDbEntity
  8
0
  6
Continuous
 62
     7
370
    25
100
AcDbLine
 10
183.7312893235
 20
153.9752822159
 30
0.0
 11
183.7312893235
 21
150.9752822147
 31
0.0
  0
LINE
  5
A1
330
1F
100
AcDbEntity
  8
0
  6
Continuous
 62
     7
370
    25
100
AcDbLine
 10
183.7304565877
 20
150.9752822159
 30
0.0
 11
188.8700846759
 21
150.9752822159
 31
0.0
  0
SPLINE
  5
A2
330
1F
100
AcDbEntity
  8
0
  6
Continuous
 62
     7
370
    25
100
AcDbSpline
210
0.0
220
0.0
230
1.0
 70
     8
 71
     3
 72
    65
 73
    61
 74
     0
 42
0.00000001
 43
0.00000001
 40
0.0
 40
0.0
 40
0.0
 40
0.0
 40
0.0216416308884378
 40
0.0431288703483097
 40
0.064461718116752
 40
0.085640173935338
 40
0.1066642375502385
 40
0.1275339087123686
 40
0.1482491871775511
 40
0.1688100727066662
 40
0.1892165650657943
 40
0.2094686640263617
 40
0.2295663693652842
 40
0.2495096808651159
 40
0.2692985983141739
 40
0.2889331215066887
 40
0.3084132502429271
 40
0.3277389843293423
 40
0.3469103235786853
 40
0.3659272678101601
 40
0.3847898168495321
 40
0.403497970529284
 40
0.4220517286887281
 40
0.4404510911741473
 40
0.4586960578389249
 40
0.4767866285436791
 40
0.4947228031564029
 40
0.5125045815525985
 40
0.5301319636154115
 40
0.5476049492357947
 40
0.5649235383126283
 40
0.5820877307528953
 40
0.5990975264718185
 40
0.6159529253930378
 40
0.6326539274487644
 40
0.6492005325799616
 40
0.665592740736519
 40
0.6818305518774451
 40
0.697913965971061
 40
0.7138429829952117
 40
0.7296176029374694
 40
0.745237825795372
 40
0.7607036515766546
 40
0.7760150802995011
 40
0.7911721119928045
 40
0.806174746696455
 40
0.821022984461619
 40
0.8357168253510725
 40
0.8502562694394941
 40
0.8646413168138586
 40
0.878871967573757
 40
0.892948221831834
 40
0.9068700797141603
 40
0.9206375413607004
 40
0.9342506069257814
 40
0.9477092765785453
 40
0.9610135505035521
 40
0.9741634289012678
 40
0.987158911988691
 40
1.0
 40
1.0
 40
1.0
 40
1.0
 10
7.929350419254217
 20
296.9988325438688
 30
0.0
 10
7.838697746243795
 20
296.9979433343693
 30
0.0
 10
7.658039116533788
 20
296.9961712589925
 30
0.0
 10
7.388332480702308
 20
296.9819208098823
 30
0.0
 10
7.121174351951281
 20
296.959428895538
 30
0.0
 10
6.856848243748493
 20
296.928085718745
 30
0.0
 10
6.595623866156017
 20
296.8883381042039
 30
0.0
 10
6.33775715954367
 20
296.8403611740397
 30
0.0
 10
6.083490308675457
 20
296.7844095248939
 30
0.0
 10
5.833051800140917
 20
296.720723284833
 30
0.0
 10
5.586656504417142
 20
296.6495521611297
 30
0.0
 10
5.344505785500275
 20
296.5711482448649
 30
0.0
 10
5.106787635320215
 20
296.4857671198586
 30
0.0
 10
4.873676831684063
 20
296.3936667975682
 30
0.0
 10
4.645335118111729
 20
296.2951072548787
 30
0.0
 10
4.42191140405443
 20
296.1903498396271
 30
0.0
 10
4.203541983984552
 20
296.0796567390427
 30
0.0
 10
3.990350773881351
 20
295.9632904597319
 30
0.0
 10
3.782449563666815
 20
295.8415133330503
 30
0.0
 10
3.579938284179879
 20
295.7145870423403
 30
0.0
 10
3.382905287314636
 20
295.5827721730233
 30
0.0
 10
3.191427637985036
 20
295.4463277852651
 30
0.0
 10
3.005571416620695
 20
295.3055110091875
 30
0.0
 10
2.825392030938567
 20
295.1605766624624
 30
0.0
 10
2.650934535778998
 20
295.0117768900971
 30
0.0
 10
2.482233959839542
 20
294.8593608261569
 30
0.0
 10
2.319315638183148
 20
294.7035742771387
 30
0.0
 10
2.162195549445536
 20
294.5446594266579
 30
0.0
 10
2.010880656710859
 20
294.3828545610783
 30
0.0
 10
1.865369251071336
 20
294.218393815679
 30
0.0
 10
1.72565129693604
 20
294.0515069409182
 30
0.0
 10
1.591708778195672
 20
293.882419088331
 30
0.0
 10
1.46351604440223
 20
293.7113506155656
 30
0.0
 10
1.341040156164417
 20
293.5385169100459
 30
0.0
 10
1.224241229007841
 20
293.3641282307268
 30
0.0
 10
1.113072774993423
 20
293.1883895673897
 30
0.0
 10
1.0074820414325
 20
293.0115005169144
 30
0.0
 10
0.9074103460796901
 20
292.83365517595
 30
0.0
 10
0.8127934082303584
 20
292.6550420493973
 30
0.0
 10
0.7235616751885415
 20
292.4758439741087
 30
0.0
 10
0.639640643614145
 20
292.2962380572074
 30
0.0
 10
0.5609511752979329
 20
292.1163956284208
 30
0.0
 10
0.4874098069516108
 20
291.9364822058265
 30
0.0
 10
0.4189290536399104
 20
291.7566574744049
 30
0.0
 10
0.3554177055072605
 20
291.5770752767987
 30
0.0
 10
0.2967811175328544
 20
291.3978836156789
 30
0.0
 10
0.2429214919112688
 20
291.2192246671252
 30
0.0
 10
0.1937381533125004
 20
291.041234804435
 30
0.0
 10
0.1491278150220349
 20
290.8640446317781
 30
0.0
 10
0.1089848423778406
 20
290.6877790271305
 30
0.0
 10
0.0732014891527966
 20
290.5125571939226
 30
0.0
 10
0.0416681956538489
 20
290.3384927208543
 30
0.0
 10
0.0142736220834355
 20
290.1656936493316
 30
0.0
 10
-0.0090943848324865
 20
289.9942625480216
 30
0.0
 10
-0.0285512893008627
 20
289.8242965939226
 30
0.0
 10
-0.0442056914873035
 20
289.6558876597767
 30
0.0
 10
-0.0561956840230693
 20
289.4891224061392
 30
0.0
 10
-0.0645545672446068
 20
289.3240823820231
 30
0.0
 10
-0.0697023996606982
 20
289.16084411757
 30
0.0
 10
-0.0703331841855198
 20
289.0526208269402
 30
0.0
 10
-0.0706466917159143
 20
288.9988325438689
 30
0.0
  0
SPLINE
  5
A3
330
1F
100
AcDbEntity
  8
0
  6
Continuous
 62
     7
370
    25
100
AcDbSpline
210
0.0
220
0.0
230
1.0
 70
    24
 71
     3
 72
     8
 73
     4
 74
     0
 42
0.00000001
 43
0.00000001
 40
0.0
 40
0.0
 40
0.0
 40
0.0
 40
1.0
 40
1.0
 40
1.0
 40
1.0
 10
-0.0706466917159143
 20
289.0052919334489
 30
0.0
 10
-0.0706466917159143
 20
289.0010338986289
 30
0.0
 10
-0.0706466917159143
 20
288.9988507643947
 30
0.0
 10
-0.0706466917159143
 20
288.9988326574388
 30
0.0
  0
ARC
  5
A4
330
1F
100
AcDbEntity
  8
0
  6
Continuous
 62
     7
370
    25
100
AcDbCircle
 10
82.9293533083
 20
108.7977328335
 30
0.0
 40
1.5
100
AcDbArc
 50
180.0
 51
0.0
  0
LINE
  5
A5
330
1F
100
AcDbEntity
  8
0
  6
Continuous
 62
     7
370
    25
100
AcDbLine
 10
84.4293533083
 20
108.7977328335
 30
0.0
 11
84.4293533083
 21
112.5909553687
 31
0.0
  0
ARC
  5
A6
330
1F
100
AcDbEntity
  8
0
  6
Continuous
 62
     7
370
    25
100
AcDbCircle
 10
82.9293533083
 20
112.5909553687
 30
0.0
 40
1.5
100
AcDbArc
 50
0.0
 51
180.0
  0
LINE
  5
A7
330
1F
100
AcDbEntity
  8
0
  6
Continuous
 62
     7
370
    25
100
AcDbLine
 10
81.4293533083
 20
112.5909553687
 30
0.0
 11
81.4293533083
 21
108.7977328335
 31
0.0
  0
LINE
  5
A8
330
1F
100
AcDbEntity
  8
0
  6
Continuous
 62
     7
370
    25
100
AcDbLine
 10
91.9293533083
 20
272.1657351152
 30
0.0
 11
73.9293533083
 21
272.1657351152
 31
0.0
  0
ARC
  5
A9
330
1F
100
AcDbEntity
  8
0
  6
Continuous
 62
     7
370
    25
100
AcDbCircle
 10
73.9293533083
 20
271.1657351152
 30
0.0
 40
1.0
100
AcDbArc
 50
90.0
 51
180.0
  0
LINE
  5
AA
330
1F
100
AcDbEntity
  8
0
  6
Continuous
 62
     7
370
    25
100
AcDbLine
 10
72.9293533083
 20
271.1657351152
 30
0.0
 11
72.9293533083
 21
253.1657351152
 31
0.0
  0
ARC
  5
AB
330
1F
100
AcDbEntity
  8
0
  6
Continuous
 62
     7
370
    25
100
AcDbCircle
 10
73.9293533083
 20
253.1657351152
 30
0.0
 40
1.0
100
AcDbArc
 50
180.0
 51
270.0
  0
LINE
  5
AC
330
1F
100
AcDbEntity
  8
0
  6
Continuous
 62
     7
370
    25
100
AcDbLine
 10
73.9293533083
 20
252.1657351152
 30
0.0
 11
91.9293533083
 21
252.1657351152
 31
0.0
  0
ARC
  5
AD
330
1F
100
AcDbEntity
  8
0
  6
Continuous
 62
     7
370
    25
100
AcDbCircle
 10
91.9293533083
 20
253.1657351152
 30
0.0
 40
1.0
100
AcDbArc
 50
270.0
 51
0.0
  0
LINE
  5
AE
330
1F
100
AcDbEntity
  8
0
  6
Continuous
 62
     7
370
    25
100
AcDbLine
 10
92.9293533083
 20
253.1657351152
 30
0.0
 11
92.9293533083
 21
271.1657351152
 31
0.0
  0
ARC
  5
AF
330
1F
100
AcDbEntity
  8
0
  6
Continuous
 62
     7
370
    25
100
AcDbCircle
 10
91.9293533083
 20
271.1657351152
 30
0.0
 40
1.0
100
AcDbArc
 50
0.0
 51
90.0
  0
LINE
  5
B0
330
1F
100
AcDbEntity
  8
0
  6
Continuous
 62
     7
370
    25
100
AcDbLine
 10
107.9293533083
 20
251.6657351152
 30
0.0
 11
97.9293533083
 21
251.6657351152
 31
0.0
  0
LINE
  5
B1
330
1F
100
AcDbEntity
  8
0
  6
Continuous
 62
     7
370
    25
100
AcDbLine
 10
97.9293533083
 20
251.6657351152
 30
0.0
 11
97.9293533083
 21
248.6657351152
 31
0.0
  0
LINE
  5
B2
330
1F
100
AcDbEntity
  8
0
  6
Continuous
 62
     7
370
    25
100
AcDbLine
 10
97.9293533083
 20
248.6657351152
 30
0.0
 11
107.9293533083
 21
248.6657351152
 31
0.0
  0
LINE
  5
B3
330
1F
100
AcDbEntity
  8
0
  6
Continuous
 62
     7
370
    25
100
AcDbLine
 10
107.9293533083
 20
248.6657351152
 30
0.0
 11
107.9293533083
 21
251.6657351152
 31
0.0
  0
CIRCLE
  5
B4
330
1F
100
AcDbEntity
  8
0
  6
Continuous
 62
     7
370
    25
100
AcDbCircle
 10
102.2474473599
 20
147.089153206
 30
0.0
 40
1.459867004343977
  0
LINE
  5
B5
330
1F
100
AcDbEntity
  8
0
  6
Continuous
 62
     7
370
    25
100
AcDbLine
 10
111.4168778023
 20
145.4292862016
 30
0.0
 11
115.6293533083
 21
145.4292862016
 31
0.0
  0
LINE
  5
B6
330
1F
100
AcDbEntity
  8
0
  6
Continuous
 62
     7
370
    25
100
AcDbLine
 10
115.6293533083
 20
145.4292862016
 30
0.0
 11
115.6293533083
 21
145.6292862016
 31
0.0
  0
LINE
  5
B7
330
1F
100
AcDbEntity
  8
0
  6
Continuous
 62
     7
370
    25
100
AcDbLine
 10
115.6293533083
 20
145.6292862016
 30
0.0
 11
111.4168778023
 21
145.6292862016
 31
0.0
  0
LINE
  5
B8
330
1F
100
AcDbEntity
  8
0
  6
Continuous
 62
     7
370
    25
100
AcDbLine
 10
111.4168778023
 20
145.6292862016
 30
0.0
 11
111.4168778023
 21
145.4292862016
 31
0.0
  0
LINE
  5
B9
330
1F
100
AcDbEntity
  8
0
  6
Continuous
 62
     7
370
    25
100
AcDbLine
 10
127.9293533083
 20
251.6657351152
 30
0.0
 11
117.9293533083
 21
251.6657351152
 31
0.0
  0
LINE
  5
BA
330
1F
100
AcDbEntity
  8
0
  6
Continuous
 62
     7
370
    25
100
AcDbLine
 10
117.9293533083
 20
251.6657351152
 30
0.0
 11
117.9293533083
 21
248.6657351152
 31
0.0
  0
LINE
  5
BB
330
1F
100
AcDbEntity
  8
0
  6
Continuous
 62
     7
370
    25
100
AcDbLine
 10
117.9293533083
 20
248.6657351152
 30
0.0
 11
127.9293533083
 21
248.6657351152
 31
0.0
  0
LINE
  5
BC
330
1F
100
AcDbEntity
  8
0
  6
Continuous
 62
     7
370
    25
100
AcDbLine
 10
127.9293533083
 20
248.6657351152
 30
0.0
 11
127.9293533083
 21
251.6657351152
 31
0.0
  0
LINE
  5
BD
330
1F
100
AcDbEntity
  8
0
  6
Continuous
 62
     7
370
    25
100
AcDbLine
 10
115.6293533083
 20
130.7930576945
 30
0.0
 11
115.6293533083
 21
123.0174776953
 31
0.0
  0
LINE
  5
BE
330
1F
100
AcDbEntity
  8
0
  6
Continuous
 62
     7
370
    25
100
AcDbLine
 10
115.6293533083
 20
123.0174776953
 30
0.0
 11
115.8293533083
 21
123.0174776953
 31
0.0
  0
LINE
  5
BF
330
1F
100
AcDbEntity
  8
0
  6
Continuous
 62
     7
370
    25
100
AcDbLine
 10
115.8293533083
 20
123.0174776953
 30
0.0
 11
115.8293533083
 21
130.7930576945
 31
0.0
  0
LINE
  5
C0
330
1F
100
AcDbEntity
  8
0
  6
Continuous
 62
     7
370
    25
100
AcDbLine
 10
115.8293533083
 20
130.7930576945
 30
0.0
 11
115.6293533083
 21
130.7930576945
 31
0.0
  0
LINE
  5
C1
330
1F
100
AcDbEntity
  8
0
  6
Continuous
 62
     7
370
    25
100
AcDbLine
 10
147.9293533083
 20
251.6657351152
 30
0.0
 11
137.9293533083
 21
251.6657351152
 31
0.0
  0
LINE
  5
C2
330
1F
100
AcDbEntity
  8
0
  6
Continuous
 62
     7
370
    25
100
AcDbLine
 10
137.9293533083
 20
251.6657351152
 30
0.0
 11
137.9293533083
 21
248.6657351152
 31
0.0
  0
LINE
  5
C3
330
1F
100
AcDbEntity
  8
0
  6
Continuous
 62
     7
370
    25
100
AcDbLine
 10
137.9293533083
 20
248.6657351152
 30
0.0
 11
147.9293533083
 21
248.6657351152
 31
0.0
  0
LINE
  5
C4
330
1F
100
AcDbEntity
  8
0
  6
Continuous
 62
     7
370
    25
100
AcDbLine
 10
147.9293533083
 20
248.6657351152
 30
0.0
 11
147.9293533083
 21
251.6657351152
 31
0.0
  0
LINE
  5
C5
330
1F
100
AcDbEntity
  8
0
  6
Continuous
 62
     7
370
    25
100
AcDbLine
 10
100.6293533083
 20
122.7292862016
 30
0.0
 11
104.3379681915
 21
122.7292862016
 31
0.0
  0
LINE
  5
C6
330
1F
100
AcDbEntity
  8
0
  6
Continuous
 62
     7
370
    25
100
AcDbLine
 10
104.3379681915
 20
122.7292862016
 30
0.0
 11
104.3379681915
 21
122.9292862016
 31
0.0
  0
LINE
  5
C7
330
1F
100
AcDbEntity
  8
0
  6
Continuous
 62
     7
370
    25
100
AcDbLine
 10
104.3379681915
 20
122.9292862016
 30
0.0
 11
100.6293533083
 21
122.9292862016
 31
0.0
  0
LINE
  5
C8
330
1F
100
AcDbEntity
  8
0
  6
Continuous
 62
     7
370
    25
100
AcDbLine
 10
100.6293533083
 20
122.9292862016
 30
0.0
 11
100.6293533083
 21
122.7292862016
 31
0.0
  0
LINE
  5
C9
330
1F
100
AcDbEntity
  8
0
  6
Continuous
 62
     7
370
    25
100
AcDbLine
 10
93.4293533083
 20
145.4292862016
 30
0.0
 11
93.4293533083
 21
140.2517366382
 31
0.0
  0
LINE
  5
CA
330
1F
100
AcDbEntity
  8
0
  6
Continuous
 62
     7
370
    25
100
AcDbLine
 10
93.4293533083
 20
140.2517366382
 30
0.0
 11
93.6293533083
 21
140.2517366382
 31
0.0
  0
LINE
  5
CB
330
1F
100
AcDbEntity
  8
0
  6
Continuous
 62
     7
370
    25
100
AcDbLine
 10
93.6293533083
 20
140.2517366382
 30
0.0
 11
93.6293533083
 21
145.4292862016
 31
0.0
  0
LINE
  5
CC
330
1F
100
AcDbEntity
  8
0
  6
Continuous
 62
     7
370
    25
100
AcDbLine
 10
93.6293533083
 20
145.4292862016
 30
0.0
 11
93.4293533083
 21
145.4292862016
 31
0.0
  0
LINE
  5
CD
330
1F
100
AcDbEntity
  8
0
  6
Continuous
 62
     7
370
    25
100
AcDbLine
 10
37.9293533083
 20
248.6657351152
 30
0.0
 11
47.9293533083
 21
248.6657351152
 31
0.0
  0
LINE
  5
CE
330
1F
100
AcDbEntity
  8
0
  6
Continuous
 62
     7
370
    25
100
AcDbLine
 10
47.9293533083
 20
248.6657351152
 30
0.0
 11
47.9293533083
 21
251.6657351152
 31
0.0
  0
LINE
  5
CF
330
1F
100
AcDbEntity
  8
0
  6
Continuous
 62
     7
370
    25
100
AcDbLine
 10
47.9293533083
 20
251.6657351152
 30
0.0
 11
37.9293533083
 21
251.6657351152
 31
0.0
  0
LINE
  5
D0
330
1F
100
AcDbEntity
  8
0
  6
Continuous
 62
     7
370
    25
100
AcDbLine
 10
37.9293533083
 20
251.6657351152
 30
0.0
 11
37.9293533083
 21
248.6657351152
 31
0.0
  0
CIRCLE
  5
D1
330
1F
100
AcDbEntity
  8
0
  6
Continuous
 62
     7
370
    25
100
AcDbCircle
 10
102.2474473599
 20
121.1218169417
 30
0.0
 40
1.5
  0
LINE
  5
D2
330
1F
100
AcDbEntity
  8
0
  6
Continuous
 62
     7
370
    25
100
AcDbLine
 10
57.9293533083
 20
248.6657351152
 30
0.0
 11
67.9293533083
 21
248.6657351152
 31
0.0
  0
LINE
  5
D3
330
1F
100
AcDbEntity
  8
0
  6
Continuous
 62
     7
370
    25
100
AcDbLine
 10
67.9293533083
 20
248.6657351152
 30
0.0
 11
67.9293533083
 21
251.6657351152
 31
0.0
  0
LINE
  5
D4
330
1F
100
AcDbEntity
  8
0
  6
Continuous
 62
     7
370
    25
100
AcDbLine
 10
67.9293533083
 20
251.6657351152
 30
0.0
 11
57.9293533083
 21
251.6657351152
 31
0.0
  0
LINE
  5
D5
330
1F
100
AcDbEntity
  8
0
  6
Continuous
 62
     7
370
    25
100
AcDbLine
 10
57.9293533083
 20
251.6657351152
 30
0.0
 11
57.9293533083
 21
248.6657351152
 31
0.0
  0
LINE
  5
D6
330
1F
100
AcDbEntity
  8
0
  6
Continuous
 62
     7
370
    25
100
AcDbLine
 10
77.9293533083
 20
248.6657351152
 30
0.0
 11
87.9293533083
 21
248.6657351152
 31
0.0
  0
LINE
  5
D7
330
1F
100
AcDbEntity
  8
0
  6
Continuous
 62
     7
370
    25
100
AcDbLine
 10
87.9293533083
 20
248.6657351152
 30
0.0
 11
87.9293533083
 21
251.6657351152
 31
0.0
  0
LINE
  5
D8
330
1F
100
AcDbEntity
  8
0
  6
Continuous
 62
     7
370
    25
100
AcDbLine
 10
87.9293533083
 20
251.6657351152
 30
0.0
 11
77.9293533083
 21
251.6657351152
 31
0.0
  0
LINE
  5
D9
330
1F
100
AcDbEntity
  8
0
  6
Continuous
 62
     7
370
    25
100
AcDbLine
 10
77.9293533083
 20
251.6657351152
 30
0.0
 11
77.9293533083
 21
248.6657351152
 31
0.0
  0
LINE
  5
DA
330
1F
100
AcDbEntity
  8
0
  6
Continuous
 62
     7
370
    25
100
AcDbLine
 10
27.9293533083
 20
251.6657351152
 30
0.0
 11
17.9293533083
 21
251.6657351152
 31
0.0
  0
LINE
  5
DB
330
1F
100
AcDbEntity
  8
0
  6
Continuous
 62
     7
370
    25
100
AcDbLine
 10
17.9293533083
 20
251.6657351152
 30
0.0
 11
17.9293533083
 21
248.6657351152
 31
0.0
  0
LINE
  5
DC
330
1F
100
AcDbEntity
  8
0
  6
Continuous
 62
     7
370
    25
100
AcDbLine
 10
17.9293533083
 20
248.6657351152
 30
0.0
 11
27.9293533083
 21
248.6657351152
 31
0.0
  0
LINE
  5
DD
330
1F
100
AcDbEntity
  8
0
  6
Continuous
 62
     7
370
    25
100
AcDbLine
 10
27.9293533083
 20
248.6657351152
 30
0.0
 11
27.9293533083
 21
251.6657351152
 31
0.0
  0
LINE
  5
DE
330
1F
100
AcDbEntity
  8
0
  6
Continuous
 62
     7
370
    25
100
AcDbLine
 10
-0.0704902409
 20
288.9988326007
 30
0.0
 11
-0.0704902409
 21
251.6657351152
 31
0.0
  0
SPLINE
  5
DF
330
1F
100
AcDbEntity
  8
0
  6
Continuous
 62
     7
370
    25
100
AcDbSpline
210
0.0
220
0.0
230
1.0
 70
     8
 71
     3
 72
    26
 73
    22
 74
     0
 42
0.00000001
 43
0.00000001
 40
0.0
 40
0.0
 40
0.0
 40
0.0
 40
0.0208533014303819
 40
0.0416620267255974
 40
0.0624484215603216
 40
0.0832348033038179
 40
0.1040434893674672
 40
0.1248967255516345
 40
0.1874976938750535
 40
0.2500983688832001
 40
0.312376097760053
 40
0.3746534097139331
 40
0.4997794661377285
 40
0.6242663519025029
 40
0.6868087057799394
 40
0.749350660436571
 40
0.8118749852041256
 40
0.8743990451240345
 40
0.9162963501114602
 40
0.9581027781093725
 40
1.0
 40
1.0
 40
1.0
 40
1.0
 10
7.930151985231657
 20
296.9988325438688
 30
0.0
 10
7.842849041669209
 20
296.9980153454845
 30
0.0
 10
7.668429773810575
 20
296.996382695564
 30
0.0
 10
7.407264935633206
 20
296.9831304231236
 30
0.0
 10
7.146937284592814
 20
296.9619614990149
 30
0.0
 10
6.887449592477779
 20
296.9321063964464
 30
0.0
 10
6.628795503185139
 20
296.8937677480086
 30
0.0
 10
6.199306749505459
 20
296.8156925533669
 30
0.0
 10
5.605023782576699
 20
296.6672238682318
 30
0.0
 10
4.864973544766407
 20
296.4022285738246
 30
0.0
 10
4.155332793767813
 20
296.0670655287554
 30
0.0
 10
3.257368728304677
 20
295.5293680293286
 30
0.0
 10
2.240326307997323
 20
294.6962833596597
 30
0.0
 10
1.405248607724424
 20
293.6795858790794
 30
0.0
 10
0.8663227952773189
 20
292.7828739077206
 30
0.0
 10
0.5294820251111887
 20
292.0719109558011
 30
0.0
 10
0.263633138958233
 20
291.3316778535772
 30
0.0
 10
0.0929518067849522
 20
290.6526568712961
 30
0.0
 10
-0.0068427737930643
 20
290.0483803698365
 30
0.0
 10
-0.0605861046874684
 20
289.5247354139593
 30
0.0
 10
-0.0671864756733864
 20
289.1742602214715
 30
0.0
 10
-0.0704902408990155
 20
288.9988325438688
 30
0.0
  0
SPLINE
  5
E0
330
1F
100
AcDbEntity
  8
0
  6
Continuous
 62
     7
370
    25
100
AcDbSpline
210
0.0
220
0.0
230
1.0
 70
     8
 71
     3
 72
    26
 73
    22
 74
     0
 42
0.00000001
 43
0.00000001
 40
0.0
 40
0.0
 40
0.0
 40
0.0
 40
0.0208532486058876
 40
0.0416619232770926
 40
0.062448280252348
 40
0.0832346474580783
 40
0.1040433527877696
 40
0.1248966523818932
 40
0.1874974216923939
 40
0.250098455692092
 40
0.3123758223857203
 40
0.3746535842083952
 40
0.4997794559130662
 40
0.6242674725014571
 40
0.686808857812162
 40
0.7493506642434588
 40
0.8118753371830697
 40
0.8744003035216986
 40
0.9162970791599607
 40
0.9581031181456224
 40
1.0
 40
1.0
 40
1.0
 40
1.0
 10
165.929196857467
 20
288.9988325438688
 30
0.0
 10
165.9283794660887
 20
289.0861352684302
 30
0.0
 10
165.9267464305106
 20
289.2605541074945
 30
0.0
 10
165.9134910227291
 20
289.521718228624
 30
0.0
 10
165.89231708893
 20
289.78204505775
 30
0.0
 10
165.8624549206718
 20
290.0415318216122
 30
0.0
 10
165.824107197368
 20
290.300184877987
 30
0.0
 10
165.7460138679089
 20
290.7296698651424
 30
0.0
 10
165.5975111166366
 20
291.323945768729
 30
0.0
 10
165.3324590751485
 20
292.0639752931677
 30
0.0
 10
164.99722884571
 20
292.773586781167
 30
0.0
 10
164.4594356424497
 20
293.6714935526268
 30
0.0
 10
163.6262241858861
 20
294.688441004077
 30
0.0
 10
162.6094262426752
 20
295.5233949220223
 30
0.0
 10
161.7126564910015
 20
296.0622238272171
 30
0.0
 10
161.0016652156996
 20
296.3989963778039
 30
0.0
 10
160.2614075794196
 20
296.6647893662907
 30
0.0
 10
159.582374124847
 20
296.8354315244806
 30
0.0
 10
158.9780937730889
 20
296.9352015695891
 30
0.0
 10
158.4544529788651
 20
296.988930965676
 30
0.0
 10
158.1039808697631
 20
296.9955296306252
 30
0.0
 10
157.9285546313364
 20
296.9988325438688
 30
0.0
  0
LINE
  5
E1
330
1F
100
AcDbEntity
  8
0
  6
Continuous
 62
     7
370
    25
100
AcDbLine
 10
165.9293533083
 20
129.391007874
 30
0.0
 11
165.9293533083
 21
288.9988325916
 31
0.0
  0
SPLINE
  5
E2
330
1F
100
AcDbEntity
  8
0
  6
Continuous
 62
     7
370
    25
100
AcDbSpline
210
0.0
220
0.0
230
1.0
 70
     8
 71
     3
 72
    44
 73
    40
 74
     0
 42
0.00000001
 43
0.00000001
 40
0.0
 40
0.0
 40
0.0
 40
0.0
 40
0.0132893083709683
 40
0.026528930646977
 40
0.0397248226334386
 40
0.0528829995170213
 40
0.0660095283329426
 40
0.0791105200849076
 40
0.0921921215652006
 40
0.1052605069271204
 40
0.1183218690659006
 40
0.1313824108673486
 40
0.1444483363856068
 40
0.157525842012609
 40
0.1706211077019392
 40
0.1837402883089103
 40
0.1968895051067574
 40
0.210074837535996
 40
0.2233023152402513
 40
0.236577910437376
 40
0.249907530669533
 40
0.3124076656149679
 40
0.374430197478648
 40
0.4366102283028587
 40
0.4995780946455693
 40
0.5620270066837099
 40
0.6240729881652577
 40
0.686309657201375
 40
0.7493252432008343
 40
0.7745186500865929
 40
0.7995887306094838
 40
0.8245709024120003
 40
0.8495009578100545
 40
0.8744149137376677
 40
0.8993488568957286
 40
0.9243387873976164
 40
0.9494204642794025
 40
0.9746292561494788
 40
1.0
 40
1.0
 40
1.0
 40
1.0
 10
142.9952858036234
 20
105.7245407251452
 30
0.0
 10
143.1574763152821
 20
105.7255195387177
 30
0.0
 10
143.4812509403626
 20
105.7274735062726
 30
0.0
 10
143.9658612631346
 20
105.7433639617581
 30
0.0
 10
144.4484379304552
 20
105.7687549479589
 30
0.0
 10
144.9289807315779
 20
105.804566870225
 30
0.0
 10
145.4074893447809
 20
105.8505543951485
 30
0.0
 10
145.8839634650561
 20
105.9067830816211
 30
0.0
 10
146.3584027734493
 20
105.9732354780682
 30
0.0
 10
146.8308069488996
 20
106.0499162688099
 30
0.0
 10
147.3011756687646
 20
106.1368241864575
 30
0.0
 10
147.7695086128977
 20
106.2339595200765
 30
0.0
 10
148.2358054650996
 20
106.3413221060072
 30
0.0
 10
148.7000659214797
 20
106.458911870676
 30
0.0
 10
149.1622896733431
 20
106.5867286710159
 30
0.0
 10
149.6224764844821
 20
106.7247723969778
 30
0.0
 10
150.0806259142977
 20
106.8730427292973
 30
0.0
 10
150.5367383661124
 20
107.03154001957
 30
0.0
 10
150.9908111679419
 20
107.200262011411
 30
0.0
 10
151.442853280292
 20
107.3792161465061
 30
0.0
 10
152.4453697592073
 20
107.8006450864475
 30
0.0
 10
153.9578111523334
 20
108.5447699081645
 30
0.0
 10
155.8934052831221
 20
109.7542081148193
 30
0.0
 10
157.7007731193977
 20
111.1575955565273
 30
0.0
 10
159.3622776429935
 20
112.7380620291196
 30
0.0
 10
160.8646625641483
 20
114.4681445441438
 30
0.0
 10
162.1856657699601
 20
116.3297206976786
 30
0.0
 10
163.3210489702721
 20
118.3177471319348
 30
0.0
 10
164.0746348754702
 20
119.9954048359513
 30
0.0
 10
164.5584944225009
 20
121.2906968956733
 30
0.0
 10
164.8475109335657
 20
122.1626033316169
 30
0.0
 10
165.1025000832591
 20
123.0416941009973
 30
0.0
 10
165.3234708547116
 20
123.927989487695
 30
0.0
 10
165.5104324548188
 20
124.821477385366
 30
0.0
 10
165.6633273172732
 20
125.7221539521734
 30
0.0
 10
165.7823702399481
 20
126.6300130515944
 30
0.0
 10
165.8667542372143
 20
127.5450489408285
 30
0.0
 10
165.9195157795642
 20
128.4672570451377
 30
0.0
 10
165.9259671403746
 20
129.0845836844448
 30
0.0
 10
165.929203149173
 20
129.3942353215116
 30
0.0
  0
SPLINE
  5
E3
330
1F
100
AcDbEntity
  8
0
  6
Continuous
 62
     7
370
    25
100
AcDbSpline
210
0.0
220
0.0
230
1.0
 70
     8
 71
     3
 72
    43
 73
    39
 74
     0
 42
0.00000001
 43
0.00000001
 40
0.0
 40
0.0
 40
0.0
 40
0.0
 40
0.0140768884287948
 40
0.0280995861146365
 40
0.0420739470931012
 40
0.0560058863314309
 40
0.0699013729706501
 40
0.0837664232322645
 40
0.0976070930278194
 40
0.1114294703138816
 40
0.1252396672387284
 40
0.1390438121301729
 40
0.1528480413763528
 40
0.1666584912529617
 40
0.1804812897512292
 40
0.1943225484609434
 40
0.2081883545619577
 40
0.2220847629759597
 40
0.2360177887278453
 40
0.2499933995628977
 40
0.313008399164457
 40
0.3752446679407893
 40
0.4372902914490076
 40
0.499738741475855
 40
0.562714584682008
 40
0.6249004237344957
 40
0.6869265316887228
 40
0.7494280140342516
 40
0.7747763478545513
 40
0.7999475194007937
 40
0.8249829576099694
 40
0.8499247677970972
 40
0.8748155304263543
 40
0.8996980880298535
 40
0.9246153254627438
 40
0.9496099490736858
 40
0.9747242704339857
 40
1.0
 40
1.0
 40
1.0
 40
1.0
 10
-0.07050895249891
 20
129.3938069401135
 30
0.0
 10
-0.0695141738823457
 20
129.222006773917
 30
0.0
 10
-0.06752844617397
 20
128.8790678077551
 30
0.0
 10
-0.0513298783647725
 20
128.3657906124145
 30
0.0
 10
-0.0254394963092736
 20
127.8547079579059
 30
0.0
 10
0.0110813119812286
 20
127.3458200070538
 30
0.0
 10
0.0579824213135793
 20
126.8391270585998
 30
0.0
 10
0.1153306598419279
 20
126.3346293881465
 30
0.0
 10
0.1831082568163889
 20
125.8323272877323
 30
0.0
 10
0.2613199980028846
 20
125.332221052343
 30
0.0
 10
0.3499646117349486
 20
124.8343109799325
 30
0.0
 10
0.4490424131998322
 20
124.3385973695485
 30
0.0
 10
0.5585532638929525
 20
123.8450805131205
 30
0.0
 10
0.6784971054130812
 20
123.3537607143176
 30
0.0
 10
0.8088738642678811
 20
122.8646382055215
 30
0.0
 10
0.9496833033087876
 20
122.3777134461878
 30
0.0
 10
1.100925718770254
 20
121.8929859954897
 30
0.0
 10
1.262599301537146
 20
121.4104587209286
 30
0.0
 10
1.434710036796072
 20
120.9301220273912
 30
0.0
 10
1.830481831424493
 20
119.8934282690724
 30
0.0
 10
2.526281061489249
 20
118.340089030208
 30
0.0
 10
3.659529525077962
 20
116.350935066731
 30
0.0
 10
4.978522368350044
 20
114.4879789589011
 30
0.0
 10
6.479079724947795
 20
112.7562398038731
 30
0.0
 10
8.13895575783996
 20
111.1738668775233
 30
0.0
 10
9.944901878072496
 20
109.7683711939222
 30
0.0
 10
11.87926549408916
 20
108.5567035122162
 30
0.0
 10
13.52260545196612
 20
107.7459167519556
 30
0.0
 10
14.79877312404729
 20
107.2218392136484
 30
0.0
 10
15.66541313564288
 20
106.9061115526748
 30
0.0
 10
16.53947773648563
 20
106.6275526372522
 30
0.0
 10
17.42098599700578
 20
106.3861495351596
 30
0.0
 10
18.30992401944494
 20
106.1818949416827
 30
0.0
 10
19.20628587111314
 20
106.0148528182944
 30
0.0
 10
20.11006310594607
 20
105.8847891693211
 30
0.0
 10
21.02124752213533
 20
105.7925863366064
 30
0.0
 10
21.93983221601071
 20
105.7349279431398
 30
0.0
 10
22.55484526972937
 20
105.72786396228
 30
0.0
 10
22.86333679413948
 20
105.7243206582629
 30
0.0
  0
LINE
  5
E4
330
1F
100
AcDbEntity
  8
0
  6
Continuous
 62
     7
370
    25
100
AcDbLine
 10
-0.0704902409
 20
248.6657351152
 30
0.0
 11
-0.0704902409
 21
129.3933501167
 31
0.0
  0
LINE
  5
E5
330
1F
100
AcDbEntity
  8
0
  6
Continuous
 62
     7
370
    25
100
AcDbLine
 10
-0.0704902409
 20
248.6657351152
 30
0.0
 11
7.9293533083
 21
248.6657351152
 31
0.0
  0
LINE
  5
E6
330
1F
100
AcDbEntity
  8
0
  6
Continuous
 62
     7
370
    25
100
AcDbLine
 10
7.9293533083
 20
248.6657351152
 30
0.0
 11
7.9293533083
 21
251.6657351152
 31
0.0
  0
LINE
  5
E7
330
1F
100
AcDbEntity
  8
0
  6
Continuous
 62
     7
370
    25
100
AcDbLine
 10
7.9293533083
 20
251.6657351152
 30
0.0
 11
-0.0704902409
 21
251.6657351152
 31
0.0
  0
LINE
  5
E8
330
1F
100
AcDbEntity
  8
0
  6
Continuous
 62
     7
370
    25
100
AcDbLine
 10
165.9291968575
 20
251.6657351152
 30
0.0
 11
157.9293533083
 21
251.6657351152
 31
0.0
  0
LINE
  5
E9
330
1F
100
AcDbEntity
  8
0
  6
Continuous
 62
     7
370
    25
100
AcDbLine
 10
157.9293533083
 20
251.6657351152
 30
0.0
 11
157.9293533083
 21
248.6657351152
 31
0.0
  0
LINE
  5
EA
330
1F
100
AcDbEntity
  8
0
  6
Continuous
 62
     7
370
    25
100
AcDbLine
 10
157.9293533083
 20
248.6657351152
 30
0.0
 11
165.9291968575
 21
248.6657351152
 31
0.0
  0
LINE
  5
EB
330
1F
100
AcDbEntity
  8
0
  6
Continuous
 62
     7
370
    25
100
AcDbLine
 10
165.9291968575
 20
248.6657351152
 30
0.0
 11
165.9291968575
 21
251.6657351152
 31
0.0
  0
LINE
  5
EC
330
1F
100
AcDbEntity
  8
0
  6
Continuous
 62
     7
370
    25
100
AcDbLine
 10
142.995224953
 20
105.7243756738
 30
0.0
 11
22.8633678255
 21
105.7243205681
 31
0.0
  0
LINE
  5
ED
330
1F
100
AcDbEntity
  8
0
  6
Continuous
 62
     7
370
    25
100
AcDbLine
 10
7.9301519852
 20
296.9988325439
 30
0.0
 11
157.9285546313
 21
296.9988325439
 31
0.0
  0
LINE
  5
EE
330
1F
100
AcDbEntity
  8
0
  6
Continuous
 62
     7
370
    25
100
AcDbLine
 10
-0.0704902409
 20
251.6657351152
 30
0.0
 11
-0.0704902409
 21
248.6657351152
 31
0.0
  0
LINE
  5
EF
330
1F
100
AcDbEntity
  8
0
  6
Continuous
 62
     7
370
    25
100
AcDbLine
 10
-0.0706466917
 20
129.3872687085
 30
0.0
 11
-0.0706466917
 21
248.4918326871
 31
0.0
  0
LINE
  5
F0
330
1F
100
AcDbEntity
  8
0
  6
Continuous
 62
     7
370
    25
100
AcDbLine
 10
-0.0706466917
 20
251.8396375434
 30
0.0
 11
-0.0706466917
 21
288.9988326007
 31
0.0
  0
LINE
  5
F1
330
1F
100
AcDbEntity
  8
0
  6
Continuous
 62
     7
370
    25
100
AcDbLine
 10
7.9293504193
 20
296.9988325439
 30
0.0
 11
7.9301519852
 21
296.9988325439
 31
0.0
  0
SPLINE
  5
F2
330
1F
100
AcDbEntity
  8
0
  6
Continuous
 62
     7
370
    25
100
AcDbSpline
210
0.0
220
0.0
230
1.0
 70
     8
 71
     3
 72
    42
 73
    38
 74
     0
 42
0.00000001
 43
0.00000001
 40
0.0
 40
0.0
 40
0.0
 40
0.0
 40
0.0226557201963685
 40
0.0454271959915634
 40
0.0683144284146586
 40
0.0913174184746147
 40
0.114436167160265
 40
0.1376706754402928
 40
0.1610209442632081
 40
0.1844869745573237
 40
0.2080687672307267
 40
0.2317663231712544
 40
0.2555796432464744
 40
0.2795087283036654
 40
0.3035535791698071
 40
0.3277141966515787
 40
0.3519905815353694
 40
0.3763827345872944
 40
0.4008906565532337
 40
0.4255143481588688
 40
0.4502538101097617
 40
0.4751090430914291
 40
0.5000800477694476
 40
0.5258572656513103
 40
0.5531625624826133
 40
0.5819959000254246
 40
0.6123572376267936
 40
0.6442465322545909
 40
0.6776637385252137
 40
0.7126088087254038
 40
0.7490816928298593
 40
0.787082338515759
 40
0.8266106911751897
 40
0.8676666939260462
 40
0.9102502876220483
 40
0.9543614108621857
 40
1.0
 40
1.0
 40
1.0
 40
1.0
 10
165.929353308284
 20
288.9988325438688
 30
0.0
 10
165.9283779620223
 20
289.0937289768829
 30
0.0
 10
165.9264222861308
 20
289.2840067003041
 30
0.0
 10
165.910549093819
 20
289.5697875030143
 30
0.0
 10
165.8850440995402
 20
289.856285830521
 30
0.0
 10
165.8488522579246
 20
290.143117467668
 30
0.0
 10
165.8021159352205
 20
290.4298882709663
 30
0.0
 10
165.7446724309694
 20
290.716194623779
 30
0.0
 10
165.6764604275998
 20
291.0016238986765
 30
0.0
 10
165.5974110484615
 20
291.2857549640863
 30
0.0
 10
165.5074780440577
 20
291.5681587256084
 30
0.0
 10
165.4066304022792
 20
291.8483987048858
 30
0.0
 10
165.2948550834483
 20
292.1260316554238
 30
0.0
 10
165.1721570006776
 20
292.4006082155847
 30
0.0
 10
165.0385597196266
 20
292.6716735986134
 30
0.0
 10
164.8941059371239
 20
292.9387683195945
 30
0.0
 10
164.7388579900245
 20
293.2014289588219
 30
0.0
 10
164.5728983227166
 20
293.4591889620257
 30
0.0
 10
164.3963299333235
 20
293.7115794737971
 30
0.0
 10
164.209276776942
 20
293.9581302153719
 30
0.0
 10
164.0118841792023
 20
294.1983703616728
 30
0.0
 10
163.8043190536947
 20
294.4318295833502
 30
0.0
 10
163.5847656378166
 20
294.6601234974807
 30
0.0
 10
163.3488820511106
 20
294.8866003618711
 30
0.0
 10
163.0916264339388
 20
295.1137675488416
 30
0.0
 10
162.8096558538288
 20
295.341448644039
 30
0.0
 10
162.5019101046208
 20
295.5671459473137
 30
0.0
 10
162.1674650242905
 20
295.7881299028202
 30
0.0
 10
161.8055696421963
 20
296.0014374188189
 30
0.0
 10
161.4156863128043
 20
296.2038757405009
 30
0.0
 10
160.9975333039936
 20
296.3920239960755
 30
0.0
 10
160.5511295569646
 20
296.5622682830357
 30
0.0
 10
160.0768410649822
 20
296.7107312556595
 30
0.0
 10
159.5754283445632
 20
296.8336508206425
 30
0.0
 10
159.0480937421996
 20
296.9260194435882
 30
0.0
 10
158.4965293734481
 20
296.9871195052489
 30
0.0
 10
158.1205468929397
 20
296.9948841483933
 30
0.0
 10
157.9293561972115
 20
296.9988325438688
 30
0.0
  0
LINE
  5
F3
330
1F
100
AcDbEntity
  8
0
  6
Continuous
 62
     7
370
    25
100
AcDbLine
 10
157.9285546313
 20
296.9988325439
 30
0.0
 11
157.9293561973
 21
296.9988325439
 31
0.0
  0
MTEXT
  5
F5
330
1F
100
AcDbEntity
  8
0
  6
Continuous
 62
     7
100
AcDbMText
 10
0.0
 20
14.3305089537
 30
0.0
 40
5.1381
 41
0.0
 71
     1
 72
     1
  1
SOLIDWORKS Educational Product.
  7
SLDTEXTSTYLE0
 73
     1
 44
1.0
  0
MTEXT
  5
F6
330
1F
100
AcDbEntity
  8
0
  6
Continuous
 62
     7
100
AcDbMText
 10
0.0
 20
6.6233589537
 30
0.0
 40
5.1381
 41
0.0
 71
     1
 72
     1
  1
For Instructional Use Only.
  7
SLDTEXTSTYLE0
 73
     1
 44
1.0
  0
ENDSEC
  0
SECTION
  2
OBJECTS
  0
DICTIONARY
  5
C
330
0
100
AcDbDictionary
281
     1
  3
ACAD_GROUP
350
D
  3
ACAD_LAYOUT
350
1A
  3
ACAD_MLINESTYLE
350
17
  3
ACAD_PLOTSETTINGS
350
19
  3
ACAD_PLOTSTYLENAME
350
E
  3
ACAD_SCALELIST
350
47
  3
DWGPROPS
350
F7
  0
DICTIONARY
  5
D
102
{ACAD_REACTORS
330
C
102
}
330
C
100
AcDbDictionary
281
     1
  0
DICTIONARY
  5
1A
102
{ACAD_REACTORS
330
C
102
}
330
C
100
AcDbDictionary
281
     1
  3
Layout1
350
1E
  3
Layout2
350
26
  3
Model
350
22
  0
DICTIONARY
  5
17
102
{ACAD_REACTORS
330
C
102
}
330
C
100
AcDbDictionary
281
     1
  3
Standard
350
18
  0
DICTIONARY
  5
19
102
{ACAD_REACTORS
330
C
102
}
330
C
100
AcDbDictionary
281
     1
  0
ACDBDICTIONARYWDFLT
  5
E
102
{ACAD_REACTORS
330
C
102
}
330
C
100
AcDbDictionary
281
     1
  3
Normal
350
F
100
AcDbDictionaryWithDefault
340
F
  0
DICTIONARY
  5
47
102
{ACAD_REACTORS
330
C
102
}
330
C
100
AcDbDictionary
281
     1
  3
A0
350
48
  3
A1
350
49
  3
A2
350
4A
  3
A3
350
4B
  3
A4
350
4C
  3
A5
350
4D
  3
A6
350
4E
  3
A7
350
4F
  3
A8
350
50
  3
A9
350
51
  3
B0
350
52
  3
B1
350
53
  3
B2
350
54
  3
B3
350
55
  3
B4
350
56
  3
B5
350
57
  3
B6
350
58
  3
B7
350
59
  3
B8
350
5A
  3
B9
350
5B
  3
C0
350
5C
  3
C1
350
5D
  3
C2
350
5E
  3
C3
350
5F
  3
C4
350
60
  3
C5
350
61
  3
C6
350
62
  3
C7
350
63
  3
C8
350
64
  3
C9
350
65
  3
D0
350
66
  3
D1
350
67
  3
D2
350
68
  0
XRECORD
  5
F7
102
{ACAD_REACTORS
330
C
102
}
330
C
100
AcDbXrecord
280
     1
  1
DWGPROPS COOKIE
  2

  3

  4

  6

  7

  8
maksi
  9

300
=
301
=
302
=
303
=
304
=
305
=
306
=
307
=
308
=
309
=
 40
0.0
 41
2459677.418488414
 42
2459677.418489352
  1

 90
        0
  0
LAYOUT
  5
1E
102
{ACAD_REACTORS
330
1A
102
}
330
1A
100
AcDbPlotSettings
  1

  2
none_device
  4

  6

 40
0.0
 41
0.0
 42
0.0
 43
0.0
 44
0.0
 45
0.0
 46
0.0
 47
0.0
 48
0.0
 49
0.0
140
0.0
141
0.0
142
1.0
143
1.0
 70
   688
 72
     1
 73
     0
 74
     5
  7

 75
    16
147
1.0
148
0.0
149
0.0
100
AcDbLayout
  1
Layout1
 70
     1
 71
     1
 10
0.0
 20
0.0
 11
420.0
 21
297.0
 12
0.0
 22
0.0
 32
0.0
 14
1.0000000000E+20
 24
1.0000000000E+20
 34
1.0000000000E+20
 15
-1.0000000000E+20
 25
-1.0000000000E+20
 35
-1.0000000000E+20
146
0.0
 13
0.0
 23
0.0
 33
0.0
 16
1.0
 26
0.0
 36
0.0
 17
0.0
 27
1.0
 37
0.0
 76
     0
330
1B
  0
LAYOUT
  5
26
102
{ACAD_REACTORS
330
1A
102
}
330
1A
100
AcDbPlotSettings
  1

  2
none_device
  4

  6

 40
0.0
 41
0.0
 42
0.0
 43
0.0
 44
0.0
 45
0.0
 46
0.0
 47
0.0
 48
0.0
 49
0.0
140
0.0
141
0.0
142
1.0
143
1.0
 70
   688
 72
     1
 73
     0
 74
     5
  7

 75
    16
147
1.0
148
0.0
149
0.0
100
AcDbLayout
  1
Layout2
 70
     1
 71
     2
 10
0.0
 20
0.0
 11
0.0
 21
0.0
 12
0.0
 22
0.0
 32
0.0
 14
0.0
 24
0.0
 34
0.0
 15
0.0
 25
0.0
 35
0.0
146
0.0
 13
0.0
 23
0.0
 33
0.0
 16
1.0
 26
0.0
 36
0.0
 17
0.0
 27
1.0
 37
0.0
 76
     0
330
23
  0
LAYOUT
  5
22
102
{ACAD_REACTORS
330
1A
102
}
330
1A
100
AcDbPlotSettings
  1

  2
none_device
  4
Letter_(8.50_x_11.00_Inches)
  6

 40
6.35
 41
6.35
 42
6.35000508
 43
6.35000508
 44
215.9
 45
279.4
 46
0.0
 47
0.0
 48
0.0
 49
0.0
140
0.0
141
0.0
142
1.0
143
1.0
 70
  1712
 72
     1
 73
     0
 74
     0
  7

 75
     0
147
1.0
148
0.0
149
0.0
100
AcDbLayout
  1
Model
 70
     1
 71
     0
 10
0.0
 20
0.0
 11
420.0
 21
297.0
 12
0.0
 22
0.0
 32
0.0
 14
0.0
 24
0.0
 34
0.0
 15
420.0
 25
297.0
 35
0.0
146
0.0
 13
0.0
 23
0.0
 33
0.0
 16
1.0
 26
0.0
 36
0.0
 17
0.0
 27
1.0
 37
0.0
 76
     0
330
1F
331
29
  0
MLINESTYLE
  5
18
102
{ACAD_REACTORS
330
17
102
}
330
17
100
AcDbMlineStyle
  2
Standard
 70
     0
  3

 62
   256
 51
90.0
 52
90.0
 71
     2
 49
0.5
 62
   256
  6
BYLAYER
 49
-0.5
 62
   256
  6
BYLAYER
  0
ACDBPLACEHOLDER
  5
F
102
{ACAD_REACTORS
330
E
102
}
330
E
  0
SCALE
  5
48
102
{ACAD_REACTORS
330
47
102
}
330
47
100
AcDbScale
 70
     0
300
1:1
140
1.0
141
1.0
290
     1
  0
SCALE
  5
49
102
{ACAD_REACTORS
330
47
102
}
330
47
100
AcDbScale
 70
     0
300
1:2
140
1.0
141
2.0
290
     0
  0
SCALE
  5
4A
102
{ACAD_REACTORS
330
47
102
}
330
47
100
AcDbScale
 70
     0
300
1:4
140
1.0
141
4.0
290
     0
  0
SCALE
  5
4B
102
{ACAD_REACTORS
330
47
102
}
330
47
100
AcDbScale
 70
     0
300
1:5
140
1.0
141
5.0
290
     0
  0
SCALE
  5
4C
102
{ACAD_REACTORS
330
47
102
}
330
47
100
AcDbScale
 70
     0
300
1:8
140
1.0
141
8.0
290
     0
  0
SCALE
  5
4D
102
{ACAD_REACTORS
330
47
102
}
330
47
100
AcDbScale
 70
     0
300
1:10
140
1.0
141
10.0
290
     0
  0
SCALE
  5
4E
102
{ACAD_REACTORS
330
47
102
}
330
47
100
AcDbScale
 70
     0
300
1:16
140
1.0
141
16.0
290
     0
  0
SCALE
  5
4F
102
{ACAD_REACTORS
330
47
102
}
330
47
100
AcDbScale
 70
     0
300
1:20
140
1.0
141
20.0
290
     0
  0
SCALE
  5
50
102
{ACAD_REACTORS
330
47
102
}
330
47
100
AcDbScale
 70
     0
300
1:30
140
1.0
141
30.0
290
     0
  0
SCALE
  5
51
102
{ACAD_REACTORS
330
47
102
}
330
47
100
AcDbScale
 70
     0
300
1:40
140
1.0
141
40.0
290
     0
  0
SCALE
  5
52
102
{ACAD_REACTORS
330
47
102
}
330
47
100
AcDbScale
 70
     0
300
1:50
140
1.0
141
50.0
290
     0
  0
SCALE
  5
53
102
{ACAD_REACTORS
330
47
102
}
330
47
100
AcDbScale
 70
     0
300
1:100
140
1.0
141
100.0
290
     0
  0
SCALE
  5
54
102
{ACAD_REACTORS
330
47
102
}
330
47
100
AcDbScale
 70
     0
300
2:1
140
2.0
141
1.0
290
     0
  0
SCALE
  5
55
102
{ACAD_REACTORS
330
47
102
}
330
47
100
AcDbScale
 70
     0
300
4:1
140
4.0
141
1.0
290
     0
  0
SCALE
  5
56
102
{ACAD_REACTORS
330
47
102
}
330
47
100
AcDbScale
 70
     0
300
8:1
140
8.0
141
1.0
290
     0
  0
SCALE
  5
57
102
{ACAD_REACTORS
330
47
102
}
330
47
100
AcDbScale
 70
     0
300
10:1
140
10.0
141
1.0
290
     0
  0
SCALE
  5
58
102
{ACAD_REACTORS
330
47
102
}
330
47
100
AcDbScale
 70
     0
300
100:1
140
100.0
141
1.0
290
     0
  0
SCALE
  5
59
102
{ACAD_REACTORS
330
47
102
}
330
47
100
AcDbScale
 70
     0
300
1/128" = 1'-0"
140
0.0078125
141
12.0
290
     0
  0
SCALE
  5
5A
102
{ACAD_REACTORS
330
47
102
}
330
47
100
AcDbScale
 70
     0
300
1/64" = 1'-0"
140
0.015625
141
12.0
290
     0
  0
SCALE
  5
5B
102
{ACAD_REACTORS
330
47
102
}
330
47
100
AcDbScale
 70
     0
300
1/32" = 1'-0"
140
0.03125
141
12.0
290
     0
  0
SCALE
  5
5C
102
{ACAD_REACTORS
330
47
102
}
330
47
100
AcDbScale
 70
     0
300
1/16" = 1'-0"
140
0.0625
141
12.0
290
     0
  0
SCALE
  5
5D
102
{ACAD_REACTORS
330
47
102
}
330
47
100
AcDbScale
 70
     0
300
3/32" = 1'-0"
140
0.09375
141
12.0
290
     0
  0
SCALE
  5
5E
102
{ACAD_REACTORS
330
47
102
}
330
47
100
AcDbScale
 70
     0
300
1/8" = 1'-0"
140
0.125
141
12.0
290
     0
  0
SCALE
  5
5F
102
{ACAD_REACTORS
330
47
102
}
330
47
100
AcDbScale
 70
     0
300
3/16" = 1'-0"
140
0.1875
141
12.0
290
     0
  0
SCALE
  5
60
102
{ACAD_REACTORS
330
47
102
}
330
47
100
AcDbScale
 70
     0
300
1/4" = 1'-0"
140
0.25
141
12.0
290
     0
  0
SCALE
  5
61
102
{ACAD_REACTORS
330
47
102
}
330
47
100
AcDbScale
 70
     0
300
3/8" = 1'-0"
140
0.375
141
12.0
290
     0
  0
SCALE
  5
62
102
{ACAD_REACTORS
330
47
102
}
330
47
100
AcDbScale
 70
     0
300
1/2" = 1'-0"
140
0.5
141
12.0
290
     0
  0
SCALE
  5
63
102
{ACAD_REACTORS
330
47
102
}
330
47
100
AcDbScale
 70
     0
300
3/4" = 1'-0"
140
0.75
141
12.0
290
     0
  0
SCALE
  5
64
102
{ACAD_REACTORS
330
47
102
}
330
47
100
AcDbScale
 70
     0
300
1" = 1'-0"
140
1.0
141
12.0
290
     0
  0
SCALE
  5
65
102
{ACAD_REACTORS
330
47
102
}
330
47
100
AcDbScale
 70
     0
300
1-1/2" = 1'-0"
140
1.5
141
12.0
290
     0
  0
SCALE
  5
66
102
{ACAD_REACTORS
330
47
102
}
330
47
100
AcDbScale
 70
     0
300
3" = 1'-0"
140
3.0
141
12.0
290
     0
  0
SCALE
  5
67
102
{ACAD_REACTORS
330
47
102
}
330
47
100
AcDbScale
 70
     0
300
6" = 1'-0"
140
6.0
141
12.0
290
     0
  0
SCALE
  5
68
102
{ACAD_REACTORS
330
47
102
}
330
47
100
AcDbScale
 70
     0
300
1'-0" = 1'-0"
140
12.0
141
12.0
290
     0
  0
ENDSEC
  0
EOF
