  0
SECTION
  2
HEADER
  9
$ACADVER
  1
AC1015
  9
$ACADMAINTVER
 70
     6
  9
$DWGCODEPAGE
  3
ANSI_1252
  9
$INSBASE
 10
0.0
 20
0.0
 30
0.0
  9
$EXTMIN
 10
0.0
 20
0.0
 30
0.0
  9
$EXTMAX
 10
420.0
 20
297.0
 30
0.0
  9
$LIMMIN
 10
0.0
 20
0.0
  9
$LIMMAX
 10
420.0
 20
297.0
  9
$ORTHOMODE
 70
     0
  9
$REGENMODE
 70
     1
  9
$FILLMODE
 70
     1
  9
$QTEXTMODE
 70
     0
  9
$MIRRTEXT
 70
     1
  9
$LTSCALE
 40
1.0
  9
$ATTMODE
 70
     1
  9
$TEXTSIZE
 40
3.5
  9
$TRACEWID
 40
1.0
  9
$TEXTSTYLE
  7
Standard
  9
$CLAYER
  8
0
  9
$CELTYPE
  6
ByLayer
  9
$CECOLOR
 62
   256
  9
$CELTSCALE
 40
1.0
  9
$DISPSILH
 70
     0
  9
$DIMSCALE
 40
1.0
  9
$DIMASZ
 40
3.302
  9
$DIMEXO
 40
1.0
  9
$DIMDLI
 40
3.75
  9
$DIMRND
 40
0.0
  9
$DIMDLE
 40
0.0
  9
$DIMEXE
 40
1.0
  9
$DIMTP
 40
0.0
  9
$DIMTM
 40
0.0
  9
$DIMTXT
 40
3.5
  9
$DIMCEN
 40
2.5
  9
$DIMTSZ
 40
0.0
  9
$DIMTOL
 70
     0
  9
$DIMLIM
 70
     0
  9
$DIMTIH
 70
     1
  9
$DIMTOH
 70
     1
  9
$DIMSE1
 70
     0
  9
$DIMSE2
 70
     0
  9
$DIMTAD
 70
     1
  9
$DIMZIN
 70
     1
  9
$DIMBLK
  1

  9
$DIMASO
 70
     1
  9
$DIMSHO
 70
     1
  9
$DIMPOST
  1

  9
$DIMAPOST
  1

  9
$DIMALT
 70
     0
  9
$DIMALTD
 70
     3
  9
$DIMALTF
 40
0.0393700787
  9
$DIMLFAC
 40
1.0
  9
$DIMTOFL
 70
     1
  9
$DIMTVP
 40
0.0
  9
$DIMTIX
 70
     0
  9
$DIMSOXD
 70
     0
  9
$DIMSAH
 70
     0
  9
$DIMBLK1
  1

  9
$DIMBLK2
  1

  9
$DIMSTYLE
  2
ISO-25
  9
$DIMCLRD
 70
     0
  9
$DIMCLRE
 70
     0
  9
$DIMCLRT
 70
     0
  9
$DIMTFAC
 40
1.0
  9
$DIMGAP
 40
1.524
  9
$DIMJUST
 70
     0
  9
$DIMSD1
 70
     0
  9
$DIMSD2
 70
     0
  9
$DIMTOLJ
 70
     0
  9
$DIMTZIN
 70
     1
  9
$DIMALTZ
 70
     0
  9
$DIMALTTZ
 70
     0
  9
$DIMUPT
 70
     0
  9
$DIMDEC
 70
     2
  9
$DIMTDEC
 70
     2
  9
$DIMALTU
 70
     2
  9
$DIMALTTD
 70
     3
  9
$DIMTXSTY
  7
Standard
  9
$DIMAUNIT
 70
     0
  9
$DIMADEC
 70
     2
  9
$DIMALTRND
 40
0.0
  9
$DIMAZIN
 70
     0
  9
$DIMDSEP
 70
    44
  9
$DIMATFIT
 70
     3
  9
$DIMFRAC
 70
     0
  9
$DIMLDRBLK
  1

  9
$DIMLUNIT
 70
     2
  9
$DIMLWD
 70
    -2
  9
$DIMLWE
 70
    -2
  9
$DIMTMOVE
 70
     0
  9
$LUNITS
 70
     2
  9
$LUPREC
 70
     2
  9
$SKETCHINC
 40
1.0
  9
$FILLETRAD
 40
10.0
  9
$AUNITS
 70
     0
  9
$AUPREC
 70
     2
  9
$MENU
  1
.
  9
$ELEVATION
 40
0.0
  9
$PELEVATION
 40
0.0
  9
$THICKNESS
 40
0.0
  9
$LIMCHECK
 70
     0
  9
$CHAMFERA
 40
0.0
  9
$CHAMFERB
 40
0.0
  9
$CHAMFERC
 40
0.0
  9
$CHAMFERD
 40
0.0
  9
$SKPOLY
 70
     0
  9
$TDCREATE
 40
2459710.072947268
  9
$TDUCREATE
 40
2459709.739613935
  9
$TDUPDATE
 40
2459710.072947917
  9
$TDUUPDATE
 40
2459709.739614584
  9
$TDINDWG
 40
0.0000000116
  9
$TDUSRTIMER
 40
0.0000000116
  9
$USRTIMER
 70
     1
  9
$ANGBASE
 50
0.0
  9
$ANGDIR
 70
     0
  9
$PDMODE
 70
     0
  9
$PDSIZE
 40
-1.0
  9
$PLINEWID
 40
0.0
  9
$SPLFRAME
 70
     0
  9
$SPLINETYPE
 70
     6
  9
$SPLINESEGS
 70
     8
  9
$HANDSEED
  5
E3
  9
$SURFTAB1
 70
     6
  9
$SURFTAB2
 70
     6
  9
$SURFTYPE
 70
     6
  9
$SURFU
 70
     6
  9
$SURFV
 70
     6
  9
$UCSBASE
  2

  9
$UCSNAME
  2

  9
$UCSORG
 10
0.0
 20
0.0
 30
0.0
  9
$UCSXDIR
 10
1.0
 20
0.0
 30
0.0
  9
$UCSYDIR
 10
0.0
 20
1.0
 30
0.0
  9
$UCSORTHOREF
  2

  9
$UCSORTHOVIEW
 70
     0
  9
$UCSORGTOP
 10
0.0
 20
0.0
 30
0.0
  9
$UCSORGBOTTOM
 10
0.0
 20
0.0
 30
0.0
  9
$UCSORGLEFT
 10
0.0
 20
0.0
 30
0.0
  9
$UCSORGRIGHT
 10
0.0
 20
0.0
 30
0.0
  9
$UCSORGFRONT
 10
0.0
 20
0.0
 30
0.0
  9
$UCSORGBACK
 10
0.0
 20
0.0
 30
0.0
  9
$PUCSBASE
  2

  9
$PUCSNAME
  2

  9
$PUCSORG
 10
0.0
 20
0.0
 30
0.0
  9
$PUCSXDIR
 10
1.0
 20
0.0
 30
0.0
  9
$PUCSYDIR
 10
0.0
 20
1.0
 30
0.0
  9
$PUCSORTHOREF
  2

  9
$PUCSORTHOVIEW
 70
     0
  9
$PUCSORGTOP
 10
0.0
 20
0.0
 30
0.0
  9
$PUCSORGBOTTOM
 10
0.0
 20
0.0
 30
0.0
  9
$PUCSORGLEFT
 10
0.0
 20
0.0
 30
0.0
  9
$PUCSORGRIGHT
 10
0.0
 20
0.0
 30
0.0
  9
$PUCSORGFRONT
 10
0.0
 20
0.0
 30
0.0
  9
$PUCSORGBACK
 10
0.0
 20
0.0
 30
0.0
  9
$USERI1
 70
     0
  9
$USERI2
 70
     0
  9
$USERI3
 70
     0
  9
$USERI4
 70
     0
  9
$USERI5
 70
     0
  9
$USERR1
 40
0.0
  9
$USERR2
 40
0.0
  9
$USERR3
 40
0.0
  9
$USERR4
 40
0.0
  9
$USERR5
 40
0.0
  9
$WORLDVIEW
 70
     1
  9
$SHADEDGE
 70
     3
  9
$SHADEDIF
 70
    70
  9
$TILEMODE
 70
     1
  9
$MAXACTVP
 70
    64
  9
$PINSBASE
 10
0.0
 20
0.0
 30
0.0
  9
$PLIMCHECK
 70
     0
  9
$PEXTMIN
 10
1.0000000000E+20
 20
1.0000000000E+20
 30
1.0000000000E+20
  9
$PEXTMAX
 10
-1.0000000000E+20
 20
-1.0000000000E+20
 30
-1.0000000000E+20
  9
$PLIMMIN
 10
0.0
 20
0.0
  9
$PLIMMAX
 10
420.0
 20
297.0
  9
$UNITMODE
 70
     0
  9
$VISRETAIN
 70
     1
  9
$PLINEGEN
 70
     0
  9
$PSLTSCALE
 70
     1
  9
$TREEDEPTH
 70
  3020
  9
$CMLSTYLE
  2
Standard
  9
$CMLJUST
 70
     0
  9
$CMLSCALE
 40
20.0
  9
$PROXYGRAPHICS
 70
     1
  9
$MEASUREMENT
 70
     1
  9
$CELWEIGHT
370
    -1
  9
$ENDCAPS
280
     0
  9
$JOINSTYLE
280
     0
  9
$LWDISPLAY
290
     1
  9
$INSUNITS
 70
     4
  9
$HYPERLINKBASE
  1

  9
$STYLESHEET
  1

  9
$XEDIT
290
     1
  9
$CEPSNTYPE
380
     0
  9
$PSTYLEMODE
290
     1
  9
$FINGERPRINTGUID
  2
{4e720f26-8aff-448b-856a-5efb7d37c0c6}
  9
$VERSIONGUID
  2
{FAEB1C32-E019-11D5-929B-00C0DF256EC4}
  9
$EXTNAMES
290
     1
  9
$PSVPSCALE
 40
0.0
  9
$OLESTARTUP
290
     0
  0
ENDSEC
  0
SECTION
  2
CLASSES
  0
CLASS
  1
ACDBDICTIONARYWDFLT
  2
AcDbDictionaryWithDefault
  3
ObjectDBX Classes
 90
        0
280
     0
281
     0
  0
CLASS
  1
VISUALSTYLE
  2
AcDbVisualStyle
  3
ObjectDBX Classes
 90
     4095
280
     0
281
     0
  0
CLASS
  1
MATERIAL
  2
AcDbMaterial
  3
ObjectDBX Classes
 90
     1153
280
     0
281
     0
  0
CLASS
  1
SCALE
  2
AcDbScale
  3
ObjectDBX Classes
 90
     1153
280
     0
281
     0
  0
CLASS
  1
TABLESTYLE
  2
AcDbTableStyle
  3
ObjectDBX Classes
 90
     4095
280
     0
281
     0
  0
CLASS
  1
MLEADERSTYLE
  2
AcDbMLeaderStyle
  3
ACDB_MLEADERSTYLE_CLASS
 90
     4095
280
     0
281
     0
  0
CLASS
  1
SUN
  2
AcDbSun
  3
SCENEOE
 90
     1153
280
     0
281
     0
  0
CLASS
  1
ACDBPLACEHOLDER
  2
AcDbPlaceHolder
  3
ObjectDBX Classes
 90
        0
280
     0
281
     0
  0
CLASS
  1
LAYOUT
  2
AcDbLayout
  3
ObjectDBX Classes
 90
        0
280
     0
281
     0
  0
ENDSEC
  0
SECTION
  2
TABLES
  0
TABLE
  2
VPORT
  5
8
330
0
100
AcDbSymbolTable
 70
     1
  0
VPORT
  5
29
330
8
100
AcDbSymbolTableRecord
100
AcDbViewportTableRecord
  2
*Active
 70
     0
 10
0.0
 20
0.0
 11
1.0
 21
1.0
 12
210.0
 22
148.5
 13
0.0
 23
0.0
 14
10.0
 24
10.0
 15
10.0
 25
10.0
 16
0.0
 26
0.0
 36
1.0
 17
0.0
 27
0.0
 37
0.0
 40
297.0
 41
1.4141414141
 42
50.0
 43
0.0
 44
0.0
 50
0.0
 51
0.0
 71
     0
 72
  2000
 73
     1
 74
     3
 75
     0
 76
     0
 77
     0
 78
     0
281
     0
 65
     1
110
0.0
120
0.0
130
0.0
111
1.0
121
0.0
131
0.0
112
0.0
122
1.0
132
0.0
 79
     0
146
0.0
  0
ENDTAB
  0
TABLE
  2
LTYPE
  5
5
330
0
100
AcDbSymbolTable
 70
     6
  0
LTYPE
  5
14
330
5
100
AcDbSymbolTableRecord
100
AcDbLinetypeTableRecord
  2
ByBlock
 70
     0
  3

 72
    65
 73
     0
 40
0.0
  0
LTYPE
  5
15
330
5
100
AcDbSymbolTableRecord
100
AcDbLinetypeTableRecord
  2
ByLayer
 70
     0
  3

 72
    65
 73
     0
 40
0.0
  0
LTYPE
  5
16
330
5
100
AcDbSymbolTableRecord
100
AcDbLinetypeTableRecord
  2
Continuous
 70
     0
  3
Solid line
 72
    65
 73
     0
 40
0.0
  0
LTYPE
  5
6E
330
5
100
AcDbSymbolTableRecord
100
AcDbLinetypeTableRecord
  2
HIDDEN
 70
     0
  3
Hidden __ __ __ __ __ __ __ __ __ __ __ __ __ __
 72
    65
 73
     2
 40
1.905
 49
1.27
 74
     0
 49
-0.635
 74
     0
  0
LTYPE
  5
6F
330
5
100
AcDbSymbolTableRecord
100
AcDbLinetypeTableRecord
  2
PHANTOM
 70
     0
  3
Phantom ______  __  __  ______  __  __  ______
 72
    65
 73
     6
 40
12.7
 49
6.35
 74
     0
 49
-1.27
 74
     0
 49
1.27
 74
     0
 49
-1.27
 74
     0
 49
1.27
 74
     0
 49
-1.27
 74
     0
  0
LTYPE
  5
70
330
5
100
AcDbSymbolTableRecord
100
AcDbLinetypeTableRecord
  2
CENTER
 70
     0
  3
Center ____ _ ____ _ ____ _ ____ _ ____ _ ____
 72
    65
 73
     4
 40
10.16
 49
6.35
 74
     0
 49
-1.27
 74
     0
 49
1.27
 74
     0
 49
-1.27
 74
     0
  0
LTYPE
  5
71
330
5
100
AcDbSymbolTableRecord
100
AcDbLinetypeTableRecord
  2
CENTERX2
 70
     0
  3
Center (2x) ________  __  ________  __  _____
 72
    65
 73
     4
 40
20.32
 49
12.7
 74
     0
 49
-2.54
 74
     0
 49
2.54
 74
     0
 49
-2.54
 74
     0
  0
LTYPE
  5
72
330
5
100
AcDbSymbolTableRecord
100
AcDbLinetypeTableRecord
  2
DOT2
 70
     0
  3
Dot (.5x) ........................................
 72
    65
 73
     2
 40
0.635
 49
0.0
 74
     0
 49
-0.635
 74
     0
  0
ENDTAB
  0
TABLE
  2
LAYER
  5
2
330
0
100
AcDbSymbolTable
 70
     2
  0
LAYER
  5
10
330
2
100
AcDbSymbolTableRecord
100
AcDbLayerTableRecord
  2
0
 70
     0
 62
     7
  6
Continuous
370
    -3
390
F
  0
LAYER
  5
73
330
2
100
AcDbSymbolTableRecord
100
AcDbLayerTableRecord
  2
FORMAT
 70
     0
 62
     7
  6
Continuous
370
    -3
390
F
  0
ENDTAB
  0
TABLE
  2
STYLE
  5
3
330
0
100
AcDbSymbolTable
 70
     2
  0
STYLE
  5
11
330
3
100
AcDbSymbolTableRecord
100
AcDbTextStyleTableRecord
  2
Standard
 70
     0
 40
0.0
 41
1.0
 50
0.0
 71
     0
 42
3.5
  3
txt
  4

  0
STYLE
  5
DF
330
3
100
AcDbSymbolTableRecord
100
AcDbTextStyleTableRecord
  2
SLDTEXTSTYLE0
 70
     0
 40
0.0
 41
0.7
 50
0.0
 71
     0
 42
3.5
  3
TXT
  4

  0
ENDTAB
  0
TABLE
  2
VIEW
  5
6
330
0
100
AcDbSymbolTable
 70
     0
  0
ENDTAB
  0
TABLE
  2
UCS
  5
7
330
0
100
AcDbSymbolTable
 70
     0
  0
ENDTAB
  0
TABLE
  2
APPID
  5
9
330
0
100
AcDbSymbolTable
 70
     1
  0
APPID
  5
12
330
9
100
AcDbSymbolTableRecord
100
AcDbRegAppTableRecord
  2
ACAD
 70
     0
  0
ENDTAB
  0
TABLE
  2
DIMSTYLE
  5
A
330
0
100
AcDbSymbolTable
 70
     1
100
AcDbDimStyleTable
  0
DIMSTYLE
105
27
330
A
100
AcDbSymbolTableRecord
100
AcDbDimStyleTableRecord
  2
ISO-25
 70
     0
 41
2.5
 42
0.625
 43
3.75
 44
1.25
 73
     0
 74
     0
 77
     1
 78
     8
140
2.5
141
2.5
143
0.0393700787
147
0.625
171
     3
172
     1
178
     0
271
     2
272
     2
274
     3
278
    44
283
     0
284
     8
340
11
  0
ENDTAB
  0
TABLE
  2
BLOCK_RECORD
  5
1
330
0
100
AcDbSymbolTable
 70
     1
  0
BLOCK_RECORD
  5
1F
330
1
100
AcDbSymbolTableRecord
100
AcDbBlockTableRecord
  2
*Model_Space
340
22
  0
BLOCK_RECORD
  5
1B
330
1
100
AcDbSymbolTableRecord
100
AcDbBlockTableRecord
  2
*Paper_Space
340
1E
  0
BLOCK_RECORD
  5
23
330
1
100
AcDbSymbolTableRecord
100
AcDbBlockTableRecord
  2
*Paper_Space0
340
26
  0
ENDTAB
  0
ENDSEC
  0
SECTION
  2
BLOCKS
  0
BLOCK
  5
20
330
1F
100
AcDbEntity
  8
0
100
AcDbBlockBegin
  2
*Model_Space
 70
     0
 10
0.0
 20
0.0
 30
0.0
  3
*Model_Space
  1

  0
ENDBLK
  5
21
330
1F
100
AcDbEntity
  8
0
100
AcDbBlockEnd
  0
BLOCK
  5
1C
330
1B
100
AcDbEntity
 67
     1
  8
0
100
AcDbBlockBegin
  2
*Paper_Space
 70
     0
 10
0.0
 20
0.0
 30
0.0
  3
*Paper_Space
  1

  0
ENDBLK
  5
1D
330
1B
100
AcDbEntity
 67
     1
  8
0
100
AcDbBlockEnd
  0
BLOCK
  5
24
330
23
100
AcDbEntity
  8
0
100
AcDbBlockBegin
  2
*Paper_Space0
 70
     0
 10
0.0
 20
0.0
 30
0.0
  3
*Paper_Space0
  1

  0
ENDBLK
  5
25
330
23
100
AcDbEntity
  8
0
100
AcDbBlockEnd
  0
ENDSEC
  0
SECTION
  2
ENTITIES
  0
CIRCLE
  5
74
330
1F
100
AcDbEntity
  8
0
  6
Continuous
 62
     7
370
    25
100
AcDbCircle
 10
142.145430356
 20
272.750433412
 30
0.0
 40
1.5
  0
CIRCLE
  5
75
330
1F
100
AcDbEntity
  8
0
  6
Continuous
 62
     7
370
    25
100
AcDbCircle
 10
239.6496200469
 20
266.6908510018
 30
0.0
 40
1.5
  0
CIRCLE
  5
76
330
1F
100
AcDbEntity
  8
0
  6
Continuous
 62
     7
370
    25
100
AcDbCircle
 10
65.757967246
 20
269.077959224
 30
0.0
 40
1.5
  0
LINE
  5
77
330
1F
100
AcDbEntity
  8
0
  6
Continuous
 62
     7
370
    25
100
AcDbLine
 10
0.0168993014
 20
296.8958558587
 30
0.0
 11
0.0168993014
 21
246.8958558587
 31
0.0
  0
LINE
  5
78
330
1F
100
AcDbEntity
  8
0
  6
Continuous
 62
     7
370
    25
100
AcDbLine
 10
0.0168993014
 20
296.8958558587
 30
0.0
 11
310.0168993014
 21
296.8958558587
 31
0.0
  0
LINE
  5
79
330
1F
100
AcDbEntity
  8
0
  6
Continuous
 62
     7
370
    25
100
AcDbLine
 10
310.0168993014
 20
296.8958558587
 30
0.0
 11
310.0168993014
 21
246.8958558587
 31
0.0
  0
LINE
  5
7A
330
1F
100
AcDbEntity
  8
0
  6
Continuous
 62
     7
370
    25
100
AcDbLine
 10
0.0168993014
 20
246.8958558587
 30
0.0
 11
310.0168993014
 21
246.8958558587
 31
0.0
  0
SPLINE
  5
7B
330
1F
100
AcDbEntity
  8
0
  6
Continuous
 62
     7
370
    25
100
AcDbSpline
210
0.0
220
0.0
230
1.0
 70
     8
 71
     3
 72
    11
 73
     7
 74
     0
 42
0.00000001
 43
0.00000001
 40
0.0
 40
0.0
 40
0.0
 40
0.0
 40
0.1273706100626817
 40
0.2501806261149059
 40
0.3719220449574971
 40
0.3939212500957365
 40
0.3939212500957365
 40
0.3939212500957365
 40
0.3939212500957365
 10
12.90923674036307
 20
259.9999583732199
 30
0.0
 10
12.8333846748401
 20
259.9809626571732
 30
0.0
 10
12.68439648019062
 20
259.9436513800133
 30
0.0
 10
12.48158389527473
 20
259.8356293651182
 30
0.0
 10
12.3543983110577
 20
259.7316715283419
 30
0.0
 10
12.29394758476946
 20
259.667728452408
 30
0.0
 10
12.2848782062138
 20
259.6577729074855
 30
0.0
  0
SPLINE
  5
7C
330
1F
100
AcDbEntity
  8
0
  6
Continuous
 62
     7
370
    25
100
AcDbSpline
210
0.0
220
0.0
230
1.0
 70
     8
 71
     3
 72
    11
 73
     7
 74
     0
 42
0.00000001
 43
0.00000001
 40
0.6085582385728564
 40
0.6085582385728564
 40
0.6085582385728564
 40
0.6085582385728564
 40
0.6279464338256543
 40
0.7504407303000203
 40
0.8727919537688283
 40
0.9999999999999999
 40
0.9999999999999999
 40
0.9999999999999999
 40
0.9999999999999999
 10
13.61056451853357
 20
259.9159555274959
 30
0.0
 10
13.59980103822364
 20
259.92101128528
 30
0.0
 10
13.5205517477415
 20
259.9570100944469
 30
0.0
 10
13.36720653818821
 20
260.0108919853656
 30
0.0
 10
13.13788522311884
 20
260.033086473282
 30
0.0
 10
12.98643538667668
 20
260.0111434222039
 30
0.0
 10
12.90923674036307
 20
259.9999583732199
 30
0.0
  0
SPLINE
  5
7D
330
1F
100
AcDbEntity
  8
0
  6
Continuous
 62
     7
370
    25
100
AcDbSpline
210
0.0
220
0.0
230
1.0
 70
     8
 71
     3
 72
    12
 73
     8
 74
     0
 42
0.00000001
 43
0.00000001
 40
1.00662260993942
 40
1.00662260993942
 40
1.00662260993942
 40
1.00662260993942
 40
1.008892928750796
 40
1.015820808039783
 40
1.024635017838578
 40
1.035203507820815
 40
1.044338340394804
 40
1.044338340394804
 40
1.044338340394804
 40
1.044338340394804
 10
13.61056451854772
 20
259.9159555274284
 30
0.0
 10
14.03316166616495
 20
259.9987072697683
 30
0.0
 10
15.80256144340089
 20
260.342557909308
 30
0.0
 10
18.98971132005248
 20
260.8514121176464
 30
0.0
 10
23.8396643162461
 20
261.4938036552487
 30
0.0
 10
29.05554784572575
 20
262.0424035734941
 30
0.0
 10
32.67536756907793
 20
262.3578458610171
 30
0.0
 10
34.35468619961604
 20
262.4920251309227
 30
0.0
  0
SPLINE
  5
7E
330
1F
100
AcDbEntity
  8
0
  6
Continuous
 62
     7
370
    25
100
AcDbSpline
210
0.0
220
0.0
230
1.0
 70
     8
 71
     3
 72
    11
 73
     7
 74
     0
 42
0.00000001
 43
0.00000001
 40
0.0
 40
0.0
 40
0.0
 40
0.0
 40
0.126601971963471
 40
0.2501819815596157
 40
0.37237058914188
 40
0.4244841104018688
 40
0.4244841104018688
 40
0.4244841104018688
 40
0.4244841104018688
 10
35.05468558657587
 20
262.802497405627
 30
0.0
 10
34.97736306406629
 20
262.7929299386315
 30
0.0
 10
34.82456369135028
 20
262.7740233780594
 30
0.0
 10
34.61160041372727
 20
262.6853480487227
 30
0.0
 10
34.45776420805605
 20
262.5851997058534
 30
0.0
 10
34.37774432065324
 20
262.5141898446573
 30
0.0
 10
34.35468620071772
 20
262.4920251297766
 30
0.0
  0
SPLINE
  5
7F
330
1F
100
AcDbEntity
  8
0
  6
Continuous
 62
     7
370
    25
100
AcDbSpline
210
0.0
220
0.0
230
1.0
 70
     8
 71
     3
 72
    11
 73
     7
 74
     0
 42
0.00000001
 43
0.00000001
 40
0.5747800737879534
 40
0.5747800737879534
 40
0.5747800737879534
 40
0.5747800737879534
 40
0.6280726909021029
 40
0.750193896206155
 40
0.8732617916878626
 40
1.0
 40
1.0
 40
1.0
 40
1.0
 10
35.79662075336925
 20
262.6042931936945
 30
0.0
 10
35.76971051557812
 20
262.6229432984576
 30
0.0
 10
35.67874365329304
 20
262.6807571232511
 30
0.0
 10
35.51076626903357
 20
262.7561120594507
 30
0.0
 10
35.28652620529563
 20
262.8102250120124
 30
0.0
 10
35.13271907077903
 20
262.8050983823417
 30
0.0
 10
35.05468558657587
 20
262.802497405627
 30
0.0
  0
SPLINE
  5
80
330
1F
100
AcDbEntity
  8
0
  6
Continuous
 62
     7
370
    25
100
AcDbSpline
210
0.0
220
0.0
230
1.0
 70
     8
 71
     3
 72
    11
 73
     7
 74
     0
 42
0.00000001
 43
0.00000001
 40
1.046952468330823
 40
1.046952468330823
 40
1.046952468330823
 40
1.046952468330823
 40
1.047420673310284
 40
1.061167489889054
 40
1.076313586249396
 40
1.08464094978786
 40
1.08464094978786
 40
1.08464094978786
 40
1.08464094978786
 10
35.79662075336937
 20
262.6042931936923
 30
0.0
 10
35.88271652540728
 20
262.6108233184519
 30
0.0
 10
38.49667693167122
 20
262.8081565960232
 30
0.0
 10
43.89735382979104
 20
263.1581057130658
 30
0.0
 10
50.75209000095918
 20
263.4813990809352
 30
0.0
 10
55.07687437235445
 20
263.6338811855888
 30
0.0
 10
56.61129838013643
 20
263.6819723921527
 30
0.0
  0
SPLINE
  5
81
330
1F
100
AcDbEntity
  8
0
  6
Continuous
 62
     7
370
    25
100
AcDbSpline
210
0.0
220
0.0
230
1.0
 70
     8
 71
     3
 72
    11
 73
     7
 74
     0
 42
0.00000001
 43
0.00000001
 40
0.0
 40
0.0
 40
0.0
 40
0.0
 40
0.1270146307902852
 40
0.248930089964487
 40
0.3725843681069023
 40
0.4298336145848578
 40
0.4298336145848578
 40
0.4298336145848578
 40
0.4298336145848578
 10
57.33152700429905
 20
263.964418261315
 30
0.0
 10
57.25374940362937
 20
263.9584095775845
 30
0.0
 10
57.10131668771737
 20
263.9466334367391
 30
0.0
 10
56.88379231344023
 20
263.8705676419652
 30
0.0
 10
56.72342544164879
 20
263.7754793096829
 30
0.0
 10
56.63749509323093
 20
263.7053174804163
 30
0.0
 10
56.61129838099846
 20
263.6819723911854
 30
0.0
  0
SPLINE
  5
82
330
1F
100
AcDbEntity
  8
0
  6
Continuous
 62
     7
370
    25
100
AcDbSpline
210
0.0
220
0.0
230
1.0
 70
     8
 71
     3
 72
    11
 73
     7
 74
     0
 42
0.00000001
 43
0.00000001
 40
0.5673472101546363
 40
0.5673472101546363
 40
0.5673472101546363
 40
0.5673472101546363
 40
0.627656645884793
 40
0.7515621248697871
 40
0.8723114116362746
 40
1.0
 40
1.0
 40
1.0
 40
1.0
 10
58.07264966738887
 20
263.7259719065452
 30
0.0
 10
58.04370762061667
 20
263.7489566831441
 30
0.0
 10
57.9522490698611
 20
263.8151309712835
 30
0.0
 10
57.784387084484
 20
263.8996800725967
 30
0.0
 10
57.56251065652476
 20
263.9608428880092
 30
0.0
 10
57.40994205708164
 20
263.9632044824012
 30
0.0
 10
57.33152700429905
 20
263.964418261315
 30
0.0
  0
SPLINE
  5
83
330
1F
100
AcDbEntity
  8
0
  6
Continuous
 62
     7
370
    25
100
AcDbSpline
210
0.0
220
0.0
230
1.0
 70
     8
 71
     3
 72
    10
 73
     6
 74
     0
 42
0.00000001
 43
0.00000001
 40
1.087284453235565
 40
1.087284453235565
 40
1.087284453235565
 40
1.087284453235565
 40
1.092720066399465
 40
1.110239433661961
 40
1.124963495820666
 40
1.124963495820666
 40
1.124963495820666
 40
1.124963495820666
 10
58.07264966738892
 20
263.7259719065434
 30
0.0
 10
59.07430258307675
 20
263.7549060257043
 30
0.0
 10
63.3046508822823
 20
263.8665625055818
 30
0.0
 10
70.25019392108203
 20
263.9806171881881
 30
0.0
 10
76.19439951393781
 20
264.0068159847881
 30
0.0
 10
78.90883175067134
 20
264.0054084037158
 30
0.0
  0
SPLINE
  5
84
330
1F
100
AcDbEntity
  8
0
  6
Continuous
 62
     7
370
    25
100
AcDbSpline
210
0.0
220
0.0
230
1.0
 70
     8
 71
     3
 72
    11
 73
     7
 74
     0
 42
0.00000001
 43
0.00000001
 40
0.0
 40
0.0
 40
0.0
 40
0.0
 40
0.1275322217229772
 40
0.2489763037019239
 40
0.371532463947623
 40
0.4310892274586858
 40
0.4310892274586858
 40
0.4310892274586858
 40
0.4310892274586858
 10
79.63863548853503
 20
264.2663203809454
 30
0.0
 10
79.56057087494028
 20
264.2622231616485
 30
0.0
 10
79.40816830027977
 20
264.2542243163197
 30
0.0
 10
79.18855201885344
 20
264.1875236767243
 30
0.0
 10
79.02579648696717
 20
264.0960895457148
 30
0.0
 10
78.93689056574463
 20
264.0286814578754
 30
0.0
 10
78.90883175525585
 20
264.0054083981885
 30
0.0
  0
SPLINE
  5
85
330
1F
100
AcDbEntity
  8
0
  6
Continuous
 62
     7
370
    25
100
AcDbSpline
210
0.0
220
0.0
230
1.0
 70
     8
 71
     3
 72
    11
 73
     7
 74
     0
 42
0.00000001
 43
0.00000001
 40
0.5665267283989438
 40
0.5665267283989438
 40
0.5665267283989438
 40
0.5665267283989438
 40
0.6276964068672363
 40
0.750915401471636
 40
0.8724123068140489
 40
1.0
 40
1.0
 40
1.0
 40
1.0
 10
80.3723926278514
 20
264.0033625400625
 30
0.0
 10
80.34380511041786
 20
264.0275262800128
 30
0.0
 10
80.25429617132349
 20
264.096229556687
 30
0.0
 10
80.08802974139861
 20
264.1841825345448
 30
0.0
 10
79.8692299405644
 20
264.2535303616967
 30
0.0
 10
79.7167432093393
 20
264.2619881030273
 30
0.0
 10
79.63863548853503
 20
264.2663203809454
 30
0.0
  0
SPLINE
  5
86
330
1F
100
AcDbEntity
  8
0
  6
Continuous
 62
     7
370
    25
100
AcDbSpline
210
0.0
220
0.0
230
1.0
 70
     8
 71
     3
 72
    10
 73
     6
 74
     0
 42
0.00000001
 43
0.00000001
 40
1.127609793140794
 40
1.127609793140794
 40
1.127609793140794
 40
1.127609793140794
 40
1.128718328035268
 40
1.148000656228667
 40
1.165294356341386
 40
1.165294356341386
 40
1.165294356341386
 40
1.165294356341386
 10
80.37239262785128
 20
264.0033625400602
 30
0.0
 10
80.57675435554681
 20
264.0028984018197
 30
0.0
 10
84.33586761255363
 20
263.992995162007
 30
0.0
 10
91.28296980639394
 20
263.9286717396508
 30
0.0
 10
98.02463699632294
 20
263.7960762320448
 30
0.0
 10
101.211866964101
 20
263.7194531685968
 30
0.0
  0
SPLINE
  5
87
330
1F
100
AcDbEntity
  8
0
  6
Continuous
 62
     7
370
    25
100
AcDbSpline
210
0.0
220
0.0
230
1.0
 70
     8
 71
     3
 72
    11
 73
     7
 74
     0
 42
0.00000001
 43
0.00000001
 40
0.0
 40
0.0
 40
0.0
 40
0.0
 40
0.1278165423342686
 40
0.2496691392846741
 40
0.3723819503600759
 40
0.4298476670781678
 40
0.4298476670781678
 40
0.4298476670781678
 40
0.4298476670781678
 10
101.9461638951886
 20
263.9603032442387
 30
0.0
 10
101.867916038256
 20
263.957658879873
 30
0.0
 10
101.7150713850174
 20
263.9524935377106
 30
0.0
 10
101.4920976823221
 20
263.8953517887059
 30
0.0
 10
101.3286887730736
 20
263.8062341486503
 30
0.0
 10
101.2394544138727
 20
263.7412721657089
 30
0.0
 10
101.2118669669397
 20
263.719453165003
 30
0.0
  0
SPLINE
  5
88
330
1F
100
AcDbEntity
  8
0
  6
Continuous
 62
     7
370
    25
100
AcDbSpline
210
0.0
220
0.0
230
1.0
 70
     8
 71
     3
 72
    11
 73
     7
 74
     0
 42
0.00000001
 43
0.00000001
 40
0.5670271463239986
 40
0.5670271463239986
 40
0.5670271463239986
 40
0.5670271463239986
 40
0.6270735277883533
 40
0.7508413443390903
 40
0.872868745351404
 40
1.0
 40
1.0
 40
1.0
 40
1.0
 10
102.6736413125436
 20
263.6833401455212
 30
0.0
 10
102.6459738359124
 20
263.7075654444025
 30
0.0
 10
102.5578895351071
 20
263.777801604824
 30
0.0
 10
102.3950227688185
 20
263.8718838437787
 30
0.0
 10
102.1765656004238
 20
263.9452908689031
 30
0.0
 10
102.0240061573838
 20
263.9552312450716
 30
0.0
 10
101.9461638951886
 20
263.9603032442387
 30
0.0
  0
SPLINE
  5
89
330
1F
100
AcDbEntity
  8
0
  6
Continuous
 62
     7
370
    25
100
AcDbSpline
210
0.0
220
0.0
230
1.0
 70
     8
 71
     3
 72
     9
 73
     5
 74
     0
 42
0.00000001
 43
0.00000001
 40
1.167938229564442
 40
1.167938229564442
 40
1.167938229564442
 40
1.167938229564442
 40
1.188335796524961
 40
1.205613891031603
 40
1.205613891031603
 40
1.205613891031603
 40
1.205613891031603
 10
102.6736413125436
 20
263.683340145517
 30
0.0
 10
106.4327917378572
 20
263.5879895291041
 30
0.0
 10
113.3753022647959
 20
263.3767617897887
 30
0.0
 10
120.3153509643305
 20
263.0970229093764
 30
0.0
 10
123.4975552312483
 20
262.9573203059027
 30
0.0
  0
SPLINE
  5
8A
330
1F
100
AcDbEntity
  8
0
  6
Continuous
 62
     7
370
    25
100
AcDbSpline
210
0.0
220
0.0
230
1.0
 70
     8
 71
     3
 72
    11
 73
     7
 74
     0
 42
0.00000001
 43
0.00000001
 40
0.0
 40
0.0
 40
0.0
 40
0.0
 40
0.1279305605031912
 40
0.2497282076874283
 40
0.3723663755838912
 40
0.4325423492698309
 40
0.4325423492698309
 40
0.4325423492698309
 40
0.4325423492698309
 10
124.2418128696671
 20
263.1849795628885
 30
0.0
 10
124.1631737233214
 20
263.185327584071
 30
0.0
 10
124.0096653435116
 20
263.1860069425119
 30
0.0
 10
123.7883257666814
 20
263.1233544990389
 30
0.0
 10
123.6182782361577
 20
263.0444108885607
 30
0.0
 10
123.526664574125
 20
262.9799665555
 30
0.0
 10
123.4975552362643
 20
262.9573202994552
 30
0.0
  0
SPLINE
  5
8B
330
1F
100
AcDbEntity
  8
0
  6
Continuous
 62
     7
370
    25
100
AcDbSpline
210
0.0
220
0.0
230
1.0
 70
     8
 71
     3
 72
    11
 73
     7
 74
     0
 42
0.00000001
 43
0.00000001
 40
0.5698639140598042
 40
0.5698639140598042
 40
0.5698639140598042
 40
0.5698639140598042
 40
0.6269816014275243
 40
0.7499852054850014
 40
0.8730267677609731
 40
1.0
 40
1.0
 40
1.0
 40
1.0
 10
124.9583472050535
 20
262.8923971483917
 30
0.0
 10
124.9324733561682
 20
262.9159459165436
 30
0.0
 10
124.8478482818096
 20
262.9867981442958
 30
0.0
 10
124.6892018488361
 20
263.085108928444
 30
0.0
 10
124.472163191204
 20
263.1632590364981
 30
0.0
 10
124.3193970972742
 20
263.1776638784476
 30
0.0
 10
124.2418128696671
 20
263.1849795628885
 30
0.0
  0
SPLINE
  5
8C
330
1F
100
AcDbEntity
  8
0
  6
Continuous
 62
     7
370
    25
100
AcDbSpline
210
0.0
220
0.0
230
1.0
 70
     8
 71
     3
 72
    10
 73
     6
 74
     0
 42
0.00000001
 43
0.00000001
 40
1.20825779407816
 40
1.20825779407816
 40
1.20825779407816
 40
1.20825779407816
 40
1.209046906695382
 40
1.229854232839362
 40
1.245973539374551
 40
1.245973539374551
 40
1.245973539374551
 40
1.245973539374551
 10
124.9583472050533
 20
262.8923971483879
 30
0.0
 10
125.1036754323925
 20
262.885860417046
 30
0.0
 10
129.0809902528579
 20
262.7063376917484
 30
0.0
 10
136.0255390130565
 20
262.3633024850278
 30
0.0
 10
142.8239483219592
 20
262.0114278892367
 30
0.0
 10
145.791544195455
 20
261.8566179740454
 30
0.0
  0
SPLINE
  5
8D
330
1F
100
AcDbEntity
  8
0
  6
Continuous
 62
     7
370
    25
100
AcDbSpline
210
0.0
220
0.0
230
1.0
 70
     8
 71
     3
 72
    11
 73
     7
 74
     0
 42
0.00000001
 43
0.00000001
 40
0.0
 40
0.0
 40
0.0
 40
0.0
 40
0.1279305605031893
 40
0.2497282076874346
 40
0.3723663755839028
 40
0.4195526886343573
 40
0.4195526886343573
 40
0.4195526886343573
 40
0.4195526886343573
 10
146.5200911830773
 20
262.058297342054
 30
0.0
 10
146.4414674247915
 20
262.0598914216506
 30
0.0
 10
146.2879890834075
 20
262.0630031616367
 30
0.0
 10
146.0656845167944
 20
262.0038658924452
 30
0.0
 10
145.9017112356263
 20
261.930877828261
 30
0.0
 10
145.8149979192632
 20
261.8735058018162
 30
0.0
 10
145.7915441972247
 20
261.8566179715876
 30
0.0
  0
SPLINE
  5
8E
330
1F
100
AcDbEntity
  8
0
  6
Continuous
 62
     7
370
    25
100
AcDbSpline
210
0.0
220
0.0
230
1.0
 70
     8
 71
     3
 72
    11
 73
     7
 74
     0
 42
0.00000001
 43
0.00000001
 40
0.5930567871264952
 40
0.5930567871264952
 40
0.5930567871264952
 40
0.5930567871264952
 40
0.6269816014275238
 40
0.7499852054850186
 40
0.8730267677609924
 40
0.9999999999999999
 40
0.9999999999999999
 40
0.9999999999999999
 40
0.9999999999999999
 10
147.2003547084852
 20
261.7830411422979
 30
0.0
 10
147.184737715885
 20
261.7967389253134
 30
0.0
 10
147.1108939282981
 20
261.8582501219746
 30
0.0
 10
146.9658414586937
 20
261.9513499994309
 30
0.0
 10
146.7500684038012
 20
262.0329294519791
 30
0.0
 10
146.5975497467035
 20
262.049753190067
 30
0.0
 10
146.5200911830773
 20
262.058297342054
 30
0.0
  0
SPLINE
  5
8F
330
1F
100
AcDbEntity
  8
0
  6
Continuous
 62
     7
370
    25
100
AcDbSpline
210
0.0
220
0.0
230
1.0
 70
     8
 71
     3
 72
    10
 73
     6
 74
     0
 42
0.00000001
 43
0.00000001
 40
1.248524326763963
 40
1.248524326763963
 40
1.248524326763963
 40
1.248524326763963
 40
1.250600951212945
 40
1.271203146634517
 40
1.286295341679528
 40
1.286295341679528
 40
1.286295341679528
 40
1.286295341679528
 10
147.2003547084849
 20
261.783041142293
 30
0.0
 10
147.5826630846344
 20
261.7630538919427
 30
0.0
 10
151.7578450486284
 20
261.5446068721585
 30
0.0
 10
158.7113926136152
 20
261.178548334625
 30
0.0
 10
165.2830393157948
 20
260.8403451171238
 30
0.0
 10
168.0616356291135
 20
260.6971936196798
 30
0.0
  0
SPLINE
  5
90
330
1F
100
AcDbEntity
  8
0
  6
Continuous
 62
     7
370
    25
100
AcDbSpline
210
0.0
220
0.0
230
1.0
 70
     8
 71
     3
 72
    11
 73
     7
 74
     0
 42
0.00000001
 43
0.00000001
 40
0.0
 40
0.0
 40
0.0
 40
0.0
 40
0.1279305605031811
 40
0.249728207687426
 40
0.3723663755838916
 40
0.4211422420362838
 40
0.4211422420362838
 40
0.4211422420362838
 40
0.4211422420362838
 10
168.7922738411231
 20
260.9015751486829
 30
0.0
 10
168.7136479908534
 20
260.9030624704735
 30
0.0
 10
168.5601655657901
 20
260.9059658127521
 30
0.0
 10
168.3379415014379
 20
260.8465267501142
 30
0.0
 10
168.1731742425205
 20
260.7729170567891
 30
0.0
 10
168.0858111004979
 20
260.7147488877836
 30
0.0
 10
168.0616356316933
 20
260.6971936161272
 30
0.0
  0
SPLINE
  5
91
330
1F
100
AcDbEntity
  8
0
  6
Continuous
 62
     7
370
    25
100
AcDbSpline
210
0.0
220
0.0
230
1.0
 70
     8
 71
     3
 72
    11
 73
     7
 74
     0
 42
0.00000001
 43
0.00000001
 40
0.5906217188858759
 40
0.5906217188858759
 40
0.5906217188858759
 40
0.5906217188858759
 40
0.626981601427528
 40
0.7499852054850071
 40
0.8730267677609747
 40
0.9999999999999999
 40
0.9999999999999999
 40
0.9999999999999999
 40
0.9999999999999999
 10
169.4762720274786
 20
260.6242916469334
 30
0.0
 10
169.4595673825818
 20
260.639011357503
 30
0.0
 10
169.3846103757514
 20
260.7015222803116
 30
0.0
 10
169.238168920293
 20
260.795233150026
 30
0.0
 10
169.0222852946905
 20
260.8765195479806
 30
0.0
 10
168.8697439347038
 20
260.8931361787924
 30
0.0
 10
168.7922738411231
 20
260.9015751486829
 30
0.0
  0
SPLINE
  5
92
330
1F
100
AcDbEntity
  8
0
  6
Continuous
 62
     7
370
    25
100
AcDbSpline
210
0.0
220
0.0
230
1.0
 70
     8
 71
     3
 72
    10
 73
     6
 74
     0
 42
0.00000001
 43
0.00000001
 40
1.28885658505747
 40
1.28885658505747
 40
1.28885658505747
 40
1.28885658505747
 40
1.291583147189034
 40
1.311628914335385
 40
1.326639377492145
 40
1.326639377492145
 40
1.326639377492145
 40
1.326639377492145
 10
169.4762720274785
 20
260.6242916469303
 30
0.0
 10
169.9782534948303
 20
260.5984124426079
 30
0.0
 10
174.1708121307861
 20
260.3821556981978
 30
0.0
 10
181.1267773322759
 20
260.0207410323545
 30
0.0
 10
187.5801224753418
 20
259.673110379201
 30
0.0
 10
190.3432045469681
 20
259.5219384473618
 30
0.0
  0
SPLINE
  5
93
330
1F
100
AcDbEntity
  8
0
  6
Continuous
 62
     7
370
    25
100
AcDbSpline
210
0.0
220
0.0
230
1.0
 70
     8
 71
     3
 72
    11
 73
     7
 74
     0
 42
0.00000001
 43
0.00000001
 40
0.0
 40
0.0
 40
0.0
 40
0.0
 40
0.1279305605031841
 40
0.2497282076874289
 40
0.3723663755838969
 40
0.4141831150803285
 40
0.4141831150803285
 40
0.4141831150803285
 40
0.4141831150803285
 10
191.0647251489626
 20
259.714155011421
 30
0.0
 10
190.9861107020845
 20
259.7161563106933
 30
0.0
 10
190.8326505371325
 20
259.7200629681672
 30
0.0
 10
190.6100426440991
 20
259.6620779450685
 30
0.0
 10
190.4487196363128
 20
259.5912684356654
 30
0.0
 10
190.3641950758092
 20
259.5366027242522
 30
0.0
 10
190.3432045484906
 20
259.5219384451825
 30
0.0
  0
SPLINE
  5
94
330
1F
100
AcDbEntity
  8
0
  6
Continuous
 62
     7
370
    25
100
AcDbSpline
210
0.0
220
0.0
230
1.0
 70
     8
 71
     3
 72
    11
 73
     7
 74
     0
 42
0.00000001
 43
0.00000001
 40
0.6016544382123847
 40
0.6016544382123847
 40
0.6016544382123847
 40
0.6016544382123847
 40
0.6269816014275261
 40
0.7499852054850105
 40
0.8730267677609768
 40
1.0
 40
1.0
 40
1.0
 40
1.0
 10
191.7316671531016
 20
259.4457773900446
 30
0.0
 10
191.7199291010489
 20
259.4559114667571
 30
0.0
 10
191.6500442253955
 20
259.5139323978232
 30
0.0
 10
191.5099154987297
 20
259.604900287127
 30
0.0
 10
191.2945678887118
 20
259.6875962674121
 30
0.0
 10
191.1421384180892
 20
259.7052097682523
 30
0.0
 10
191.0647251489626
 20
259.714155011421
 30
0.0
  0
SPLINE
  5
95
330
1F
100
AcDbEntity
  8
0
  6
Continuous
 62
     7
370
    25
100
AcDbSpline
210
0.0
220
0.0
230
1.0
 70
     8
 71
     3
 72
    10
 73
     6
 74
     0
 42
0.00000001
 43
0.00000001
 40
1.329153674631349
 40
1.329153674631349
 40
1.329153674631349
 40
1.329153674631349
 40
1.331208391609916
 40
1.350174107743308
 40
1.366986587297378
 40
1.366986587297378
 40
1.366986587297378
 40
1.366986587297378
 10
191.7316671530957
 20
259.4457773899369
 30
0.0
 10
192.1098875703016
 20
259.4249773530471
 30
0.0
 10
195.9791826776963
 20
259.2117387021921
 30
0.0
 10
202.9427444147645
 20
258.8196775420305
 30
0.0
 10
209.5274500925233
 20
258.437341018081
 30
0.0
 10
212.6215182591268
 20
258.2552796752527
 30
0.0
  0
SPLINE
  5
96
330
1F
100
AcDbEntity
  8
0
  6
Continuous
 62
     7
370
    25
100
AcDbSpline
210
0.0
220
0.0
230
1.0
 70
     8
 71
     3
 72
    11
 73
     7
 74
     0
 42
0.00000001
 43
0.00000001
 40
0.0
 40
0.0
 40
0.0
 40
0.0
 40
0.1279305605031853
 40
0.2497282076874307
 40
0.3723663755839019
 40
0.4061084908847001
 40
0.4061084908847001
 40
0.4061084908847001
 40
0.4061084908847001
 10
213.3323059135101
 20
258.4332673039165
 30
0.0
 10
213.2537105133646
 20
258.4359129669156
 30
0.0
 10
213.1002875287892
 20
258.4410774614377
 30
0.0
 10
212.8772117909987
 20
258.3849191837419
 30
0.0
 10
212.7198805791469
 20
258.3173945039006
 30
0.0
 10
212.6387072272485
 20
258.2667294842238
 30
0.0
 10
212.6215182606218
 20
258.2552796730085
 30
0.0
  0
SPLINE
  5
97
330
1F
100
AcDbEntity
  8
0
  6
Continuous
 62
     7
370
    25
100
AcDbSpline
210
0.0
220
0.0
230
1.0
 70
     8
 71
     3
 72
    11
 73
     7
 74
     0
 42
0.00000001
 43
0.00000001
 40
0.6148813819962916
 40
0.6148813819962916
 40
0.6148813819962916
 40
0.6148813819962916
 40
0.626981601427529
 40
0.7499852054850085
 40
0.8730267677609769
 40
1.0
 40
1.0
 40
1.0
 40
1.0
 10
213.9786050010565
 20
258.1752724841168
 30
0.0
 10
213.9729387521413
 20
258.1800454466911
 30
0.0
 10
213.9091705957709
 20
258.2327430459969
 30
0.0
 10
213.7765857049893
 20
258.3203668646372
 30
0.0
 10
213.5619232191891
 20
258.4048253484369
 30
0.0
 10
213.4096432542504
 20
258.4236877768171
 30
0.0
 10
213.3323059135101
 20
258.4332673039165
 30
0.0
  0
SPLINE
  5
98
330
1F
100
AcDbEntity
  8
0
  6
Continuous
 62
     7
370
    25
100
AcDbSpline
210
0.0
220
0.0
230
1.0
 70
     8
 71
     3
 72
    10
 73
     6
 74
     0
 42
0.00000001
 43
0.00000001
 40
1.369444639658156
 40
1.369444639658156
 40
1.369444639658156
 40
1.369444639658156
 40
1.385713983643998
 40
1.402024798055437
 40
1.407312892840793
 40
1.407312892840793
 40
1.407312892840793
 40
1.407312892840793
 10
213.9786050010394
 20
258.1752724838286
 30
0.0
 10
216.9726782729617
 20
257.9984237576861
 30
0.0
 10
222.9682050988225
 20
257.6400179701324
 30
0.0
 10
229.9367285236841
 20
257.2212354919999
 30
0.0
 10
233.9114418088261
 20
256.9835343773407
 30
0.0
 10
234.8845906151574
 20
256.9255704034085
 30
0.0
  0
SPLINE
  5
99
330
1F
100
AcDbEntity
  8
0
  6
Continuous
 62
     7
370
    25
100
AcDbSpline
210
0.0
220
0.0
230
1.0
 70
     8
 71
     3
 72
    11
 73
     7
 74
     0
 42
0.00000001
 43
0.00000001
 40
0.0
 40
0.0
 40
0.0
 40
0.0
 40
0.1279305605031805
 40
0.2497282076874319
 40
0.3723663755838972
 40
0.4059563041502223
 40
0.4059563041502223
 40
0.4059563041502223
 40
0.4059563041502223
 10
235.5953465311806
 20
257.1025986280566
 30
0.0
 10
235.5167541764652
 20
257.1053332646009
 30
0.0
 10
235.363337136754
 20
257.1106714408753
 30
0.0
 10
235.140197966988
 20
257.0547657357938
 30
0.0
 10
234.9828765286827
 20
256.9874560528744
 30
0.0
 10
234.9017178690036
 20
256.9369445368744
 30
0.0
 10
234.8845906166463
 20
256.9255704011666
 30
0.0
  0
SPLINE
  5
9A
330
1F
100
AcDbEntity
  8
0
  6
Continuous
 62
     7
370
    25
100
AcDbSpline
210
0.0
220
0.0
230
1.0
 70
     8
 71
     3
 72
    11
 73
     7
 74
     0
 42
0.00000001
 43
0.00000001
 40
0.6158377293821283
 40
0.6158377293821283
 40
0.6158377293821283
 40
0.6158377293821283
 40
0.6269816014275261
 40
0.7499852054850114
 40
0.8730267677609743
 40
0.9999999999999999
 40
0.9999999999999999
 40
0.9999999999999999
 40
0.9999999999999999
 10
236.2400100700252
 20
256.8450045435476
 30
0.0
 10
236.2347900784064
 20
256.8493984247332
 30
0.0
 10
236.17149301947
 20
256.9017466238053
 30
0.0
 10
236.0394982271357
 20
256.9891953067365
 30
0.0
 10
235.8249314915311
 20
257.073896748682
 30
0.0
 10
235.6726729776998
 20
257.0929315560626
 30
0.0
 10
235.5953465311806
 20
257.1025986280566
 30
0.0
  0
SPLINE
  5
9B
330
1F
100
AcDbEntity
  8
0
  6
Continuous
 62
     7
370
    25
100
AcDbSpline
210
0.0
220
0.0
230
1.0
 70
     8
 71
     3
 72
    11
 73
     7
 74
     0
 42
0.00000001
 43
0.00000001
 40
1.409767993769692
 40
1.409767993769692
 40
1.409767993769692
 40
1.409767993769692
 40
1.417199794497173
 40
1.431125284556973
 40
1.443698357043627
 40
1.447637273957786
 40
1.447637273957786
 40
1.447637273957786
 40
1.447637273957786
 10
236.2400100700071
 20
256.8450045432399
 30
0.0
 10
237.6076775996174
 20
256.7638961297578
 30
0.0
 10
241.5381405213477
 20
256.5325604846888
 30
0.0
 10
247.7832533856272
 20
256.1789781556718
 30
0.0
 10
253.387233802614
 20
255.8906089870564
 30
0.0
 10
256.4281293021515
 20
255.755286851355
 30
0.0
 10
257.1536129919617
 20
255.7247268399546
 30
0.0
  0
SPLINE
  5
9C
330
1F
100
AcDbEntity
  8
0
  6
Continuous
 62
     7
370
    25
100
AcDbSpline
210
0.0
220
0.0
230
1.0
 70
     8
 71
     3
 72
    11
 73
     7
 74
     0
 42
0.00000001
 43
0.00000001
 40
0.0
 40
0.0
 40
0.0
 40
0.0
 40
0.127816542334258
 40
0.2496691392846699
 40
0.3723819503600798
 40
0.4065526441352117
 40
0.4065526441352117
 40
0.4065526441352117
 40
0.4065526441352117
 10
257.860681054132
 20
255.9162177123349
 30
0.0
 10
257.7823885398527
 20
255.916173156105
 30
0.0
 10
257.6294566556412
 20
255.9160861226477
 30
0.0
 10
257.4047084349203
 20
255.8663800983068
 30
0.0
 10
257.2512550235581
 20
255.7891890181926
 30
0.0
 10
257.1708383108429
 20
255.736595412947
 30
0.0
 10
257.1536129923748
 20
255.724726839355
 30
0.0
  0
SPLINE
  5
9D
330
1F
100
AcDbEntity
  8
0
  6
Continuous
 62
     7
370
    25
100
AcDbSpline
210
0.0
220
0.0
230
1.0
 70
     8
 71
     3
 72
    11
 73
     7
 74
     0
 42
0.00000001
 43
0.00000001
 40
0.6119391613948714
 40
0.6119391613948714
 40
0.6119391613948714
 40
0.6119391613948714
 40
0.6270735277883587
 40
0.7508413443390941
 40
0.8728687453514019
 40
1.0
 40
1.0
 40
1.0
 40
1.0
 10
258.5164123371073
 20
255.6694765399126
 30
0.0
 10
258.5092201050595
 20
255.6753159937026
 30
0.0
 10
258.4425644799664
 20
255.7281056501631
 30
0.0
 10
258.3063562724298
 20
255.8129419716735
 30
0.0
 10
258.0904571836046
 20
255.8935627457027
 30
0.0
 10
257.9383119627155
 20
255.908563628999
 30
0.0
 10
257.860681054132
 20
255.9162177123349
 30
0.0
  0
SPLINE
  5
9E
330
1F
100
AcDbEntity
  8
0
  6
Continuous
 62
     7
370
    25
100
AcDbSpline
210
0.0
220
0.0
230
1.0
 70
     8
 71
     3
 72
    14
 73
    10
 74
     0
 42
0.00000001
 43
0.00000001
 40
1.45010346380523
 40
1.45010346380523
 40
1.45010346380523
 40
1.45010346380523
 40
1.454822889044947
 40
1.464412679733344
 40
1.472428607594535
 40
1.478904987997363
 40
1.483926314818982
 40
1.487499337847121
 40
1.487523626868587
 40
1.487523626868587
 40
1.487523626868587
 40
1.487523626868587
 10
258.5164123370961
 20
255.6694765396259
 30
0.0
 10
259.3857918403598
 20
255.6356869189233
 30
0.0
 10
262.0221877656442
 20
255.5421433826412
 30
0.0
 10
266.1385009560645
 20
255.4511401823137
 30
0.0
 10
270.5748705377279
 20
255.5124436240313
 30
0.0
 10
274.1777021907304
 20
255.7688180831388
 30
0.0
 10
276.8870444936379
 20
256.3218218675594
 30
0.0
 10
278.4554233032821
 20
256.7350558442704
 30
0.0
 10
279.0078918205953
 20
257.1167815492634
 30
0.0
 10
279.0116173283273
 20
257.1193684567143
 30
0.0
  0
SPLINE
  5
9F
330
1F
100
AcDbEntity
  8
0
  6
Continuous
 62
     7
370
    25
100
AcDbSpline
210
0.0
220
0.0
230
1.0
 70
     8
 71
     3
 72
    15
 73
    11
 74
     0
 42
0.00000001
 43
0.00000001
 40
0.0
 40
0.0
 40
0.0
 40
0.0
 40
0.1269028142761582
 40
0.2502730725122858
 40
0.3725040473759771
 40
0.4998138396522928
 40
0.6271236319286084
 40
0.7498729030034696
 40
0.8727179148861751
 40
1.0
 40
1.0
 40
1.0
 40
1.0
 10
278.8647040211101
 20
258.7835446043633
 30
0.0
 10
278.8169765374051
 20
258.7224041813072
 30
0.0
 10
278.7228501458175
 20
258.601825283036
 30
0.0
 10
278.6280775499808
 20
258.3927150555646
 30
0.0
 10
278.5823726469563
 20
258.1684993220942
 30
0.0
 10
278.5783961420667
 20
257.9377430343886
 30
0.0
 10
278.6136915514983
 20
257.7087691869961
 30
0.0
 10
278.6962024304947
 20
257.495590838445
 30
0.0
 10
278.8159381606655
 20
257.2996597489223
 30
0.0
 10
278.927180095508
 20
257.194491397449
 30
0.0
 10
278.9837877385378
 20
257.1409744165852
 30
0.0
  0
SPLINE
  5
A0
330
1F
100
AcDbEntity
  8
0
  6
Continuous
 62
     7
370
    25
100
AcDbSpline
210
0.0
220
0.0
230
1.0
 70
     8
 71
     3
 72
    13
 73
     9
 74
     0
 42
0.00000001
 43
0.00000001
 40
0.2703558739218101
 40
0.2703558739218101
 40
0.2703558739218101
 40
0.2703558739218101
 40
0.3723117330968992
 40
0.500116122977402
 40
0.6276431793161416
 40
0.7502923690454518
 40
0.8733738124181712
 40
0.9999999999999999
 40
0.9999999999999999
 40
0.9999999999999999
 40
0.9999999999999999
 10
280.0782611909664
 20
259.127898711582
 30
0.0
 10
280.0186752425556
 20
259.1456890808371
 30
0.0
 10
279.8813302433155
 20
259.1748055777546
 30
0.0
 10
279.6627887699107
 20
259.1805060132928
 30
0.0
 10
279.4337039636069
 20
259.1479296524376
 30
0.0
 10
279.2191108886037
 20
259.0690758029185
 30
0.0
 10
279.0247086460708
 20
258.9483210822257
 30
0.0
 10
278.918541265217
 20
258.8389874483682
 30
0.0
 10
278.8647040211101
 20
258.7835446043633
 30
0.0
  0
SPLINE
  5
A1
330
1F
100
AcDbEntity
  8
0
  6
Continuous
 62
     7
370
    25
100
AcDbSpline
210
0.0
220
0.0
230
1.0
 70
     8
 71
     3
 72
    15
 73
    11
 74
     0
 42
0.00000001
 43
0.00000001
 40
1.491780179444488
 40
1.491780179444488
 40
1.491780179444488
 40
1.491780179444488
 40
1.492769992099689
 40
1.496008151613588
 40
1.499868297077664
 40
1.504543556416006
 40
1.510029862650001
 40
1.51642700937487
 40
1.523784407027348
 40
1.528028769673603
 40
1.528028769673603
 40
1.528028769673603
 40
1.528028769673603
 10
280.0782611909488
 20
259.1278987115856
 30
0.0
 10
280.0808309383417
 20
259.3140135379245
 30
0.0
 10
280.0352312777963
 20
260.1163405066716
 30
0.0
 10
279.7075042163726
 20
261.5722129332697
 30
0.0
 10
278.5996617508832
 20
263.4765152447389
 30
0.0
 10
276.916210809014
 20
265.4446966966642
 30
0.0
 10
274.6063981674226
 20
267.4579804016385
 30
0.0
 10
271.6595724146445
 20
269.4424733354738
 30
0.0
 10
268.7588699468955
 20
271.0606125287716
 30
0.0
 10
266.8334487573658
 20
271.9935180433749
 30
0.0
 10
266.1230801145409
 20
272.321980779631
 30
0.0
  0
SPLINE
  5
A2
330
1F
100
AcDbEntity
  8
0
  6
Continuous
 62
     7
370
    25
100
AcDbSpline
210
0.0
220
0.0
230
1.0
 70
     8
 71
     3
 72
    11
 73
     7
 74
     0
 42
0.00000001
 43
0.00000001
 40
0.0
 40
0.0
 40
0.0
 40
0.0
 40
0.1271872430181642
 40
0.2500777733502956
 40
0.3716574338709138
 40
0.4809817632028067
 40
0.4809817632028067
 40
0.4809817632028067
 40
0.4809817632028067
 10
265.2659547971305
 20
272.3586936529435
 30
0.0
 10
265.3382756728237
 20
272.3301383638525
 30
0.0
 10
265.4804742387403
 20
272.2739924568905
 30
0.0
 10
265.7076491678749
 20
272.2483121439154
 30
0.0
 10
265.9237562444999
 20
272.262491755565
 30
0.0
 10
266.0602903757026
 20
272.2993724422037
 30
0.0
 10
266.1230801145427
 20
272.3219807796259
 30
0.0
  0
SPLINE
  5
A3
330
1F
100
AcDbEntity
  8
0
  6
Continuous
 62
     7
370
    25
100
AcDbSpline
210
0.0
220
0.0
230
1.0
 70
     8
 71
     3
 72
    11
 73
     7
 74
     0
 42
0.00000001
 43
0.00000001
 40
0.5248932088877097
 40
0.5248932088877097
 40
0.5248932088877097
 40
0.5248932088877097
 40
0.6283472219338456
 40
0.7498483703579109
 40
0.8719673579397339
 40
1.0
 40
1.0
 40
1.0
 40
1.0
 10
264.6776756636402
 20
272.9698174652174
 30
0.0
 10
264.7012846766327
 20
272.9111657810795
 30
0.0
 10
264.7614550814577
 20
272.7872915013248
 30
0.0
 10
264.8903320365397
 20
272.6178634234363
 30
0.0
 10
265.0602821748587
 20
272.4646814270205
 30
0.0
 10
265.1963252244611
 20
272.3945753533645
 30
0.0
 10
265.2659547971305
 20
272.3586936529435
 30
0.0
  0
SPLINE
  5
A4
330
1F
100
AcDbEntity
  8
0
  6
Continuous
 62
     7
370
    25
100
AcDbSpline
210
0.0
220
0.0
230
1.0
 70
     8
 71
     3
 72
    12
 73
     8
 74
     0
 42
0.00000001
 43
0.00000001
 40
1.53089212237871
 40
1.53089212237871
 40
1.53089212237871
 40
1.53089212237871
 40
1.532099009391661
 40
1.541394321011182
 40
1.551648504931005
 40
1.562828636882462
 40
1.568447149062834
 40
1.568447149062834
 40
1.568447149062834
 40
1.568447149062834
 10
264.6776756603035
 20
272.9698174575418
 30
0.0
 10
264.4735798404555
 20
273.0585408783001
 30
0.0
 10
262.6940555752439
 20
273.8224815300906
 30
0.0
 10
259.1218323890624
 20
275.1992238240196
 30
0.0
 10
253.7407965298927
 20
276.9769271390001
 30
0.0
 10
248.9388497355384
 20
278.3290835690906
 30
0.0
 10
245.9357814423778
 20
279.0866025010308
 30
0.0
 10
244.9292931017984
 20
279.3314378546403
 30
0.0
  0
SPLINE
  5
A5
330
1F
100
AcDbEntity
  8
0
  6
Continuous
 62
     7
370
    25
100
AcDbSpline
210
0.0
220
0.0
230
1.0
 70
     8
 71
     3
 72
    11
 73
     7
 74
     0
 42
0.00000001
 43
0.00000001
 40
0.0
 40
0.0
 40
0.0
 40
0.0
 40
0.1276644877482942
 40
0.2483037047867743
 40
0.371740391460923
 40
0.4504337564987594
 40
0.4504337564987594
 40
0.4504337564987594
 40
0.4504337564987594
 10
244.1266519392206
 20
279.2327497147161
 30
0.0
 10
244.203627566084
 20
279.2182393415281
 30
0.0
 10
244.3533429150083
 20
279.190017088935
 30
0.0
 10
244.582257190271
 20
279.2062138294368
 30
0.0
 10
244.7741970944614
 20
279.2567097314773
 30
0.0
 10
244.886826790723
 20
279.3086215126609
 30
0.0
 10
244.9292931009932
 20
279.3314378561389
 30
0.0
  0
SPLINE
  5
A6
330
1F
100
AcDbEntity
  8
0
  6
Continuous
 62
     7
370
    25
100
AcDbSpline
210
0.0
220
0.0
230
1.0
 70
     8
 71
     3
 72
    11
 73
     7
 74
     0
 42
0.00000001
 43
0.00000001
 40
0.5500179826218141
 40
0.5500179826218141
 40
0.5500179826218141
 40
0.5500179826218141
 40
0.6280247702972639
 40
0.7498098862364886
 40
0.872033937652757
 40
1.0
 40
1.0
 40
1.0
 40
1.0
 10
243.4548777849635
 20
279.6837374633482
 30
0.0
 10
243.4822225422203
 20
279.6444448957661
 30
0.0
 10
243.5578536218921
 20
279.547818025269
 30
0.0
 10
243.7045489047165
 20
279.413790428932
 30
0.0
 10
243.9039122878005
 20
279.2986913719498
 30
0.0
 10
244.0512780119348
 20
279.2550640249242
 30
0.0
 10
244.1266519392206
 20
279.2327497147161
 30
0.0
  0
SPLINE
  5
A7
330
1F
100
AcDbEntity
  8
0
  6
Continuous
 62
     7
370
    25
100
AcDbSpline
210
0.0
220
0.0
230
1.0
 70
     8
 71
     3
 72
    11
 73
     7
 74
     0
 42
0.00000001
 43
0.00000001
 40
1.571187996731953
 40
1.571187996731953
 40
1.571187996731953
 40
1.571187996731953
 40
1.574901530617924
 40
1.587808503321746
 40
1.601500250813406
 40
1.608787720854952
 40
1.608787720854952
 40
1.608787720854952
 40
1.608787720854952
 10
243.4548777849639
 20
279.6837374633491
 30
0.0
 10
242.7883526302763
 20
279.8401660649558
 30
0.0
 10
239.8014458709319
 20
280.5242456208277
 30
0.0
 10
234.3264078918427
 20
281.6478760547903
 30
0.0
 10
228.1695994174951
 20
282.7108756937568
 30
0.0
 10
224.3453918542226
 20
283.289786544378
 30
0.0
 10
223.0156680188009
 20
283.4817090663053
 30
0.0
  0
SPLINE
  5
A8
330
1F
100
AcDbEntity
  8
0
  6
Continuous
 62
     7
370
    25
100
AcDbSpline
210
0.0
220
0.0
230
1.0
 70
     8
 71
     3
 72
    11
 73
     7
 74
     0
 42
0.00000001
 43
0.00000001
 40
0.0
 40
0.0
 40
0.0
 40
0.0
 40
0.1271685424129286
 40
0.2499121452623362
 40
0.3730714450010275
 40
0.4465410212576525
 40
0.4465410212576525
 40
0.4465410212576525
 40
0.4465410212576525
 10
222.2279075492863
 20
283.3125834576796
 30
0.0
 10
222.3058759479987
 20
283.3061542328034
 30
0.0
 10
222.4590997674682
 20
283.2935194934982
 30
0.0
 10
222.6871567249219
 20
283.3303816780806
 30
0.0
 10
222.8720130279953
 20
283.3982517352364
 30
0.0
 10
222.9776283748036
 20
283.4573949016572
 30
0.0
 10
223.0156680177631
 20
283.4817090679288
 30
0.0
  0
SPLINE
  5
A9
330
1F
100
AcDbEntity
  8
0
  6
Continuous
 62
     7
370
    25
100
AcDbSpline
210
0.0
220
0.0
230
1.0
 70
     8
 71
     3
 72
    11
 73
     7
 74
     0
 42
0.00000001
 43
0.00000001
 40
0.5571959439631593
 40
0.5571959439631593
 40
0.5571959439631593
 40
0.5571959439631593
 40
0.6295595282499032
 40
0.7509806428312279
 40
0.8730535331553388
 40
1.0
 40
1.0
 40
1.0
 40
1.0
 10
221.5286206949951
 20
283.6924596221613
 30
0.0
 10
221.5579061582196
 20
283.6591770904582
 30
0.0
 10
221.6409773356222
 20
283.5740673710343
 30
0.0
 10
221.7934758734807
 20
283.4534601122294
 30
0.0
 10
222.001616613243
 20
283.3571135982239
 30
0.0
 10
222.1514994478717
 20
283.3276192498956
 30
0.0
 10
222.2279075492863
 20
283.3125834576796
 30
0.0
  0
SPLINE
  5
AA
330
1F
100
AcDbEntity
  8
0
  6
Continuous
 62
     7
370
    25
100
AcDbSpline
210
0.0
220
0.0
230
1.0
 70
     8
 71
     3
 72
    10
 73
     6
 74
     0
 42
0.00000001
 43
0.00000001
 40
1.61150328807936
 40
1.61150328807936
 40
1.61150328807936
 40
1.61150328807936
 40
1.615916545018483
 40
1.63098766499379
 40
1.645945774446442
 40
1.645945774446442
 40
1.645945774446442
 40
1.645945774446442
 10
221.5286206949952
 20
283.6924596221625
 30
0.0
 10
220.7227642405637
 20
283.8045799701366
 30
0.0
 10
217.162902526685
 20
284.2849695759094
 30
0.0
 10
210.8556673063898
 20
285.0230178770897
 30
0.0
 10
205.342684860798
 20
285.5322252819616
 30
0.0
 10
202.5941187533564
 20
285.7556366040384
 30
0.0
  0
LINE
  5
AB
330
1F
100
AcDbEntity
  8
0
  6
Continuous
 62
     7
370
    25
100
AcDbLine
 10
202.5941187534
 20
282.1031261899
 30
0.0
 11
202.5941187534
 21
285.755636604
 31
0.0
  0
LINE
  5
AC
330
1F
100
AcDbEntity
  8
0
  6
Continuous
 62
     7
370
    25
100
AcDbLine
 10
210.1267307217
 20
281.7083587244
 30
0.0
 11
202.5941187534
 21
282.1031261899
 31
0.0
  0
ARC
  5
AD
330
1F
100
AcDbEntity
  8
0
  6
Continuous
 62
     7
370
    25
100
AcDbCircle
 10
210.0743947654
 20
280.7097291897
 30
0.0
 40
0.9999999999999959
100
AcDbArc
 50
357.0
 51
87.0
  0
LINE
  5
AE
330
1F
100
AcDbEntity
  8
0
  6
Continuous
 62
     7
370
    25
100
AcDbLine
 10
210.1309770878
 20
262.6820616078
 30
0.0
 11
211.0730243002
 21
280.6573932334
 31
0.0
  0
ARC
  5
AF
330
1F
100
AcDbEntity
  8
0
  6
Continuous
 62
     7
370
    25
100
AcDbCircle
 10
209.1323475531
 20
262.7343975641
 30
0.0
 40
1.000000000000056
100
AcDbArc
 50
267.0
 51
357.0
  0
LINE
  5
B0
330
1F
100
AcDbEntity
  8
0
  6
Continuous
 62
     7
370
    25
100
AcDbLine
 10
191.1046799713
 20
262.6778152417
 30
0.0
 11
209.0800115968
 21
261.7357680293
 31
0.0
  0
ARC
  5
B1
330
1F
100
AcDbEntity
  8
0
  6
Continuous
 62
     7
370
    25
100
AcDbCircle
 10
191.1570159275
 20
263.6764447765
 30
0.0
 40
0.9999999999999959
100
AcDbArc
 50
177.0
 51
267.0
  0
LINE
  5
B2
330
1F
100
AcDbEntity
  8
0
  6
Continuous
 62
     7
370
    25
100
AcDbLine
 10
191.1004336051
 20
281.7041123583
 30
0.0
 11
190.1583863927
 21
263.7287807327
 31
0.0
  0
ARC
  5
B3
330
1F
100
AcDbEntity
  8
0
  6
Continuous
 62
     7
370
    25
100
AcDbCircle
 10
192.0990631399
 20
281.651776402
 30
0.0
 40
0.9999999999999959
100
AcDbArc
 50
87.0
 51
177.0
  0
LINE
  5
B4
330
1F
100
AcDbEntity
  8
0
  6
Continuous
 62
     7
370
    25
100
AcDbLine
 10
201.5941187534
 20
282.1555339692
 30
0.0
 11
192.1513990961
 21
282.6504059368
 31
0.0
  0
LINE
  5
B5
330
1F
100
AcDbEntity
  8
0
  6
Continuous
 62
     7
370
    25
100
AcDbLine
 10
201.5941187534
 20
282.1555339692
 30
0.0
 11
201.5941187534
 21
285.8355817355
 31
0.0
  0
SPLINE
  5
B6
330
1F
100
AcDbEntity
  8
0
  6
Continuous
 62
     7
370
    25
100
AcDbSpline
210
0.0
220
0.0
230
1.0
 70
     8
 71
     3
 72
     8
 73
     4
 74
     0
 42
0.00000001
 43
0.00000001
 40
1.647759631581611
 40
1.647759631581611
 40
1.647759631581611
 40
1.647759631581611
 40
1.649126744697265
 40
1.649126744697265
 40
1.649126744697265
 40
1.649126744697265
 10
201.5941187533564
 20
285.8355817354964
 30
0.0
 10
201.3428574107289
 20
285.8553336087884
 30
0.0
 10
201.091576447183
 20
285.8748347860974
 30
0.0
 10
200.8402764017963
 20
285.8940860683286
 30
0.0
  0
SPLINE
  5
B7
330
1F
100
AcDbEntity
  8
0
  6
Continuous
 62
     7
370
    25
100
AcDbSpline
210
0.0
220
0.0
230
1.0
 70
     8
 71
     3
 72
    11
 73
     7
 74
     0
 42
0.00000001
 43
0.00000001
 40
0.0
 40
0.0
 40
0.0
 40
0.0
 40
0.1265932134452936
 40
0.2489632886826967
 40
0.3713995840576605
 40
0.4434400073177109
 40
0.4434400073177109
 40
0.4434400073177109
 40
0.4434400073177109
 10
200.0693408345707
 20
285.677049379809
 30
0.0
 10
200.1473704176726
 20
285.675138983916
 30
0.0
 10
200.3008265240064
 20
285.6713819227651
 30
0.0
 10
200.5249350030097
 20
285.7241866260678
 30
0.0
 10
200.7049467146191
 20
285.8012926707178
 30
0.0
 10
200.8047591119623
 20
285.8675243297805
 30
0.0
 10
200.8402764013172
 20
285.8940860689694
 30
0.0
  0
SPLINE
  5
B8
330
1F
100
AcDbEntity
  8
0
  6
Continuous
 62
     7
370
    25
100
AcDbSpline
210
0.0
220
0.0
230
1.0
 70
     8
 71
     3
 72
    11
 73
     7
 74
     0
 42
0.00000001
 43
0.00000001
 40
0.5588313297573515
 40
0.5588313297573515
 40
0.5588313297573515
 40
0.5588313297573515
 40
0.62891101150146
 40
0.749746149719041
 40
0.8733616596226761
 40
1.0
 40
1.0
 40
1.0
 40
1.0
 10
199.3463381157789
 20
286.0055781876415
 30
0.0
 10
199.3767746431206
 20
285.975181469584
 30
0.0
 10
199.4640228368721
 20
285.896752376967
 30
0.0
 10
199.6260002792124
 20
285.7905548485704
 30
0.0
 10
199.8391154266104
 20
285.7041341487952
 30
0.0
 10
199.991983531078
 20
285.6861500464689
 30
0.0
 10
200.0693408345707
 20
285.677049379809
 30
0.0
  0
SPLINE
  5
B9
330
1F
100
AcDbEntity
  8
0
  6
Continuous
 62
     7
370
    25
100
AcDbSpline
210
0.0
220
0.0
230
1.0
 70
     8
 71
     3
 72
    10
 73
     6
 74
     0
 42
0.00000001
 43
0.00000001
 40
1.651835433865539
 40
1.651835433865539
 40
1.651835433865539
 40
1.651835433865539
 40
1.662812730403671
 40
1.679411487182277
 40
1.689451021199594
 40
1.689451021199594
 40
1.689451021199594
 40
1.689451021199594
 10
199.346338115779
 20
286.005578187643
 30
0.0
 10
197.3279228881808
 20
286.1522312610095
 30
0.0
 10
192.2545468628634
 20
286.4804212645469
 30
0.0
 10
185.3265262370071
 20
286.7938531364089
 30
0.0
 10
180.41740983906
 20
286.9307361283881
 30
0.0
 10
178.5669877574033
 20
286.9704067632045
 30
0.0
  0
SPLINE
  5
BA
330
1F
100
AcDbEntity
  8
0
  6
Continuous
 62
     7
370
    25
100
AcDbSpline
210
0.0
220
0.0
230
1.0
 70
     8
 71
     3
 72
    11
 73
     7
 74
     0
 42
0.00000001
 43
0.00000001
 40
0.0
 40
0.0
 40
0.0
 40
0.0
 40
0.1277828428210911
 40
0.2496033126843493
 40
0.3715100542843452
 40
0.4424451029778579
 40
0.4424451029778579
 40
0.4424451029778579
 40
0.4424451029778579
 10
177.8149213358101
 20
286.7115468737567
 30
0.0
 10
177.893170138591
 20
286.7147967290077
 30
0.0
 10
178.0460166393928
 20
286.7211448006151
 30
0.0
 10
178.2676710597374
 20
286.780800572161
 30
0.0
 10
178.4384192391833
 20
286.8724993277909
 30
0.0
 10
178.5334278566569
 20
286.9428275330299
 30
0.0
 10
178.5669877574034
 20
286.9704067632044
 30
0.0
  0
SPLINE
  5
BB
330
1F
100
AcDbEntity
  8
0
  6
Continuous
 62
     7
370
    25
100
AcDbSpline
210
0.0
220
0.0
230
1.0
 70
     8
 71
     3
 72
    11
 73
     7
 74
     0
 42
0.00000001
 43
0.00000001
 40
0.5584594100997432
 40
0.5584594100997432
 40
0.5584594100997432
 40
0.5584594100997432
 40
0.6282367144998127
 40
0.7505421716114522
 40
0.872876245996918
 40
1.0
 40
1.0
 40
1.0
 40
1.0
 10
177.0747866157997
 20
286.999816407867
 30
0.0
 10
177.1067770293654
 20
286.9714329196456
 30
0.0
 10
177.1987627087004
 20
286.8978610865307
 30
0.0
 10
177.3666382994327
 20
286.801712802061
 30
0.0
 10
177.5841664024775
 20
286.7273512188329
 30
0.0
 10
177.7370247132677
 20
286.7168819930763
 30
0.0
 10
177.8149213358101
 20
286.7115468737567
 30
0.0
  0
SPLINE
  5
BC
330
1F
100
AcDbEntity
  8
0
  6
Continuous
 62
     7
370
    25
100
AcDbSpline
210
0.0
220
0.0
230
1.0
 70
     8
 71
     3
 72
    10
 73
     6
 74
     0
 42
0.00000001
 43
0.00000001
 40
1.692149590247738
 40
1.692149590247738
 40
1.692149590247738
 40
1.692149590247738
 40
1.69636693977171
 40
1.713589801248741
 40
1.729778010438504
 40
1.729778010438504
 40
1.729778010438504
 40
1.729778010438504
 10
177.0747866157997
 20
286.9998164078685
 30
0.0
 10
176.2974186547792
 20
287.0137945982846
 30
0.0
 10
172.3452329537765
 20
287.0742053300744
 30
0.0
 10
165.4077816768818
 20
287.0857507592413
 30
0.0
 10
159.2491661125869
 20
286.9649225969201
 30
0.0
 10
156.2660083086944
 20
286.8788674899369
 30
0.0
  0
SPLINE
  5
BD
330
1F
100
AcDbEntity
  8
0
  6
Continuous
 62
     7
370
    25
100
AcDbSpline
210
0.0
220
0.0
230
1.0
 70
     8
 71
     3
 72
    11
 73
     7
 74
     0
 42
0.00000001
 43
0.00000001
 40
0.0
 40
0.0
 40
0.0
 40
0.0
 40
0.1268806003840105
 40
0.2486674099812101
 40
0.3715012532275555
 40
0.4417644092729281
 40
0.4417644092729281
 40
0.4417644092729281
 40
0.4417644092729281
 10
155.5266900711004
 20
286.5849293427107
 30
0.0
 10
155.6045059954144
 20
286.5907834266494
 30
0.0
 10
155.7570138200612
 20
286.6022565745257
 30
0.0
 10
155.9737917609345
 20
286.678703361088
 30
0.0
 10
156.1423280026141
 20
286.7747783167841
 30
0.0
 10
156.2341180070609
 20
286.8498358375437
 30
0.0
 10
156.2660083086963
 20
286.8788674899363
 30
0.0
  0
SPLINE
  5
BE
330
1F
100
AcDbEntity
  8
0
  6
Continuous
 62
     7
370
    25
100
AcDbSpline
210
0.0
220
0.0
230
1.0
 70
     8
 71
     3
 72
    11
 73
     7
 74
     0
 42
0.00000001
 43
0.00000001
 40
0.5604176890444293
 40
0.5604176890444293
 40
0.5604176890444293
 40
0.5604176890444293
 40
0.6289116626563908
 40
0.7508408506224027
 40
0.872193628861907
 40
1.0
 40
1.0
 40
1.0
 40
1.0
 10
154.7769001196648
 20
286.8336350547709
 30
0.0
 10
154.8093904935749
 20
286.8070731913345
 30
0.0
 10
154.9034258431743
 20
286.7380268497132
 30
0.0
 10
155.0756316412179
 20
286.6537375717344
 30
0.0
 10
155.2951292795565
 20
286.5878382855373
 30
0.0
 10
155.4481817119683
 20
286.5859155905405
 30
0.0
 10
155.5266900711004
 20
286.5849293427107
 30
0.0
  0
SPLINE
  5
BF
330
1F
100
AcDbEntity
  8
0
  6
Continuous
 62
     7
370
    25
100
AcDbSpline
210
0.0
220
0.0
230
1.0
 70
     8
 71
     3
 72
    10
 73
     6
 74
     0
 42
0.00000001
 43
0.00000001
 40
1.732471699394909
 40
1.732471699394909
 40
1.732471699394909
 40
1.732471699394909
 40
1.74854479537678
 40
1.766108785525121
 40
1.770121258547455
 40
1.770121258547455
 40
1.770121258547455
 40
1.770121258547455
 10
154.7769001196678
 20
286.8336350547729
 30
0.0
 10
151.8152314459969
 20
286.7391475228961
 30
0.0
 10
145.6190025928442
 20
286.4847726779194
 30
0.0
 10
138.6908473761352
 20
286.0574112927108
 30
0.0
 10
134.7240745769312
 20
285.762163124803
 30
0.0
 10
133.9865251033858
 20
285.705534695499
 30
0.0
  0
SPLINE
  5
C0
330
1F
100
AcDbEntity
  8
0
  6
Continuous
 62
     7
370
    25
100
AcDbSpline
210
0.0
220
0.0
230
1.0
 70
     8
 71
     3
 72
    11
 73
     7
 74
     0
 42
0.00000001
 43
0.00000001
 40
0.0
 40
0.0
 40
0.0
 40
0.0
 40
0.126576587610183
 40
0.2501318187721878
 40
0.3716757278703051
 40
0.439834241653999
 40
0.439834241653999
 40
0.439834241653999
 40
0.439834241653999
 10
133.2643249500787
 20
285.3784284600951
 30
0.0
 10
133.3417031262323
 20
285.3878186701204
 30
0.0
 10
133.4946124777954
 20
285.4063749478386
 30
0.0
 10
133.7067425509585
 20
285.4955412285708
 30
0.0
 10
133.8706752702772
 20
285.5975592943591
 30
0.0
 10
133.957041625583
 20
285.6758037391597
 30
0.0
 10
133.9865251004299
 20
285.7055346984283
 30
0.0
  0
SPLINE
  5
C1
330
1F
100
AcDbEntity
  8
0
  6
Continuous
 62
     7
370
    25
100
AcDbSpline
210
0.0
220
0.0
230
1.0
 70
     8
 71
     3
 72
    11
 73
     7
 74
     0
 42
0.00000001
 43
0.00000001
 40
0.5620728363290904
 40
0.5620728363290904
 40
0.5620728363290904
 40
0.5620728363290904
 40
0.6290574011051818
 40
0.7502982885636417
 40
0.8733147547666505
 40
1.0
 40
1.0
 40
1.0
 40
1.0
 10
132.5022760764206
 20
285.5892410613552
 30
0.0
 10
132.5356015289498
 20
285.5650140170454
 30
0.0
 10
132.6327154320433
 20
285.5019113588537
 30
0.0
 10
132.8091242881976
 20
285.4260831950711
 30
0.0
 10
133.0323920788715
 20
285.3708459542248
 30
0.0
 10
133.1862604153069
 20
285.3758763216677
 30
0.0
 10
133.2643249500787
 20
285.3784284600951
 30
0.0
  0
SPLINE
  5
C2
330
1F
100
AcDbEntity
  8
0
  6
Continuous
 62
     7
370
    25
100
AcDbSpline
210
0.0
220
0.0
230
1.0
 70
     8
 71
     3
 72
    10
 73
     6
 74
     0
 42
0.00000001
 43
0.00000001
 40
1.772813161338299
 40
1.772813161338299
 40
1.772813161338299
 40
1.772813161338299
 40
1.783630907407562
 40
1.801013171339473
 40
1.810428026304256
 40
1.810428026304256
 40
1.810428026304256
 40
1.810428026304256
 10
132.5022760764181
 20
285.5892410613572
 30
0.0
 10
130.5143075179594
 20
285.4303600392234
 30
0.0
 10
125.3346009751728
 20
284.9837769595081
 30
0.0
 10
118.4356456221348
 20
284.2786361382262
 30
0.0
 10
113.5301822193457
 20
283.6932653588319
 30
0.0
 10
111.8079126908885
 20
283.4778989089226
 30
0.0
  0
SPLINE
  5
C3
330
1F
100
AcDbEntity
  8
0
  6
Continuous
 62
     7
370
    25
100
AcDbSpline
210
0.0
220
0.0
230
1.0
 70
     8
 71
     3
 72
    11
 73
     7
 74
     0
 42
0.00000001
 43
0.00000001
 40
0.0
 40
0.0
 40
0.0
 40
0.0
 40
0.1268169243109646
 40
0.2490657330436089
 40
0.3724062825694399
 40
0.442390340143368
 40
0.442390340143368
 40
0.442390340143368
 40
0.442390340143368
 10
111.100530030136
 20
283.1136135127296
 30
0.0
 10
111.1772205612804
 20
283.1270530983447
 30
0.0
 10
111.327839127854
 20
283.1534481576891
 30
0.0
 10
111.5386086315767
 20
283.2468084541125
 30
0.0
 10
111.6947305963464
 20
283.3626639549742
 30
0.0
 10
111.7790167928531
 20
283.446184388994
 30
0.0
 10
111.8079126908887
 20
283.4778989089224
 30
0.0
  0
SPLINE
  5
C4
330
1F
100
AcDbEntity
  8
0
  6
Continuous
 62
     7
370
    25
100
AcDbSpline
210
0.0
220
0.0
230
1.0
 70
     8
 71
     3
 72
    11
 73
     7
 74
     0
 42
0.00000001
 43
0.00000001
 40
0.5591470663947891
 40
0.5591470663947891
 40
0.5591470663947891
 40
0.5591470663947891
 40
0.6297204046783387
 40
0.7511720210139011
 40
0.87308506671322
 40
1.0
 40
1.0
 40
1.0
 40
1.0
 10
110.3288891528586
 20
283.2905391391702
 30
0.0
 10
110.3650596707895
 20
283.2669506461853
 30
0.0
 10
110.4666306697248
 20
283.2076567035885
 30
0.0
 10
110.645096745028
 20
283.1338461949007
 30
0.0
 10
110.8709274522134
 20
283.0970146709224
 30
0.0
 10
111.0229770147425
 20
283.1080069108968
 30
0.0
 10
111.100530030136
 20
283.1136135127296
 30
0.0
  0
SPLINE
  5
C5
330
1F
100
AcDbEntity
  8
0
  6
Continuous
 62
     7
370
    25
100
AcDbSpline
210
0.0
220
0.0
230
1.0
 70
     8
 71
     3
 72
    10
 73
     6
 74
     0
 42
0.00000001
 43
0.00000001
 40
1.813123616559942
 40
1.813123616559942
 40
1.813123616559942
 40
1.813123616559942
 40
1.818193168978212
 40
1.835110052490668
 40
1.850739854205109
 40
1.850739854205109
 40
1.850739854205109
 40
1.850739854205109
 10
110.3288891528585
 20
283.2905391391714
 30
0.0
 10
109.4018849558918
 20
283.1716044215873
 30
0.0
 10
105.3830422834724
 20
282.6437842147503
 30
0.0
 10
98.51889863326974
 20
281.6544033151638
 30
0.0
 10
92.59832290873076
 20
280.6782710138897
 30
0.0
 10
89.76016350823393
 20
280.1807992597417
 30
0.0
  0
SPLINE
  5
C6
330
1F
100
AcDbEntity
  8
0
  6
Continuous
 62
     7
370
    25
100
AcDbSpline
210
0.0
220
0.0
230
1.0
 70
     8
 71
     3
 72
    11
 73
     7
 74
     0
 42
0.00000001
 43
0.00000001
 40
0.0
 40
0.0
 40
0.0
 40
0.0
 40
0.1276463397964563
 40
0.2496773186607027
 40
0.3722842808018128
 40
0.4438351497034969
 40
0.4438351497034969
 40
0.4438351497034969
 40
0.4438351497034969
 10
89.07197841314648
 20
279.7814786126061
 30
0.0
 10
89.14832223265797
 20
279.7984592128773
 30
0.0
 10
89.29765138837323
 20
279.8316734104149
 30
0.0
 10
89.49973802455094
 20
279.94001653211
 30
0.0
 10
89.65340282784747
 20
280.0584643135299
 30
0.0
 10
89.73272458507125
 20
280.1467382511458
 30
0.0
 10
89.76016350823446
 20
280.1807992597413
 30
0.0
  0
SPLINE
  5
C7
330
1F
100
AcDbEntity
  8
0
  6
Continuous
 62
     7
370
    25
100
AcDbSpline
210
0.0
220
0.0
230
1.0
 70
     8
 71
     3
 72
    11
 73
     7
 74
     0
 42
0.00000001
 43
0.00000001
 40
0.5574819866934098
 40
0.5574819866934098
 40
0.5574819866934098
 40
0.5574819866934098
 40
0.6276576197942231
 40
0.750895835081781
 40
0.8728702316681817
 40
1.0
 40
1.0
 40
1.0
 40
1.0
 10
88.2907969241799
 20
279.9206107144043
 30
0.0
 10
88.32753587880369
 20
279.8984703257576
 30
0.0
 10
88.43189596189549
 20
279.8428443669002
 30
0.0
 10
88.61599273729078
 20
279.7827045218533
 30
0.0
 10
88.84339250186987
 20
279.7529024614423
 30
0.0
 10
88.9947390379166
 20
279.7718227066491
 30
0.0
 10
89.07197841314648
 20
279.7814786126061
 30
0.0
  0
SPLINE
  5
C8
330
1F
100
AcDbEntity
  8
0
  6
Continuous
 62
     7
370
    25
100
AcDbSpline
210
0.0
220
0.0
230
1.0
 70
     8
 71
     3
 72
     8
 73
     4
 74
     0
 42
0.00000001
 43
0.00000001
 40
1.853437964905448
 40
1.853437964905448
 40
1.853437964905448
 40
1.853437964905448
 40
1.85539679866544
 40
1.85539679866544
 40
1.85539679866544
 40
1.85539679866544
 10
88.29079692417976
 20
279.9206107144058
 30
0.0
 10
87.93531848405226
 20
279.8570323440504
 30
0.0
 10
87.57991853199765
 20
279.7930159308065
 30
0.0
 10
87.22459511906119
 20
279.7285767331443
 30
0.0
  0
LINE
  5
C9
330
1F
100
AcDbEntity
  8
0
  6
Continuous
 62
     7
370
    25
100
AcDbLine
 10
87.2245951191
 20
275.6107106465
 30
0.0
 11
87.2245951191
 21
279.7285767331
 31
0.0
  0
LINE
  5
CA
330
1F
100
AcDbEntity
  8
0
  6
Continuous
 62
     7
370
    25
100
AcDbLine
 10
89.2245951191
 20
275.6107106465
 30
0.0
 11
87.2245951191
 21
275.6107106465
 31
0.0
  0
ARC
  5
CB
330
1F
100
AcDbEntity
  8
0
  6
Continuous
 62
     7
370
    25
100
AcDbCircle
 10
89.2245951191
 20
274.6107106465
 30
0.0
 40
1.0
100
AcDbArc
 50
0.0
 51
90.0
  0
LINE
  5
CC
330
1F
100
AcDbEntity
  8
0
  6
Continuous
 62
     7
370
    25
100
AcDbLine
 10
90.2245951191
 20
268.6107106465
 30
0.0
 11
90.2245951191
 21
274.6107106465
 31
0.0
  0
ARC
  5
CD
330
1F
100
AcDbEntity
  8
0
  6
Continuous
 62
     7
370
    25
100
AcDbCircle
 10
89.2245951191
 20
268.6107106465
 30
0.0
 40
1.0
100
AcDbArc
 50
270.0
 51
0.0
  0
LINE
  5
CE
330
1F
100
AcDbEntity
  8
0
  6
Continuous
 62
     7
370
    25
100
AcDbLine
 10
83.2245951191
 20
267.6107106465
 30
0.0
 11
89.2245951191
 21
267.6107106465
 31
0.0
  0
ARC
  5
CF
330
1F
100
AcDbEntity
  8
0
  6
Continuous
 62
     7
370
    25
100
AcDbCircle
 10
83.2245951191
 20
268.6107106465
 30
0.0
 40
1.0
100
AcDbArc
 50
180.0
 51
270.0
  0
LINE
  5
D0
330
1F
100
AcDbEntity
  8
0
  6
Continuous
 62
     7
370
    25
100
AcDbLine
 10
82.2245951191
 20
274.6107106465
 30
0.0
 11
82.2245951191
 21
268.6107106465
 31
0.0
  0
ARC
  5
D1
330
1F
100
AcDbEntity
  8
0
  6
Continuous
 62
     7
370
    25
100
AcDbCircle
 10
83.2245951191
 20
274.6107106465
 30
0.0
 40
1.0
100
AcDbArc
 50
90.0
 51
180.0
  0
LINE
  5
D2
330
1F
100
AcDbEntity
  8
0
  6
Continuous
 62
     7
370
    25
100
AcDbLine
 10
86.2245951191
 20
275.6107106465
 30
0.0
 11
83.2245951191
 21
275.6107106465
 31
0.0
  0
LINE
  5
D3
330
1F
100
AcDbEntity
  8
0
  6
Continuous
 62
     7
370
    25
100
AcDbLine
 10
86.2245951191
 20
275.6107106465
 30
0.0
 11
86.2245951191
 21
279.5460826502
 31
0.0
  0
SPLINE
  5
D4
330
1F
100
AcDbEntity
  8
0
  6
Continuous
 62
     7
370
    25
100
AcDbSpline
210
0.0
220
0.0
230
1.0
 70
     8
 71
     3
 72
    10
 73
     6
 74
     0
 42
0.00000001
 43
0.00000001
 40
0.8572347736170961
 40
0.8572347736170961
 40
0.8572347736170961
 40
0.8572347736170961
 40
0.8678292331511256
 40
0.8835291353291265
 40
0.8911104526930252
 40
0.8911104526930252
 40
0.8911104526930252
 40
0.8911104526930252
 10
86.22459511906119
 20
279.546082650182
 30
0.0
 10
84.30357657365123
 20
279.1933412465177
 30
0.0
 10
79.54122971162683
 20
278.2882178775143
 30
0.0
 10
73.42067647107669
 20
277.0464600381237
 30
0.0
 10
69.22337848941135
 20
276.1498374437282
 30
0.0
 10
67.85752527315617
 20
275.8534388468963
 30
0.0
  0
SPLINE
  5
D5
330
1F
100
AcDbEntity
  8
0
  6
Continuous
 62
     7
370
    25
100
AcDbSpline
210
0.0
220
0.0
230
1.0
 70
     8
 71
     3
 72
    11
 73
     7
 74
     0
 42
0.00000001
 43
0.00000001
 40
0.0
 40
0.0
 40
0.0
 40
0.0
 40
0.1271132186497292
 40
0.2490939444574786
 40
0.372740623619649
 40
0.4397869398245206
 40
0.4397869398245206
 40
0.4397869398245206
 40
0.4397869398245206
 10
67.18526392945948
 20
275.4293253979204
 30
0.0
 10
67.26083819824389
 20
275.4500938861005
 30
0.0
 10
67.40893524834593
 20
275.4907922862837
 30
0.0
 10
67.6111738424894
 20
275.6033730694209
 30
0.0
 10
67.75700051823475
 20
275.7306510239197
 30
0.0
 10
67.83254083632728
 20
275.8205817262962
 30
0.0
 10
67.85752527872701
 20
275.8534388426609
 30
0.0
  0
SPLINE
  5
D6
330
1F
100
AcDbEntity
  8
0
  6
Continuous
 62
     7
370
    25
100
AcDbSpline
210
0.0
220
0.0
230
1.0
 70
     8
 71
     3
 72
    11
 73
     7
 74
     0
 42
0.00000001
 43
0.00000001
 40
0.5607681530054668
 40
0.5607681530054668
 40
0.5607681530054668
 40
0.5607681530054668
 40
0.6282484949555492
 40
0.7500755073305683
 40
0.8726115092743341
 40
1.0
 40
1.0
 40
1.0
 40
1.0
 10
66.39810233990082
 20
275.5349796025505
 30
0.0
 10
66.43460764501444
 20
275.5150300439389
 30
0.0
 10
66.53990801722148
 20
275.4646422462712
 30
0.0
 10
66.72606539720802
 20
275.4144461535135
 30
0.0
 10
66.95558697255294
 20
275.3888750918165
 30
0.0
 10
67.10772034579718
 20
275.4156685568608
 30
0.0
 10
67.18526392945948
 20
275.4293253979204
 30
0.0
  0
SPLINE
  5
D7
330
1F
100
AcDbEntity
  8
0
  6
Continuous
 62
     7
370
    25
100
AcDbSpline
210
0.0
220
0.0
230
1.0
 70
     8
 71
     3
 72
    11
 73
     7
 74
     0
 42
0.00000001
 43
0.00000001
 40
0.893811356478745
 40
0.893811356478745
 40
0.893811356478745
 40
0.893811356478745
 40
0.8986449774899192
 40
0.9130609251811327
 40
0.9266661494678652
 40
0.9314340050165741
 40
0.9314340050165741
 40
0.9314340050165741
 40
0.9314340050165741
 10
66.39810233990026
 20
275.5349796025528
 30
0.0
 10
65.5277103814925
 20
275.344009148467
 30
0.0
 10
62.06298278764019
 20
274.5764174349364
 30
0.0
 10
56.15995467503821
 20
273.2194185071209
 30
0.0
 10
50.28546862128621
 20
271.7942010654308
 30
0.0
 10
47.00061963268995
 20
270.9681416161526
 30
0.0
 10
46.14869557233778
 20
270.7517940362171
 30
0.0
  0
SPLINE
  5
D8
330
1F
100
AcDbEntity
  8
0
  6
Continuous
 62
     7
370
    25
100
AcDbSpline
210
0.0
220
0.0
230
1.0
 70
     8
 71
     3
 72
    11
 73
     7
 74
     0
 42
0.00000001
 43
0.00000001
 40
0.0
 40
0.0
 40
0.0
 40
0.0
 40
0.1265931028643825
 40
0.248727525348576
 40
0.3715074630337392
 40
0.4396720995980818
 40
0.4396720995980818
 40
0.4396720995980818
 40
0.4396720995980818
 10
45.49506425541114
 20
270.3038143147744
 30
0.0
 10
45.56955801355336
 20
270.326629596785
 30
0.0
 10
45.71592181772105
 20
270.3714565937241
 30
0.0
 10
45.91078255743075
 20
270.493902718026
 30
0.0
 10
46.05236750799416
 20
270.6250465189565
 30
0.0
 10
46.12466073090751
 20
270.7175121164115
 30
0.0
 10
46.14869556809789
 20
270.7517940391918
 30
0.0
  0
SPLINE
  5
D9
330
1F
100
AcDbEntity
  8
0
  6
Continuous
 62
     7
370
    25
100
AcDbSpline
210
0.0
220
0.0
230
1.0
 70
     8
 71
     3
 72
    11
 73
     7
 74
     0
 42
0.00000001
 43
0.00000001
 40
0.5609535143200818
 40
0.5609535143200818
 40
0.5609535143200818
 40
0.5609535143200818
 40
0.6278385558578643
 40
0.7494925555146021
 40
0.872434536265994
 40
1.0
 40
1.0
 40
1.0
 40
1.0
 10
44.70658464095386
 20
270.3835240820887
 30
0.0
 10
44.74359013860998
 20
270.3655504632207
 30
0.0
 10
44.85031167026052
 20
270.3198853716617
 30
0.0
 10
45.03597138820156
 20
270.2695318409509
 30
0.0
 10
45.26682241884861
 20
270.2570723241011
 30
0.0
 10
45.41805324750339
 20
270.2880431140709
 30
0.0
 10
45.49506425541114
 20
270.3038143147744
 30
0.0
  0
SPLINE
  5
DA
330
1F
100
AcDbEntity
  8
0
  6
Continuous
 62
     7
370
    25
100
AcDbSpline
210
0.0
220
0.0
230
1.0
 70
     8
 71
     3
 72
    12
 73
     8
 74
     0
 42
0.00000001
 43
0.00000001
 40
0.9341252057039539
 40
0.9341252057039539
 40
0.9341252057039539
 40
0.9341252057039539
 40
0.9393545805975976
 40
0.9510260284284324
 40
0.9615864412886412
 40
0.9709434024378079
 40
0.9716966009994307
 40
0.9716966009994307
 40
0.9716966009994307
 40
0.9716966009994307
 10
44.70658464093996
 20
270.3835240820865
 30
0.0
 10
43.77283060155143
 20
270.1437317158889
 30
0.0
 10
40.75706514803171
 20
269.3607399181582
 30
0.0
 10
35.86846568486918
 20
268.0434352635421
 30
0.0
 10
30.26852756050291
 20
266.4487039089523
 30
0.0
 10
26.62102944396341
 20
265.3355596087781
 30
0.0
 10
24.85073456863721
 20
264.7584501118789
 30
0.0
 10
24.71891972658461
 20
264.715268335631
 30
0.0
  0
SPLINE
  5
DB
330
1F
100
AcDbEntity
  8
0
  6
Continuous
 62
     7
370
    25
100
AcDbSpline
210
0.0
220
0.0
230
1.0
 70
     8
 71
     3
 72
    11
 73
     7
 74
     0
 42
0.00000001
 43
0.00000001
 40
0.0
 40
0.0
 40
0.0
 40
0.0
 40
0.1261451647941152
 40
0.2489147538409526
 40
0.3704899453494744
 40
0.45306934617047
 40
0.45306934617047
 40
0.45306934617047
 40
0.45306934617047
 10
24.08724727752828
 20
264.2070959302499
 30
0.0
 10
24.15936948166955
 20
264.2344868552645
 30
0.0
 10
24.30168393914092
 20
264.2885357390932
 30
0.0
 10
24.48660257356386
 20
264.4223068107871
 30
0.0
 10
24.62328640128705
 20
264.56859178311
 30
0.0
 10
24.6931986100917
 20
264.6719183007406
 30
0.0
 10
24.71891972114673
 20
264.7152683388575
 30
0.0
  0
SPLINE
  5
DC
330
1F
100
AcDbEntity
  8
0
  6
Continuous
 62
     7
370
    25
100
AcDbSpline
210
0.0
220
0.0
230
1.0
 70
     8
 71
     3
 72
    11
 73
     7
 74
     0
 42
0.00000001
 43
0.00000001
 40
0.5504659641037061
 40
0.5504659641037061
 40
0.5504659641037061
 40
0.5504659641037061
 40
0.6285671069746014
 40
0.7503330344509003
 40
0.8726889118941588
 40
1.0
 40
1.0
 40
1.0
 40
1.0
 10
23.28514133176587
 20
264.2370139738368
 30
0.0
 10
23.32881738633399
 20
264.2180579146135
 30
0.0
 10
23.44323763533554
 20
264.1759265323782
 30
0.0
 10
23.63742547213574
 20
264.141245874791
 30
0.0
 10
23.865711951471
 20
264.1445259931842
 30
0.0
 10
24.01243150737723
 20
264.1859651331297
 30
0.0
 10
24.08724727752828
 20
264.2070959302499
 30
0.0
  0
SPLINE
  5
DD
330
1F
100
AcDbEntity
  8
0
  6
Continuous
 62
     7
370
    25
100
AcDbSpline
210
0.0
220
0.0
230
1.0
 70
     8
 71
     3
 72
    16
 73
    12
 74
     0
 42
0.00000001
 43
0.00000001
 40
0.9744323242723949
 40
0.9744323242723949
 40
0.9744323242723949
 40
0.9744323242723949
 40
0.979085415845668
 40
0.986060364297405
 40
0.9918212141302923
 40
0.9962140845097694
 40
0.9990210747997226
 40
1.0
 40
1.000988677652963
 40
1.003950605760873
 40
1.004098785082529
 40
1.004098785082529
 40
1.004098785082529
 40
1.004098785082529
 10
23.28514133176554
 20
264.2370139738378
 30
0.0
 10
22.47353947969685
 20
263.9613126209517
 30
0.0
 10
20.45017691222176
 20
263.2522550506047
 30
0.0
 10
17.43023802536062
 20
262.1029405300284
 30
0.0
 10
14.58530372848502
 20
260.9381701847857
 30
0.0
 10
12.17187242652099
 20
259.9834943017839
 30
0.0
 10
11.1457075737568
 20
259.535927718944
 30
0.0
 10
9.798169635961502
 20
259.1028649249889
 30
0.0
 10
11.21783130313606
 20
259.4622547444077
 30
0.0
 10
11.76738069904418
 20
259.5595104820604
 30
0.0
 10
12.26118323211825
 20
259.6532628411581
 30
0.0
 10
12.28487820603866
 20
259.6577729076602
 30
0.0
  0
SPLINE
  5
DE
330
1F
100
AcDbEntity
  8
0
  6
Continuous
 62
     7
370
    25
100
AcDbSpline
210
0.0
220
0.0
230
1.0
 70
     8
 71
     3
 72
     8
 73
     4
 74
     0
 42
0.00000001
 43
0.00000001
 40
0.0
 40
0.0
 40
0.0
 40
0.0
 40
0.0191898270047263
 40
0.0191898270047263
 40
0.0191898270047263
 40
0.0191898270047263
 10
278.9837877385378
 20
257.1409744165852
 30
0.0
 10
278.9930588218586
 20
257.1337641776052
 30
0.0
 10
279.0023299051794
 20
257.1265539386252
 30
0.0
 10
279.0116173283289
 20
257.1193684567165
 30
0.0
  0
MTEXT
  5
E0
330
1F
100
AcDbEntity
  8
0
  6
Continuous
 62
     7
100
AcDbMText
 10
0.0
 20
14.3305089537
 30
0.0
 40
5.1381
 41
0.0
 71
     1
 72
     1
  1
SOLIDWORKS Educational Product.
  7
SLDTEXTSTYLE0
 73
     1
 44
1.0
  0
MTEXT
  5
E1
330
1F
100
AcDbEntity
  8
0
  6
Continuous
 62
     7
100
AcDbMText
 10
0.0
 20
6.6233589537
 30
0.0
 40
5.1381
 41
0.0
 71
     1
 72
     1
  1
For Instructional Use Only.
  7
SLDTEXTSTYLE0
 73
     1
 44
1.0
  0
ENDSEC
  0
SECTION
  2
OBJECTS
  0
DICTIONARY
  5
C
330
0
100
AcDbDictionary
281
     1
  3
ACAD_GROUP
350
D
  3
ACAD_LAYOUT
350
1A
  3
ACAD_MLINESTYLE
350
17
  3
ACAD_PLOTSETTINGS
350
19
  3
ACAD_PLOTSTYLENAME
350
E
  3
ACAD_SCALELIST
350
47
  3
DWGPROPS
350
E2
  0
DICTIONARY
  5
D
102
{ACAD_REACTORS
330
C
102
}
330
C
100
AcDbDictionary
281
     1
  0
DICTIONARY
  5
1A
102
{ACAD_REACTORS
330
C
102
}
330
C
100
AcDbDictionary
281
     1
  3
Layout1
350
1E
  3
Layout2
350
26
  3
Model
350
22
  0
DICTIONARY
  5
17
102
{ACAD_REACTORS
330
C
102
}
330
C
100
AcDbDictionary
281
     1
  3
Standard
350
18
  0
DICTIONARY
  5
19
102
{ACAD_REACTORS
330
C
102
}
330
C
100
AcDbDictionary
281
     1
  0
ACDBDICTIONARYWDFLT
  5
E
102
{ACAD_REACTORS
330
C
102
}
330
C
100
AcDbDictionary
281
     1
  3
Normal
350
F
100
AcDbDictionaryWithDefault
340
F
  0
DICTIONARY
  5
47
102
{ACAD_REACTORS
330
C
102
}
330
C
100
AcDbDictionary
281
     1
  3
A0
350
48
  3
A1
350
49
  3
A2
350
4A
  3
A3
350
4B
  3
A4
350
4C
  3
A5
350
4D
  3
A6
350
4E
  3
A7
350
4F
  3
A8
350
50
  3
A9
350
51
  3
B0
350
52
  3
B1
350
53
  3
B2
350
54
  3
B3
350
55
  3
B4
350
56
  3
B5
350
57
  3
B6
350
58
  3
B7
350
59
  3
B8
350
5A
  3
B9
350
5B
  3
C0
350
5C
  3
C1
350
5D
  3
C2
350
5E
  3
C3
350
5F
  3
C4
350
60
  3
C5
350
61
  3
C6
350
62
  3
C7
350
63
  3
C8
350
64
  3
C9
350
65
  3
D0
350
66
  3
D1
350
67
  3
D2
350
68
  0
XRECORD
  5
E2
102
{ACAD_REACTORS
330
C
102
}
330
C
100
AcDbXrecord
280
     1
  1
DWGPROPS COOKIE
  2

  3

  4

  6

  7

  8
maksi
  9

300
=
301
=
302
=
303
=
304
=
305
=
306
=
307
=
308
=
309
=
 40
0.0
 41
2459709.739613935
 42
2459709.739614584
  1

 90
        0
  0
LAYOUT
  5
1E
102
{ACAD_REACTORS
330
1A
102
}
330
1A
100
AcDbPlotSettings
  1

  2
none_device
  4

  6

 40
0.0
 41
0.0
 42
0.0
 43
0.0
 44
0.0
 45
0.0
 46
0.0
 47
0.0
 48
0.0
 49
0.0
140
0.0
141
0.0
142
1.0
143
1.0
 70
   688
 72
     1
 73
     0
 74
     5
  7

 75
    16
147
1.0
148
0.0
149
0.0
100
AcDbLayout
  1
Layout1
 70
     1
 71
     1
 10
0.0
 20
0.0
 11
420.0
 21
297.0
 12
0.0
 22
0.0
 32
0.0
 14
1.0000000000E+20
 24
1.0000000000E+20
 34
1.0000000000E+20
 15
-1.0000000000E+20
 25
-1.0000000000E+20
 35
-1.0000000000E+20
146
0.0
 13
0.0
 23
0.0
 33
0.0
 16
1.0
 26
0.0
 36
0.0
 17
0.0
 27
1.0
 37
0.0
 76
     0
330
1B
  0
LAYOUT
  5
26
102
{ACAD_REACTORS
330
1A
102
}
330
1A
100
AcDbPlotSettings
  1

  2
none_device
  4

  6

 40
0.0
 41
0.0
 42
0.0
 43
0.0
 44
0.0
 45
0.0
 46
0.0
 47
0.0
 48
0.0
 49
0.0
140
0.0
141
0.0
142
1.0
143
1.0
 70
   688
 72
     1
 73
     0
 74
     5
  7

 75
    16
147
1.0
148
0.0
149
0.0
100
AcDbLayout
  1
Layout2
 70
     1
 71
     2
 10
0.0
 20
0.0
 11
0.0
 21
0.0
 12
0.0
 22
0.0
 32
0.0
 14
0.0
 24
0.0
 34
0.0
 15
0.0
 25
0.0
 35
0.0
146
0.0
 13
0.0
 23
0.0
 33
0.0
 16
1.0
 26
0.0
 36
0.0
 17
0.0
 27
1.0
 37
0.0
 76
     0
330
23
  0
LAYOUT
  5
22
102
{ACAD_REACTORS
330
1A
102
}
330
1A
100
AcDbPlotSettings
  1

  2
none_device
  4
Letter_(8.50_x_11.00_Inches)
  6

 40
6.35
 41
6.35
 42
6.35000508
 43
6.35000508
 44
215.9
 45
279.4
 46
0.0
 47
0.0
 48
0.0
 49
0.0
140
0.0
141
0.0
142
1.0
143
1.0
 70
  1712
 72
     1
 73
     0
 74
     0
  7

 75
     0
147
1.0
148
0.0
149
0.0
100
AcDbLayout
  1
Model
 70
     1
 71
     0
 10
0.0
 20
0.0
 11
420.0
 21
297.0
 12
0.0
 22
0.0
 32
0.0
 14
0.0
 24
0.0
 34
0.0
 15
420.0
 25
297.0
 35
0.0
146
0.0
 13
0.0
 23
0.0
 33
0.0
 16
1.0
 26
0.0
 36
0.0
 17
0.0
 27
1.0
 37
0.0
 76
     0
330
1F
331
29
  0
MLINESTYLE
  5
18
102
{ACAD_REACTORS
330
17
102
}
330
17
100
AcDbMlineStyle
  2
Standard
 70
     0
  3

 62
   256
 51
90.0
 52
90.0
 71
     2
 49
0.5
 62
   256
  6
BYLAYER
 49
-0.5
 62
   256
  6
BYLAYER
  0
ACDBPLACEHOLDER
  5
F
102
{ACAD_REACTORS
330
E
102
}
330
E
  0
SCALE
  5
48
102
{ACAD_REACTORS
330
47
102
}
330
47
100
AcDbScale
 70
     0
300
1:1
140
1.0
141
1.0
290
     1
  0
SCALE
  5
49
102
{ACAD_REACTORS
330
47
102
}
330
47
100
AcDbScale
 70
     0
300
1:2
140
1.0
141
2.0
290
     0
  0
SCALE
  5
4A
102
{ACAD_REACTORS
330
47
102
}
330
47
100
AcDbScale
 70
     0
300
1:4
140
1.0
141
4.0
290
     0
  0
SCALE
  5
4B
102
{ACAD_REACTORS
330
47
102
}
330
47
100
AcDbScale
 70
     0
300
1:5
140
1.0
141
5.0
290
     0
  0
SCALE
  5
4C
102
{ACAD_REACTORS
330
47
102
}
330
47
100
AcDbScale
 70
     0
300
1:8
140
1.0
141
8.0
290
     0
  0
SCALE
  5
4D
102
{ACAD_REACTORS
330
47
102
}
330
47
100
AcDbScale
 70
     0
300
1:10
140
1.0
141
10.0
290
     0
  0
SCALE
  5
4E
102
{ACAD_REACTORS
330
47
102
}
330
47
100
AcDbScale
 70
     0
300
1:16
140
1.0
141
16.0
290
     0
  0
SCALE
  5
4F
102
{ACAD_REACTORS
330
47
102
}
330
47
100
AcDbScale
 70
     0
300
1:20
140
1.0
141
20.0
290
     0
  0
SCALE
  5
50
102
{ACAD_REACTORS
330
47
102
}
330
47
100
AcDbScale
 70
     0
300
1:30
140
1.0
141
30.0
290
     0
  0
SCALE
  5
51
102
{ACAD_REACTORS
330
47
102
}
330
47
100
AcDbScale
 70
     0
300
1:40
140
1.0
141
40.0
290
     0
  0
SCALE
  5
52
102
{ACAD_REACTORS
330
47
102
}
330
47
100
AcDbScale
 70
     0
300
1:50
140
1.0
141
50.0
290
     0
  0
SCALE
  5
53
102
{ACAD_REACTORS
330
47
102
}
330
47
100
AcDbScale
 70
     0
300
1:100
140
1.0
141
100.0
290
     0
  0
SCALE
  5
54
102
{ACAD_REACTORS
330
47
102
}
330
47
100
AcDbScale
 70
     0
300
2:1
140
2.0
141
1.0
290
     0
  0
SCALE
  5
55
102
{ACAD_REACTORS
330
47
102
}
330
47
100
AcDbScale
 70
     0
300
4:1
140
4.0
141
1.0
290
     0
  0
SCALE
  5
56
102
{ACAD_REACTORS
330
47
102
}
330
47
100
AcDbScale
 70
     0
300
8:1
140
8.0
141
1.0
290
     0
  0
SCALE
  5
57
102
{ACAD_REACTORS
330
47
102
}
330
47
100
AcDbScale
 70
     0
300
10:1
140
10.0
141
1.0
290
     0
  0
SCALE
  5
58
102
{ACAD_REACTORS
330
47
102
}
330
47
100
AcDbScale
 70
     0
300
100:1
140
100.0
141
1.0
290
     0
  0
SCALE
  5
59
102
{ACAD_REACTORS
330
47
102
}
330
47
100
AcDbScale
 70
     0
300
1/128" = 1'-0"
140
0.0078125
141
12.0
290
     0
  0
SCALE
  5
5A
102
{ACAD_REACTORS
330
47
102
}
330
47
100
AcDbScale
 70
     0
300
1/64" = 1'-0"
140
0.015625
141
12.0
290
     0
  0
SCALE
  5
5B
102
{ACAD_REACTORS
330
47
102
}
330
47
100
AcDbScale
 70
     0
300
1/32" = 1'-0"
140
0.03125
141
12.0
290
     0
  0
SCALE
  5
5C
102
{ACAD_REACTORS
330
47
102
}
330
47
100
AcDbScale
 70
     0
300
1/16" = 1'-0"
140
0.0625
141
12.0
290
     0
  0
SCALE
  5
5D
102
{ACAD_REACTORS
330
47
102
}
330
47
100
AcDbScale
 70
     0
300
3/32" = 1'-0"
140
0.09375
141
12.0
290
     0
  0
SCALE
  5
5E
102
{ACAD_REACTORS
330
47
102
}
330
47
100
AcDbScale
 70
     0
300
1/8" = 1'-0"
140
0.125
141
12.0
290
     0
  0
SCALE
  5
5F
102
{ACAD_REACTORS
330
47
102
}
330
47
100
AcDbScale
 70
     0
300
3/16" = 1'-0"
140
0.1875
141
12.0
290
     0
  0
SCALE
  5
60
102
{ACAD_REACTORS
330
47
102
}
330
47
100
AcDbScale
 70
     0
300
1/4" = 1'-0"
140
0.25
141
12.0
290
     0
  0
SCALE
  5
61
102
{ACAD_REACTORS
330
47
102
}
330
47
100
AcDbScale
 70
     0
300
3/8" = 1'-0"
140
0.375
141
12.0
290
     0
  0
SCALE
  5
62
102
{ACAD_REACTORS
330
47
102
}
330
47
100
AcDbScale
 70
     0
300
1/2" = 1'-0"
140
0.5
141
12.0
290
     0
  0
SCALE
  5
63
102
{ACAD_REACTORS
330
47
102
}
330
47
100
AcDbScale
 70
     0
300
3/4" = 1'-0"
140
0.75
141
12.0
290
     0
  0
SCALE
  5
64
102
{ACAD_REACTORS
330
47
102
}
330
47
100
AcDbScale
 70
     0
300
1" = 1'-0"
140
1.0
141
12.0
290
     0
  0
SCALE
  5
65
102
{ACAD_REACTORS
330
47
102
}
330
47
100
AcDbScale
 70
     0
300
1-1/2" = 1'-0"
140
1.5
141
12.0
290
     0
  0
SCALE
  5
66
102
{ACAD_REACTORS
330
47
102
}
330
47
100
AcDbScale
 70
     0
300
3" = 1'-0"
140
3.0
141
12.0
290
     0
  0
SCALE
  5
67
102
{ACAD_REACTORS
330
47
102
}
330
47
100
AcDbScale
 70
     0
300
6" = 1'-0"
140
6.0
141
12.0
290
     0
  0
SCALE
  5
68
102
{ACAD_REACTORS
330
47
102
}
330
47
100
AcDbScale
 70
     0
300
1'-0" = 1'-0"
140
12.0
141
12.0
290
     0
  0
ENDSEC
  0
EOF
