**ABCDEFGHIJKLMNOPQRSTUVWXYZabcdefghijklmnopqrstuvwxyz**************************
**PARASOLID !"#$%&'()*+,-./:;<=>?@[\]^_`{|}~0123456789**************************
**PART1;
MC=AMD64;
MC_MODEL=Intel64 Family 6 Model 158 Stepping 13, GenuineIntel;
MC_ID=unknown;
OS=Windows_NT;
OS_RELEASE=unknown;
FRU=Parasolid Version 32.1, build 255,  1- 1-2021;
APPL=SOLIDWORKS 2021-2021085;
SITE=;
USER=unknown;
FORMAT=text;
GUISE=transmit;
KEY=makeProjectedPlanarWire;
FILE=makeProjectedPlanarWire.x_t;
DATE=Sun Mar 13 11:57:49 2022;
**PART2;
SCH=SCH_3201255_32001;
USFLD_SIZE=0;
**PART3;
**END_OF_HEADER*****************************************************************
T51 : TRANSMIT FILE created by modeller version 320125523 SCH_3201255_32001_1300
6229 0 12 34 CCCCCCI4 mesh1006 0 I8 polyline1008 0 CCCCCCCDI5 owner1040 0 CCCCCC
I13 boundary_mesh1006 0 I17 boundary_polyline1008 0 CCCA16 index_map_offset0 0 1
 dA9 index_map82 0 A17 node_id_index_map82 0 A20 schema_embedding_map82 0 A5 chi
ld12 0 A14 lowest_node_id0 0 1 dA16 mesh_offset_data206 0 Z1 94 0 2 0 0 0 0 0 0
 1e3 1e-8 0 3 0 1 0 3 1 4 5 6 7 0 0 8 9 10 0 0 0 0 0 0 0 70 11 CI9 list_type0 0
 1 uI10 notransmit0 0 1 lCCCDCCDI12 finger_index0 0 1 dI12 finger_block1012 0 CZ
2 0 4 T1 0 0 1 20 1 11 11 13 255 4 91 0 1 0 12 0 0 8 12 50 255 5 3 0 12 0 0 0 +.
001489583720843124 .00418388069591457 .685 0 0 -1 -1 0 0 30 255 6 48 0 9 13 0 0
 +.1898540460125275 .01642727857338895 .685 0 -1 0 29 255 7 84 0 10 14 0 .189854
0460125275 .01642727857338895 .685 19 8 CCCCCCCA5 owner12 0 Z8 90 0 1 0 0 4 V0 1
6 255 9 46 0 ?15 0 16 6 0 0 1 18 255 10 82 0 17 0 18 7 ?1 17 255 17 0 0 0 0 10 1
9 20 0 21 +18 18 79 0 22 10 23 14 ?1 17 22 0 24 21 25 18 26 16 0 15 -18 23 76 0
 25 18 27 28 ?1 29 14 81 0 18 28 7 .1898540460125275 .00842727857338893 .685 29
 28 78 0 23 29 14 .1978540460125275 .00842727857338893 .685 29 29 75 0 27 30 28
 .1978540460125275 .01642727857338895 .685 18 27 73 0 19 23 31 29 ?1 29 30 72 0
 31 32 29 .0689532808751413 .02247259069509145 .685 18 31 70 0 33 27 34 30 ?1 29
 32 69 0 34 35 30 .07 .0025 .685 18 34 67 0 36 31 37 32 ?1 29 35 66 0 37 38 32 .
0899725906950915 .003546719124858725 .685 18 37 64 0 39 34 40 35 ?1 29 38 63 0 4
0 41 35 .0889258715702327 .0235193098199502 .685 18 40 61 0 42 37 43 38 ?1 29 41
 60 0 43 44 38 .0920869587675122 .0247115141656877 .685 18 43 58 0 45 40 46 41 ?
1 29 44 57 0 46 47 41 .0920869587675122 .00471151416568771 .685 18 46 55 0 48 43
 49 44 ?1 29 47 54 0 49 50 44 .152086958767512 .00471151416568772 .685 18 49 52
 0 51 46 52 47 ?1 29 50 51 0 52 0 47 .152086958767512 .02471151416568775 .685 18
 52 49 0 53 49 0 50 ?1 17 53 0 54 51 55 52 45 56 0 57 -15 255 54 6 0 53 12 58 17
 51 0 54 48 53 49 57 59 0 60 -17 55 0 54 53 48 43 61 62 0 0 -17 45 0 0 0 0 43 53
 56 0 55 +16 56 10 0 ?45 59 0 63 0 0 1 17 57 0 0 0 0 52 51 59 0 0 +16 59 13 0 ?5
7 64 56 65 0 0 1 16 64 16 0 ?60 62 59 66 0 0 1 30 65 15 0 59 63 66 0 +.152086958
767512 .02471151416568775 .685 0 1 0 30 63 12 0 56 0 65 0 +.152086958767512 .024
71151416568775 .685 -1 -1156482317317872e-31 0 30 66 18 0 64 65 67 0 +.092086958
7675122 .00471151416568771 .685 1 2457524924300475e-31 0 30 67 21 0 62 66 68 0 +
.0920869587675122 .0247115141656877 .685 0 -1 0 16 62 19 0 ?61 69 64 67 0 0 1 13
4 255 68 24 0 69 67 70 0 +71 72 16 69 22 0 ?73 74 62 68 0 0 1 30 70 27 0 74 68 7
5 0 +.0889258715702327 .0235193098199502 .685 -.998629534754574 -.05233595624293
74 0 136 255 71 3 83 3 87 2 TTF1 76 77 78 135 255 72 2 0 45 255 249 76 .26886080
9828443 .0002788226713277585 .685 .270280471495618 -805671480910226e-19 .685 .26
89329335578225 .0003524956458640245 .685 .2679067687050585 .000800062228703999 .
685 .265493337403094 .00175473811170576 .685 .2626484031062185 .0029195084569484
4 .685 .2590225410806415 .004299422432603025 .685 .2547614308315965 .00575422771
444844 .685 .2498101135710765 .00726527183587231 .685 .24421017544671 .008860003
19046221 .685 .2379937282907885 .01053511583476402 .685 .2312122237691505 .01226
649094210606 .685 .223918686456541 .01403598643404096 .685 .2161682493364835 .01
58176711323685 .685 .208019279368269 .0175868399892498 .685 .199531594050923 .01
930884931861365 .685 .190757583874644 .0209526687823973 .685 .181729078705274 .0
2244656353481395 .685 .1724857065020085 .0237788806265949 .685 .163067203004704
 .02494963610713825 .685 .153514388276839 .02592602735450535 .685 .1438737974785
38 .02672063075067955 .685 .1341906715357432 .0273179317617776 .685 .12451580453
57176 .0277064515241961 .685 .1148980084882456 .0279026967115103 .685 .105384918
1554014 .027886864858242 .685 .0960258854219022 .0276680479529526 .685 .08686840
38506323 .0272537526230879 .685 .0779613452334643 .02664492992804055 .685 .06935
12981504534 .02585460182084655 .685 .0610839455025806 .0248871881500534 .685 .05
32042833660714 .02375107269963445 .685 .0457522332397366 .0224644439817104 .685
 .03876731702678675 .02103094443969345 .685 .03228546077888055 .0194682548669156
 .685 .02633784460168655 .0177934950659202 .685 .02095680874251685 .016015791750
9397 .685 .01616133070858215 .01416760447796496 .685 .01197573070372672 .0122431
0347564346 .685 .00841906871693476 .01025904126239384 .685 .00547224296415662 .0
0827454832855855 .685 .003162430322565165 .00626126462358426 .685 .0014789793806
96006 .00429308317165897 .685 .000371136915206617 .0023887808601898 .685 -281860
53923561e-18 .00061485563857857 .685 -1422063735228616e-20 -.00103455531517698 .
685 .00117017115098154 -.00232900820435546 .685 .003191596637941355 -.0028616102
055205 .685 .00590093894084875 -.003414613989941135 .685 .0095037705938513 -.003
67098844904862 .685 .01394014017551474 -.003732291890766235 .685 .01923742786256
815 -.003615179778476215 .685 .0253684316113288 -.003360900662925265 .685 .03229
538774595205 -.003004453917408185 .685 .03996568815612735 -.00257018111205941 .6
85 .0483225230136751 -.002071535164952455 .685 .0573050038651898 -.0015317212960
1224 .685 .0668467747260103 -.000961423360004258 .685 .0768780761891054 -.000378
2702945370655 .685 .0873250824317546 .000209915111489442 .685 .0981106897843523
 .000793603647829826 .685 .1091578985547844 .001367589162508986 .685 .1203937770
026514 .00194386938994531 .685 .1317579127830896 .00254211638333123 .685 .143201
0630856806 .00313778281261522 .685 .154665861126763 .00370410173438214 .685 .166
0729957828625 .004174175732753715 .685 .177322016209765 .00451639399367127 .685
 .1883105386377825 .00474074780883225 .685 .198944977609885 .00483921239024152 .
685 .209136302533756 .00480855101421534 .685 .2187962982379695 .0046499215538739
7 .685 .227838646737916 .004368141790687665 .685 .236181287301788 .0039746736399
858 .685 .2437430651422935 .00348469108252562 .685 .250459331692246 .00291826721
942611 .685 .256238976815333 .00231037158216879 .685 .261088929811527 .001667980
044566435 .685 .264748869213918 .001083641171514562 .685 .267668480022305 .00048
9833575324208 .685 .268860809828443 .0002788226713277585 .685 .270280471495618 -
805671480910226e-19 .685 .2689329335578225 .0003524956458640245 .685 127 255 87
 77 1 1 1 1 1 1 1 1 1 1 1 1 1 1 1 1 1 1 1 1 1 1 1 1 1 1 1 1 1 1 1 1 1 1 1 1 1 1
 1 1 1 1 1 1 1 1 1 1 1 1 1 1 1 1 1 1 1 1 1 1 1 1 1 1 1 1 1 1 1 1 1 1 1 1 1 1 1 1
 1 1 1 1 1 1 1 1 1 128 255 87 78 -.00889292875079595 -.003950605760872695 -.0009
88677652963177 0 .000978925200277459 .003785915490230605 .00817878586970771 .013
939635702595 .02091458415433205 .02905659756219215 .0384135587113588 .0489739715
715676 .0606454194024025 .0733338505321348 .0869390748188673 .1013550225100806 .
1164708646708734 .1321707668488744 .1483321653609856 .164889947509332 .181806831
0217875 .1989868286605275 .2163690925924375 .2338912144748795 .25145520462322 .2
68989943534912 .2864101987512585 .30363306022829 .320588512817723 .3371872695963
295 .353353473374656 .3690123350062095 .3840834549815175 .3984997491865935 .4121
91496678254 .4250984693820765 .4371713631175385 .448351495068995 .45860567898881
8 .467900990608339 .476215592972652 .48357299062513 .489970137349999 .4954564435
83994 .500131702922336 .503991848386412 .507230007900311 .509986766870744 .51250
0662152879 .516073685181018 .521095012002638 .527571392405465 .535587320266657 .
545177110955053 .556301642956373 .568874715443027 .582800205502827 .597975201944
563 .614286016356002 .631612678153747 .649825892256692 .668791608390084 .6883710
85664615 .708416852810966 .728796853365483 .749399048787055 .770145767160638 .79
0953093304618 .811664203475039 .832074040882521 .851999343771334 .87128167196473
2 .889760566338039 .907279933600535 .923686413750604 .938832510110946 .952579326
689716 .964796492179185 .975364982161422 .984179191960217 .991107071249204 .9960
49394239127 .999011322347037 1 1.000978925200276 1.00378591549023 1.008178785869
708 16 74 25 0 ?33 79 69 70 0 0 1 30 75 30 0 79 70 80 0 +.0899725906950915 .0035
46719124858725 .685 -.0523359562429375 .998629534754574 0 16 79 28 0 ?81 82 74 7
5 0 0 1 30 80 33 0 82 75 83 0 +.07 .0025 .685 .998629534754574 .0523359562429373
 0 16 82 31 0 ?84 85 79 80 0 0 1 30 83 36 0 85 80 86 0 +.0689532808751413 .02247
259069509145 .685 .0523359562429368 -.998629534754574 0 16 85 34 0 ?87 20 82 83
 0 0 1 30 86 39 0 20 83 88 0 +.1978540460125275 .01642727857338895 .685 -1 0 0 1
6 20 37 0 ?17 89 85 86 0 0 1 30 88 42 0 89 86 13 0 +.1978540460125275 .008427278
57338893 .685 0 1 0 16 89 40 0 ?90 16 20 88 0 0 1 30 13 45 0 16 88 6 0 +.1898540
460125275 .00842727857338893 .685 1 -2168404344971005e-31 0 16 16 43 0 ?26 9 89
 13 0 0 1 17 26 0 0 0 0 23 22 16 0 0 +17 90 0 0 0 0 27 25 89 0 0 +17 25 0 24 22
 19 23 90 89 0 26 -15 24 9 0 19 12 0 17 19 0 24 25 21 27 17 20 0 90 -17 21 0 24
 19 22 10 15 9 0 0 -17 15 0 0 0 0 18 21 9 0 0 +14 255 12 1 91 ?0 0 54 4 5 -0 0 0
 0 4 81 255 1 91 94 92 12 0 0 0 0 93 80 255 1 92 94 95 9000 1 1 1 1 1 1 1 1 0 FF
FFTFTFFFFFFF1 82 255 1 93 -503250575 79 255 14 95 SWEntUnchanged17 87 0 0 0 0 34
 96 85 0 0 +17 96 0 97 42 36 31 87 85 0 0 -15 97 8 0 42 12 24 17 42 0 97 39 96 4
0 33 74 0 81 -17 36 0 97 96 39 34 84 82 0 87 -17 39 0 97 36 42 37 81 79 0 84 -17
 84 0 0 0 0 37 36 82 0 0 +17 81 0 0 0 0 40 39 79 0 0 +17 33 0 0 0 0 31 42 74 0 9
6 +17 73 0 58 73 73 0 98 69 0 0 +15 58 7 0 73 12 97 17 98 0 0 0 0 0 73 69 0 0 -1
7 61 0 0 0 0 46 55 62 0 0 +17 60 0 0 0 0 49 48 64 0 0 +17 48 0 54 55 51 46 60 64
 0 61 -74 4 CI16 index_map_offset0 0 1 dCCZ20 11 1 0 0 91 0 0 0 0 0 0 0 0 0 0 0
 0 0 0 0 0 0 0 0 1 0 
