**ABCDEFGHIJKLMNOPQRSTUVWXYZabcdefghijklmnopqrstuvwxyz**************************
**PARASOLID !"#$%&'()*+,-./:;<=>?@[\]^_`{|}~0123456789**************************
**PART1;
MC=AMD64;
MC_MODEL=Intel64 Family 6 Model 158 Stepping 13, GenuineIntel;
MC_ID=unknown;
OS=Windows_NT;
OS_RELEASE=unknown;
FRU=Parasolid Version 32.1, build 255,  1- 1-2021;
APPL=SOLIDWORKS 2021-2021085;
SITE=;
USER=unknown;
FORMAT=text;
GUISE=transmit;
KEY=makeProjectedPlanarWire;
FILE=makeProjectedPlanarWire.x_t;
DATE=Fri Jan 28 08:11:02 2022;
**PART2;
SCH=SCH_3201255_32001;
USFLD_SIZE=0;
**PART3;
**END_OF_HEADER*****************************************************************
T51 : TRANSMIT FILE created by modeller version 320125523 SCH_3201255_32001_1300
6229 0 12 34 CCCCCCI4 mesh1006 0 I8 polyline1008 0 CCCCCCCDI5 owner1040 0 CCCCCC
I13 boundary_mesh1006 0 I17 boundary_polyline1008 0 CCCA16 index_map_offset0 0 1
 dA9 index_map82 0 A17 node_id_index_map82 0 A20 schema_embedding_map82 0 A5 chi
ld12 0 A14 lowest_node_id0 0 1 dA16 mesh_offset_data206 0 Z1 69 0 2 0 0 0 0 0 0
 1e3 1e-8 0 3 0 1 0 3 1 4 5 6 7 0 0 8 9 10 0 0 0 0 0 0 0 70 11 CI9 list_type0 0
 1 uI10 notransmit0 0 1 lCCCDCCDI12 finger_index0 0 1 dI12 finger_block1012 0 CZ
2 0 4 T1 0 0 1 20 1 11 11 13 255 4 66 0 1 0 12 0 0 8 12 50 255 5 3 0 12 0 0 0 +.
001489583720843124 .00418388069591457 1.2 0 0 -1 -1 0 0 30 255 6 35 0 9 13 0 0 +
.1894168565206055 .01676935102718905 1.2 .0523359562429362 -.998629534754574 0 2
9 255 7 59 0 10 14 0 .1894168565206055 .01676935102718905 1.2 19 8 CCCCCCCA5 own
er12 0 Z8 65 0 1 0 0 4 V0 16 255 9 33 0 ?15 0 16 6 0 0 1 18 255 10 57 0 17 0 18
 7 ?1 17 255 17 0 0 0 0 10 19 20 0 21 +18 18 54 0 22 10 23 14 ?1 17 22 0 24 21 2
5 18 26 16 0 15 -18 23 51 0 25 18 27 28 ?1 29 14 56 0 18 28 7 .189835544170549 .
00878031474915248 1.2 29 28 53 0 23 29 14 .1978245804485855 .00919900239909598 1
.2 29 29 50 0 27 30 28 .197405892798642 .01718803867713255 1.2 18 27 48 0 19 23
 31 29 ?1 29 30 47 0 31 32 29 .0689532808751413 .02247259069509145 1.2 18 31 45
 0 33 27 34 30 ?1 29 32 44 0 34 35 30 .07 .0025 1.2 18 34 42 0 36 31 37 32 ?1 29
 35 41 0 37 38 32 .0899725906950915 .003546719124858725 1.2 18 37 39 0 39 34 40
 35 ?1 29 38 38 0 40 0 35 .0889258715702327 .0235193098199502 1.2 18 40 36 0 41
 37 0 38 ?1 17 41 0 42 39 43 40 33 44 0 45 -15 255 42 6 0 41 12 46 17 39 0 42 36
 41 37 45 47 0 48 -17 43 0 42 41 36 31 49 50 0 0 -17 33 0 0 0 0 31 41 44 0 43 +1
6 44 9 0 ?33 47 0 51 0 0 1 17 45 0 0 0 0 40 39 47 0 0 +16 47 12 0 ?45 52 44 53 0
 0 1 16 52 15 0 ?48 50 47 54 0 0 1 30 53 14 0 47 51 54 0 +.0899725906950915 .003
546719124858725 1.2 -.0523359562429375 .998629534754574 0 30 51 11 0 44 0 53 0 +
.0889258715702327 .0235193098199502 1.2 -.998629534754574 -.0523359562429374 0 3
0 54 17 0 52 53 55 0 +.07 .0025 1.2 .998629534754574 .0523359562429373 0 30 55 2
0 0 50 54 56 0 +.0689532808751413 .02247259069509145 1.2 .0523359562429368 -.998
629534754574 0 16 50 18 0 ?49 57 52 55 0 0 1 134 255 56 23 0 57 55 58 0 +59 60 1
6 57 21 0 ?61 20 50 56 0 0 1 30 58 26 0 20 56 62 0 +.197405892798642 .0171880386
7713255 1.2 -.998629534754574 -.0523359562429382 0 136 255 59 3 83 3 87 2 TTF1 6
3 64 65 135 255 60 2 0 45 255 249 63 .268860809828443 .0002788226713277585 1.2 .
270280471495618 -805671480910226e-19 1.2 .2689329335578225 .0003524956458640245
 1.2 .2679067687050585 .000800062228703999 1.2 .265493337403094 .001754738111705
76 1.2 .2626484031062185 .00291950845694844 1.2 .2590225410806415 .0042994224326
03025 1.2 .2547614308315965 .00575422771444844 1.2 .2498101135710765 .0072652718
3587231 1.2 .24421017544671 .00886000319046221 1.2 .2379937282907885 .0105351158
3476402 1.2 .2312122237691505 .01226649094210606 1.2 .223918686456541 .014035986
43404096 1.2 .2161682493364835 .0158176711323685 1.2 .208019279368269 .017586839
9892498 1.2 .199531594050923 .01930884931861365 1.2 .190757583874644 .0209526687
823973 1.2 .181729078705274 .02244656353481395 1.2 .1724857065020085 .0237788806
265949 1.2 .163067203004704 .02494963610713825 1.2 .153514388276839 .02592602735
450535 1.2 .143873797478538 .02672063075067955 1.2 .1341906715357432 .0273179317
617776 1.2 .1245158045357176 .0277064515241961 1.2 .1148980084882456 .0279026967
115103 1.2 .1053849181554014 .027886864858242 1.2 .0960258854219022 .02766804795
29526 1.2 .0868684038506323 .0272537526230879 1.2 .0779613452334643 .02664492992
804055 1.2 .0693512981504534 .02585460182084655 1.2 .0610839455025806 .024887188
1500534 1.2 .0532042833660714 .02375107269963445 1.2 .0457522332397366 .02246444
39817104 1.2 .03876731702678675 .02103094443969345 1.2 .03228546077888055 .01946
82548669156 1.2 .02633784460168655 .0177934950659202 1.2 .02095680874251685 .016
0157917509397 1.2 .01616133070858215 .01416760447796496 1.2 .01197573070372672 .
01224310347564346 1.2 .00841906871693476 .01025904126239384 1.2 .005472242964156
62 .00827454832855855 1.2 .003162430322565165 .00626126462358426 1.2 .0014789793
80696006 .00429308317165897 1.2 .000371136915206617 .0023887808601898 1.2 -28186
053923561e-18 .00061485563857857 1.2 -1422063735228616e-20 -.00103455531517698 1
.2 .00117017115098154 -.00232900820435546 1.2 .003191596637941355 -.002861610205
5205 1.2 .00590093894084875 -.003414613989941135 1.2 .0095037705938513 -.0036709
8844904862 1.2 .01394014017551474 -.003732291890766235 1.2 .01923742786256815 -.
003615179778476215 1.2 .0253684316113288 -.003360900662925265 1.2 .0322953877459
5205 -.003004453917408185 1.2 .03996568815612735 -.00257018111205941 1.2 .048322
5230136751 -.002071535164952455 1.2 .0573050038651898 -.00153172129601224 1.2 .0
668467747260103 -.000961423360004258 1.2 .0768780761891054 -.0003782702945370655
 1.2 .0873250824317546 .000209915111489442 1.2 .0981106897843523 .00079360364782
9826 1.2 .1091578985547844 .001367589162508986 1.2 .1203937770026514 .0019438693
8994531 1.2 .1317579127830896 .00254211638333123 1.2 .1432010630856806 .00313778
281261522 1.2 .154665861126763 .00370410173438214 1.2 .1660729957828625 .0041741
75732753715 1.2 .177322016209765 .00451639399367127 1.2 .1883105386377825 .00474
074780883225 1.2 .198944977609885 .00483921239024152 1.2 .209136302533756 .00480
855101421534 1.2 .2187962982379695 .00464992155387397 1.2 .227838646737916 .0043
68141790687665 1.2 .236181287301788 .0039746736399858 1.2 .2437430651422935 .003
48469108252562 1.2 .250459331692246 .00291826721942611 1.2 .256238976815333 .002
31037158216879 1.2 .261088929811527 .001667980044566435 1.2 .264748869213918 .00
1083641171514562 1.2 .267668480022305 .000489833575324208 1.2 .268860809828443 .
0002788226713277585 1.2 .270280471495618 -805671480910226e-19 1.2 .2689329335578
225 .0003524956458640245 1.2 127 255 87 64 1 1 1 1 1 1 1 1 1 1 1 1 1 1 1 1 1 1 1
 1 1 1 1 1 1 1 1 1 1 1 1 1 1 1 1 1 1 1 1 1 1 1 1 1 1 1 1 1 1 1 1 1 1 1 1 1 1 1 1
 1 1 1 1 1 1 1 1 1 1 1 1 1 1 1 1 1 1 1 1 1 1 1 1 1 1 1 1 128 255 87 65 -.0088929
2875079595 -.003950605760872695 -.000988677652963177 0 .000978925200277459 .0037
85915490230605 .00817878586970771 .013939635702595 .02091458415433205 .029056597
56219215 .0384135587113588 .0489739715715676 .0606454194024025 .0733338505321348
 .0869390748188673 .1013550225100806 .1164708646708734 .1321707668488744 .148332
1653609856 .164889947509332 .1818068310217875 .1989868286605275 .216369092592437
5 .2338912144748795 .25145520462322 .268989943534912 .2864101987512585 .30363306
022829 .320588512817723 .3371872695963295 .353353473374656 .3690123350062095 .38
40834549815175 .3984997491865935 .412191496678254 .4250984693820765 .43717136311
75385 .448351495068995 .458605678988818 .467900990608339 .476215592972652 .48357
299062513 .489970137349999 .495456443583994 .500131702922336 .503991848386412 .5
07230007900311 .509986766870744 .512500662152879 .516073685181018 .5210950120026
38 .527571392405465 .535587320266657 .545177110955053 .556301642956373 .56887471
5443027 .582800205502827 .597975201944563 .614286016356002 .631612678153747 .649
825892256692 .668791608390084 .688371085664615 .708416852810966 .728796853365483
 .749399048787055 .770145767160638 .790953093304618 .811664203475039 .8320740408
82521 .851999343771334 .871281671964732 .889760566338039 .907279933600535 .92368
6413750604 .938832510110946 .952579326689716 .964796492179185 .975364982161422 .
984179191960217 .991107071249204 .996049394239127 .999011322347037 1 1.000978925
200276 1.00378591549023 1.008178785869708 16 20 24 0 ?17 66 57 58 0 0 1 30 62 29
 0 66 58 13 0 +.1978245804485855 .00919900239909598 1.2 -.0523359562429396 .9986
29534754574 0 16 66 27 0 ?67 16 20 62 0 0 1 30 13 32 0 16 62 6 0 +.1898355441705
49 .00878031474915248 1.2 .998629534754574 .0523359562429374 0 16 16 30 0 ?26 9
 66 13 0 0 1 17 26 0 0 0 0 23 22 16 0 0 +17 67 0 0 0 0 27 25 66 0 0 +17 25 0 24
 22 19 23 67 66 0 26 -15 24 8 0 19 12 0 17 19 0 24 25 21 27 17 20 0 67 -17 21 0
 24 19 22 10 15 9 0 0 -17 15 0 0 0 0 18 21 9 0 0 +14 255 12 1 68 ?0 0 42 4 5 -0
 0 0 0 4 81 255 1 68 69 69 12 0 0 0 0 70 80 255 1 69 71 72 9000 1 1 1 1 1 1 1 1
 0 FFFFTFTFFFFFFF1 82 255 1 70 666829068 79 255 14 72 SWEntUnchanged17 61 0 46 6
1 61 0 73 57 0 0 +15 46 7 0 61 12 24 17 73 0 0 0 0 0 61 57 0 0 -17 49 0 0 0 0 34
 43 50 0 0 +17 48 0 0 0 0 37 36 52 0 0 +17 36 0 42 43 39 34 48 52 0 49 -74 4 CI1
6 index_map_offset0 0 1 dCCZ20 11 1 0 0 68 0 0 0 0 0 0 0 0 0 0 0 0 0 0 0 0 0 0 0
 1 0 
