**ABCDEFGHIJKLMNOPQRSTUVWXYZabcdefghijklmnopqrstuvwxyz**************************
**PARASOLID !"#$%&'()*+,-./:;<=>?@[\]^_`{|}~0123456789**************************
**PART1;
MC=AMD64;
MC_MODEL=Intel64 Family 6 Model 158 Stepping 9, GenuineIntel;
MC_ID=unknown;
OS=Windows_NT;
OS_RELEASE=unknown;
FRU=Parasolid Version 32.1, build 255,  1- 1-2021;
APPL=SOLIDWORKS 2021-2021085;
SITE=;
USER=unknown;
FORMAT=text;
GUISE=transmit;
KEY=makeProjectedPlanarWire;
FILE=makeProjectedPlanarWire.x_t;
DATE=Thu Apr 14 13:39:25 2022;
**PART2;
SCH=SCH_3201255_32001;
USFLD_SIZE=0;
**PART3;
**END_OF_HEADER*****************************************************************
T51 : TRANSMIT FILE created by modeller version 320125523 SCH_3201255_32001_1300
6229 0 12 34 CCCCCCI4 mesh1006 0 I8 polyline1008 0 CCCCCCCDI5 owner1040 0 CCCCCC
I13 boundary_mesh1006 0 I17 boundary_polyline1008 0 CCCA16 index_map_offset0 0 1
 dA9 index_map82 0 A17 node_id_index_map82 0 A20 schema_embedding_map82 0 A5 chi
ld12 0 A14 lowest_node_id0 0 1 dA16 mesh_offset_data206 0 Z1 69 0 2 0 0 0 0 0 0
 1e3 1e-8 0 3 0 1 0 3 1 4 5 6 7 0 0 8 9 10 0 0 0 0 0 0 0 70 11 CI9 list_type0 0
 1 uI10 notransmit0 0 1 lCCCDCCDI12 finger_index0 0 1 dI12 finger_block1012 0 CZ
2 0 4 T1 0 0 1 20 1 11 11 13 255 4 66 0 1 0 12 0 0 8 12 50 255 5 3 0 12 0 0 0 +.
001489583720843124 .00418388069591457 .685 0 0 -1 -1 0 0 30 255 6 35 0 9 13 0 0
 +.1898540460125275 .01642727857338895 .685 0 -1 0 29 255 7 59 0 10 14 0 .189854
0460125275 .01642727857338895 .685 19 8 CCCCCCCA5 owner12 0 Z8 65 0 1 0 0 4 V0 1
6 255 9 33 0 ?15 0 16 6 0 0 1 18 255 10 57 0 17 0 18 7 ?1 17 255 17 0 0 0 0 10 1
9 20 0 21 +18 18 54 0 22 10 23 14 ?1 17 22 0 24 21 25 18 26 16 0 15 -18 23 51 0
 25 18 27 28 ?1 29 14 56 0 18 28 7 .1898540460125275 .00842727857338893 .685 29
 28 53 0 23 29 14 .1978540460125275 .00842727857338893 .685 29 29 50 0 27 30 28
 .1978540460125275 .01642727857338895 .685 18 27 48 0 19 23 31 29 ?1 29 30 47 0
 31 32 29 .0689532808751413 .02247259069509145 .685 18 31 45 0 33 27 34 30 ?1 29
 32 44 0 34 35 30 .07 .0025 .685 18 34 42 0 36 31 37 32 ?1 29 35 41 0 37 38 32 .
0899725906950915 .003546719124858725 .685 18 37 39 0 39 34 40 35 ?1 29 38 38 0 4
0 0 35 .0889258715702327 .0235193098199502 .685 18 40 36 0 41 37 0 38 ?1 17 41 0
 42 39 43 40 33 44 0 45 -15 255 42 6 0 41 12 46 17 39 0 42 36 41 37 45 47 0 48 -
17 43 0 42 41 36 31 49 50 0 0 -17 33 0 0 0 0 31 41 44 0 43 +16 44 9 0 ?33 47 0 5
1 0 0 1 17 45 0 0 0 0 40 39 47 0 0 +16 47 12 0 ?45 52 44 53 0 0 1 16 52 15 0 ?48
 50 47 54 0 0 1 30 53 14 0 47 51 54 0 +.0899725906950915 .003546719124858725 .68
5 -.0523359562429375 .998629534754574 0 30 51 11 0 44 0 53 0 +.0889258715702327
 .0235193098199502 .685 -.998629534754574 -.0523359562429374 0 30 54 17 0 52 53
 55 0 +.07 .0025 .685 .998629534754574 .0523359562429373 0 30 55 20 0 50 54 56 0
 +.0689532808751413 .02247259069509145 .685 .0523359562429368 -.998629534754574
 0 16 50 18 0 ?49 57 52 55 0 0 1 134 255 56 23 0 57 55 58 0 +59 60 16 57 21 0 ?6
1 20 50 56 0 0 1 30 58 26 0 20 56 62 0 +.1978540460125275 .01642727857338895 .68
5 -1 0 0 136 255 59 3 83 3 87 2 TTF1 63 64 65 135 255 60 2 0 45 255 249 63 .2688
60809828443 .0002788226713277585 .685 .270280471495618 -805671480910226e-19 .685
 .2689329335578225 .0003524956458640245 .685 .2679067687050585 .0008000622287039
99 .685 .265493337403094 .00175473811170576 .685 .2626484031062185 .002919508456
94844 .685 .2590225410806415 .004299422432603025 .685 .2547614308315965 .0057542
2771444844 .685 .2498101135710765 .00726527183587231 .685 .24421017544671 .00886
000319046221 .685 .2379937282907885 .01053511583476402 .685 .2312122237691505 .0
1226649094210606 .685 .223918686456541 .01403598643404096 .685 .2161682493364835
 .0158176711323685 .685 .208019279368269 .0175868399892498 .685 .199531594050923
 .01930884931861365 .685 .190757583874644 .0209526687823973 .685 .18172907870527
4 .02244656353481395 .685 .1724857065020085 .0237788806265949 .685 .163067203004
704 .02494963610713825 .685 .153514388276839 .02592602735450535 .685 .1438737974
78538 .02672063075067955 .685 .1341906715357432 .0273179317617776 .685 .12451580
45357176 .0277064515241961 .685 .1148980084882456 .0279026967115103 .685 .105384
9181554014 .027886864858242 .685 .0960258854219022 .0276680479529526 .685 .08686
84038506323 .0272537526230879 .685 .0779613452334643 .02664492992804055 .685 .06
93512981504534 .02585460182084655 .685 .0610839455025806 .0248871881500534 .685
 .0532042833660714 .02375107269963445 .685 .0457522332397366 .0224644439817104 .
685 .03876731702678675 .02103094443969345 .685 .03228546077888055 .0194682548669
156 .685 .02633784460168655 .0177934950659202 .685 .02095680874251685 .016015791
7509397 .685 .01616133070858215 .01416760447796496 .685 .01197573070372672 .0122
4310347564346 .685 .00841906871693476 .01025904126239384 .685 .00547224296415662
 .00827454832855855 .685 .003162430322565165 .00626126462358426 .685 .0014789793
80696006 .00429308317165897 .685 .000371136915206617 .0023887808601898 .685 -281
86053923561e-18 .00061485563857857 .685 -1422063735228616e-20 -.0010345553151769
8 .685 .00117017115098154 -.00232900820435546 .685 .003191596637941355 -.0028616
102055205 .685 .00590093894084875 -.003414613989941135 .685 .0095037705938513 -.
00367098844904862 .685 .01394014017551474 -.003732291890766235 .685 .01923742786
256815 -.003615179778476215 .685 .0253684316113288 -.003360900662925265 .685 .03
229538774595205 -.003004453917408185 .685 .03996568815612735 -.00257018111205941
 .685 .0483225230136751 -.002071535164952455 .685 .0573050038651898 -.0015317212
9601224 .685 .0668467747260103 -.000961423360004258 .685 .0768780761891054 -.000
3782702945370655 .685 .0873250824317546 .000209915111489442 .685 .09811068978435
23 .000793603647829826 .685 .1091578985547844 .001367589162508986 .685 .12039377
70026514 .00194386938994531 .685 .1317579127830896 .00254211638333123 .685 .1432
010630856806 .00313778281261522 .685 .154665861126763 .00370410173438214 .685 .1
660729957828625 .004174175732753715 .685 .177322016209765 .00451639399367127 .68
5 .1883105386377825 .00474074780883225 .685 .198944977609885 .00483921239024152
 .685 .209136302533756 .00480855101421534 .685 .2187962982379695 .00464992155387
397 .685 .227838646737916 .004368141790687665 .685 .236181287301788 .00397467363
99858 .685 .2437430651422935 .00348469108252562 .685 .250459331692246 .002918267
21942611 .685 .256238976815333 .00231037158216879 .685 .261088929811527 .0016679
80044566435 .685 .264748869213918 .001083641171514562 .685 .267668480022305 .000
489833575324208 .685 .268860809828443 .0002788226713277585 .685 .270280471495618
 -805671480910226e-19 .685 .2689329335578225 .0003524956458640245 .685 127 255 8
7 64 1 1 1 1 1 1 1 1 1 1 1 1 1 1 1 1 1 1 1 1 1 1 1 1 1 1 1 1 1 1 1 1 1 1 1 1 1 1
 1 1 1 1 1 1 1 1 1 1 1 1 1 1 1 1 1 1 1 1 1 1 1 1 1 1 1 1 1 1 1 1 1 1 1 1 1 1 1 1
 1 1 1 1 1 1 1 1 1 128 255 87 65 -.00889292875079595 -.003950605760872695 -.0009
88677652963177 0 .000978925200277459 .003785915490230605 .00817878586970771 .013
939635702595 .02091458415433205 .02905659756219215 .0384135587113588 .0489739715
715676 .0606454194024025 .0733338505321348 .0869390748188673 .1013550225100806 .
1164708646708734 .1321707668488744 .1483321653609856 .164889947509332 .181806831
0217875 .1989868286605275 .2163690925924375 .2338912144748795 .25145520462322 .2
68989943534912 .2864101987512585 .30363306022829 .320588512817723 .3371872695963
295 .353353473374656 .3690123350062095 .3840834549815175 .3984997491865935 .4121
91496678254 .4250984693820765 .4371713631175385 .448351495068995 .45860567898881
8 .467900990608339 .476215592972652 .48357299062513 .489970137349999 .4954564435
83994 .500131702922336 .503991848386412 .507230007900311 .509986766870744 .51250
0662152879 .516073685181018 .521095012002638 .527571392405465 .535587320266657 .
545177110955053 .556301642956373 .568874715443027 .582800205502827 .597975201944
563 .614286016356002 .631612678153747 .649825892256692 .668791608390084 .6883710
85664615 .708416852810966 .728796853365483 .749399048787055 .770145767160638 .79
0953093304618 .811664203475039 .832074040882521 .851999343771334 .87128167196473
2 .889760566338039 .907279933600535 .923686413750604 .938832510110946 .952579326
689716 .964796492179185 .975364982161422 .984179191960217 .991107071249204 .9960
49394239127 .999011322347037 1 1.000978925200276 1.00378591549023 1.008178785869
708 16 20 24 0 ?17 66 57 58 0 0 1 30 62 29 0 66 58 13 0 +.1978540460125275 .0084
2727857338893 .685 0 1 0 16 66 27 0 ?67 16 20 62 0 0 1 30 13 32 0 16 62 6 0 +.18
98540460125275 .00842727857338893 .685 1 -2168404344971005e-31 0 16 16 30 0 ?26
 9 66 13 0 0 1 17 26 0 0 0 0 23 22 16 0 0 +17 67 0 0 0 0 27 25 66 0 0 +17 25 0 2
4 22 19 23 67 66 0 26 -15 24 8 0 19 12 0 17 19 0 24 25 21 27 17 20 0 67 -17 21 0
 24 19 22 10 15 9 0 0 -17 15 0 0 0 0 18 21 9 0 0 +14 255 12 1 68 ?0 0 42 4 5 -0
 0 0 0 4 81 255 1 68 69 69 12 0 0 0 0 70 80 255 1 69 71 72 9000 1 1 1 1 1 1 1 1
 0 FFFFTFTFFFFFFF1 82 255 1 70 173277568 79 255 14 72 SWEntUnchanged17 61 0 46 6
1 61 0 73 57 0 0 +15 46 7 0 61 12 24 17 73 0 0 0 0 0 61 57 0 0 -17 49 0 0 0 0 34
 43 50 0 0 +17 48 0 0 0 0 37 36 52 0 0 +17 36 0 42 43 39 34 48 52 0 49 -74 4 CI1
6 index_map_offset0 0 1 dCCZ20 11 1 0 0 68 0 0 0 0 0 0 0 0 0 0 0 0 0 0 0 0 0 0 0
 1 0 
